%FSLAX25Y25*%
%MOIN*%
G70*
G01*
G75*
G04 Layer_Physical_Order=1*
G04 Layer_Color=255*
%ADD10R,0.04724X0.05512*%
%ADD11R,0.04724X0.04724*%
%ADD12O,0.03937X0.01181*%
%ADD13R,0.03937X0.01181*%
%ADD14R,0.05906X0.05512*%
%ADD15R,0.02992X0.04724*%
%ADD16R,0.05512X0.05906*%
%ADD17C,0.01300*%
%ADD18C,0.01000*%
%ADD19R,0.05906X0.05906*%
%ADD20C,0.05906*%
%ADD21R,0.11000X0.06000*%
%ADD22O,0.11000X0.06000*%
%ADD23R,0.05000X0.05000*%
%ADD24C,0.05000*%
%ADD25C,0.05512*%
%ADD26R,0.05512X0.05512*%
G36*
X113554Y125850D02*
Y124459D01*
X113705Y123698D01*
X114136Y123053D01*
X117236Y119953D01*
X117881Y119522D01*
X118642Y119370D01*
X122089D01*
Y116459D01*
X126042D01*
Y115459D01*
X122089D01*
Y112850D01*
X121433D01*
X120944Y112947D01*
X116865D01*
X112530Y117282D01*
Y125695D01*
X113054Y126096D01*
X113554Y125850D01*
D02*
G37*
G36*
X177409Y2362D02*
X141605D01*
Y11298D01*
X127448D01*
Y18298D01*
X66200D01*
Y11298D01*
X51200D01*
Y2362D01*
X2409D01*
Y139332D01*
X103896D01*
X104103Y138832D01*
X99136Y133865D01*
X98705Y133220D01*
X98554Y132459D01*
Y132223D01*
X97831Y131669D01*
X97222Y130875D01*
X96839Y129951D01*
X96709Y128959D01*
X96839Y127967D01*
X97222Y127042D01*
X97831Y126249D01*
X98625Y125639D01*
X99550Y125257D01*
X100542Y125126D01*
X101534Y125257D01*
X102458Y125639D01*
X103252Y126249D01*
X103861Y127042D01*
X104244Y127967D01*
X104375Y128959D01*
X104244Y129951D01*
X103861Y130875D01*
X103252Y131669D01*
X103163Y131737D01*
X103130Y132236D01*
X106738Y135843D01*
X116961D01*
X117153Y135381D01*
X114136Y132365D01*
X113769Y131816D01*
X113418Y131716D01*
X113194Y131713D01*
X112458Y132278D01*
X111534Y132661D01*
X110542Y132791D01*
X109550Y132661D01*
X108625Y132278D01*
X107832Y131669D01*
X107222Y130875D01*
X106840Y129951D01*
X106709Y128959D01*
X106840Y127967D01*
X107222Y127042D01*
X107832Y126249D01*
X108554Y125695D01*
Y116459D01*
X108705Y115698D01*
X109136Y115053D01*
X114636Y109553D01*
X115281Y109122D01*
X116042Y108970D01*
X119650D01*
X120139Y108873D01*
X122352D01*
X122573Y108425D01*
X122327Y108103D01*
X121898Y107069D01*
X121752Y105959D01*
X121898Y104849D01*
X122327Y103814D01*
X123009Y102926D01*
X123897Y102244D01*
X124932Y101815D01*
X126042Y101669D01*
X127152Y101815D01*
X128186Y102244D01*
X129075Y102926D01*
X129756Y103814D01*
X130185Y104849D01*
X130331Y105959D01*
X130185Y107069D01*
X129756Y108103D01*
X129510Y108425D01*
X129731Y108873D01*
X132352D01*
X132573Y108425D01*
X132327Y108103D01*
X131898Y107069D01*
X131752Y105959D01*
X131898Y104849D01*
X132327Y103814D01*
X133009Y102926D01*
X133897Y102244D01*
X134054Y102179D01*
Y99782D01*
X129091Y94820D01*
X87492D01*
X82530Y99782D01*
Y125695D01*
X83252Y126249D01*
X83861Y127042D01*
X84244Y127967D01*
X84374Y128959D01*
X84244Y129951D01*
X83861Y130875D01*
X83252Y131669D01*
X82458Y132278D01*
X81534Y132661D01*
X80542Y132791D01*
X79550Y132661D01*
X78625Y132278D01*
X77832Y131669D01*
X77222Y130875D01*
X76840Y129951D01*
X76709Y128959D01*
X76840Y127967D01*
X77222Y127042D01*
X77832Y126249D01*
X78553Y125695D01*
Y98959D01*
X78705Y98198D01*
X79136Y97553D01*
X85263Y91426D01*
X85908Y90995D01*
X86669Y90843D01*
X129915D01*
X130675Y90995D01*
X131320Y91426D01*
X137448Y97553D01*
X137879Y98198D01*
X138030Y98959D01*
Y102179D01*
X138186Y102244D01*
X139075Y102926D01*
X139756Y103814D01*
X140185Y104849D01*
X140331Y105959D01*
X140185Y107069D01*
X139756Y108103D01*
X139510Y108425D01*
X139731Y108873D01*
X140315D01*
X141963Y107225D01*
X141898Y107069D01*
X141752Y105959D01*
X141898Y104849D01*
X142327Y103814D01*
X143009Y102926D01*
X143897Y102244D01*
X144931Y101815D01*
X146042Y101669D01*
X147152Y101815D01*
X148186Y102244D01*
X149075Y102926D01*
X149756Y103814D01*
X150185Y104849D01*
X150331Y105959D01*
X150185Y107069D01*
X149756Y108103D01*
X149075Y108992D01*
X148186Y109674D01*
X147152Y110102D01*
X146042Y110248D01*
X144931Y110102D01*
X144775Y110037D01*
X142545Y112267D01*
X141900Y112698D01*
X141139Y112850D01*
X139647D01*
X139400Y113350D01*
X139756Y113814D01*
X140185Y114848D01*
X140331Y115959D01*
X140185Y117069D01*
X139756Y118103D01*
X139075Y118992D01*
X138186Y119674D01*
X137152Y120102D01*
X136042Y120248D01*
X134932Y120102D01*
X134073Y119746D01*
X132310Y121509D01*
X132502Y121970D01*
X137218D01*
X141963Y117225D01*
X141898Y117069D01*
X141752Y115959D01*
X141898Y114848D01*
X142327Y113814D01*
X143009Y112926D01*
X143897Y112244D01*
X144931Y111815D01*
X146042Y111669D01*
X147152Y111815D01*
X148186Y112244D01*
X149075Y112926D01*
X149756Y113814D01*
X150185Y114848D01*
X150331Y115959D01*
X150185Y117069D01*
X149756Y118103D01*
X149075Y118992D01*
X148186Y119674D01*
X147152Y120102D01*
X146042Y120248D01*
X144931Y120102D01*
X144775Y120037D01*
X140106Y124706D01*
X140328Y125154D01*
X140542Y125126D01*
X141534Y125257D01*
X142458Y125639D01*
X143252Y126249D01*
X143861Y127042D01*
X144244Y127967D01*
X144375Y128959D01*
X144244Y129951D01*
X143861Y130875D01*
X143252Y131669D01*
X142458Y132278D01*
X142300Y132343D01*
X142400Y132843D01*
X143845D01*
X146828Y129861D01*
X146709Y128959D01*
X146839Y127967D01*
X147222Y127042D01*
X147831Y126249D01*
X148625Y125639D01*
X149550Y125257D01*
X150542Y125126D01*
X151534Y125257D01*
X152458Y125639D01*
X153252Y126249D01*
X153553Y126642D01*
X154053Y126472D01*
Y119738D01*
X153897Y119674D01*
X153009Y118992D01*
X152327Y118103D01*
X151898Y117069D01*
X151752Y115959D01*
X151898Y114848D01*
X152327Y113814D01*
X153009Y112926D01*
X153897Y112244D01*
X154931Y111815D01*
X156042Y111669D01*
X157152Y111815D01*
X158186Y112244D01*
X159075Y112926D01*
X159756Y113814D01*
X160185Y114848D01*
X160331Y115959D01*
X160185Y117069D01*
X159756Y118103D01*
X159075Y118992D01*
X158186Y119674D01*
X158030Y119738D01*
Y125531D01*
X158478Y125752D01*
X158625Y125639D01*
X159550Y125257D01*
X160542Y125126D01*
X161534Y125257D01*
X162458Y125639D01*
X163252Y126249D01*
X163861Y127042D01*
X164244Y127967D01*
X164374Y128959D01*
X164244Y129951D01*
X163861Y130875D01*
X163252Y131669D01*
X162458Y132278D01*
X161534Y132661D01*
X160542Y132791D01*
X159550Y132661D01*
X158625Y132278D01*
X158496Y132179D01*
X157945Y132386D01*
X157878Y132720D01*
X157448Y133365D01*
X151980Y138832D01*
X152188Y139332D01*
X177409D01*
Y2362D01*
D02*
G37*
%LPC*%
G36*
X142042Y36923D02*
Y33959D01*
X145006D01*
X144952Y34372D01*
X144599Y35224D01*
X144038Y35955D01*
X143307Y36516D01*
X142455Y36869D01*
X142042Y36923D01*
D02*
G37*
G36*
X77979Y39333D02*
X75983D01*
Y36470D01*
X77979D01*
Y39333D01*
D02*
G37*
G36*
X80975D02*
X78979D01*
Y36470D01*
X80975D01*
Y39333D01*
D02*
G37*
G36*
X91542Y37152D02*
X88089D01*
Y33896D01*
X91542D01*
Y37152D01*
D02*
G37*
G36*
X131599Y34994D02*
X130721D01*
Y33872D01*
X133121D01*
X133097Y33993D01*
X132746Y34519D01*
X132219Y34870D01*
X131599Y34994D01*
D02*
G37*
G36*
X141042Y36923D02*
X140628Y36869D01*
X139777Y36516D01*
X139045Y35955D01*
X138484Y35224D01*
X138132Y34372D01*
X138077Y33959D01*
X141042D01*
Y36923D01*
D02*
G37*
G36*
X95994Y37152D02*
X92542D01*
Y33896D01*
X95994D01*
Y37152D01*
D02*
G37*
G36*
X157405Y52332D02*
X154543D01*
Y49469D01*
X157405D01*
Y52332D01*
D02*
G37*
G36*
X153543D02*
X150681D01*
Y49469D01*
X153543D01*
Y52332D01*
D02*
G37*
G36*
X29270Y55821D02*
X26408D01*
Y52959D01*
X29270D01*
Y55821D01*
D02*
G37*
G36*
X25408D02*
X22546D01*
Y52959D01*
X25408D01*
Y55821D01*
D02*
G37*
G36*
Y51959D02*
X22546D01*
Y49097D01*
X25408D01*
Y51959D01*
D02*
G37*
G36*
X170909Y88164D02*
X169917Y88034D01*
X168993Y87651D01*
X168199Y87042D01*
X167590Y86248D01*
X167207Y85324D01*
X167076Y84332D01*
X167207Y83340D01*
X167590Y82415D01*
X168199Y81621D01*
X168921Y81067D01*
Y57650D01*
X155509Y44238D01*
X147199Y35928D01*
X146768Y35282D01*
X146616Y34522D01*
Y32211D01*
X145292D01*
X144974Y32711D01*
X145006Y32959D01*
X138077D01*
X138132Y32545D01*
X138484Y31694D01*
X139045Y30962D01*
X139333Y30742D01*
X139163Y30242D01*
X133807D01*
X133490Y30629D01*
X133526Y30813D01*
X133380Y31551D01*
X132962Y32176D01*
X132790Y32291D01*
X133097Y32752D01*
X133121Y32872D01*
X126999D01*
X126941Y32801D01*
X124896D01*
X124786Y32779D01*
X124400Y33097D01*
Y37831D01*
X124776Y38161D01*
X125042Y38126D01*
X126034Y38256D01*
X126958Y38639D01*
X127752Y39248D01*
X128361Y40042D01*
X128744Y40967D01*
X128875Y41959D01*
X128744Y42951D01*
X128361Y43875D01*
X127752Y44669D01*
X126958Y45278D01*
X126034Y45661D01*
X125042Y45792D01*
X124050Y45661D01*
X123125Y45278D01*
X122332Y44669D01*
X121722Y43875D01*
X121339Y42951D01*
X121209Y41959D01*
X121328Y41056D01*
X121006Y40735D01*
X120575Y40090D01*
X120424Y39329D01*
Y29152D01*
X118805Y27534D01*
X115448D01*
X115131Y27920D01*
X115168Y28104D01*
X115021Y28842D01*
X114659Y29384D01*
X115021Y29926D01*
X115168Y30663D01*
X115021Y31401D01*
X114659Y31943D01*
X115021Y32485D01*
X115168Y33222D01*
X115021Y33960D01*
X114603Y34585D01*
X113978Y35003D01*
X113851Y35029D01*
Y38138D01*
X113699Y38899D01*
X113268Y39544D01*
X111011Y41802D01*
X110365Y42232D01*
X109605Y42384D01*
X107794D01*
Y44452D01*
X99289D01*
Y36340D01*
Y28466D01*
X107794D01*
Y28466D01*
X108001Y28665D01*
X108282Y28654D01*
X108590Y28270D01*
X108557Y28104D01*
X108594Y27920D01*
X108276Y27534D01*
X96648D01*
X96294Y27887D01*
Y29264D01*
X96294Y29384D01*
Y29578D01*
Y29578D01*
X95994Y29953D01*
Y30078D01*
Y32896D01*
X88089D01*
Y30078D01*
Y29953D01*
X87789Y29578D01*
Y29578D01*
Y29384D01*
X87789Y29264D01*
Y27510D01*
X82271D01*
X77634Y32146D01*
X77825Y32608D01*
X77979D01*
Y35471D01*
X75983D01*
Y34451D01*
X75521Y34260D01*
X73794Y35986D01*
Y39633D01*
X68202D01*
Y32308D01*
X71849D01*
X74299Y29858D01*
X74107Y29397D01*
X71746D01*
Y27722D01*
X69428D01*
X66887Y30264D01*
X66242Y30695D01*
X65481Y30846D01*
X45481D01*
X45457Y30903D01*
X44807Y31751D01*
X43960Y32401D01*
X42973Y32809D01*
X41915Y32949D01*
X40856Y32809D01*
X39869Y32401D01*
X39022Y31751D01*
X38372Y30903D01*
X37963Y29917D01*
X37824Y28858D01*
X37963Y27799D01*
X38372Y26812D01*
X39022Y25965D01*
X39869Y25315D01*
X40856Y24906D01*
X41915Y24767D01*
X42973Y24906D01*
X43960Y25315D01*
X44807Y25965D01*
X45457Y26812D01*
X45481Y26870D01*
X64657D01*
X67199Y24328D01*
X67844Y23897D01*
X68605Y23746D01*
X71746D01*
Y22072D01*
X77338D01*
Y26166D01*
X77800Y26357D01*
X80041Y24116D01*
X80686Y23685D01*
X81447Y23534D01*
X87789D01*
Y21466D01*
X96294D01*
Y23557D01*
X119628D01*
X120389Y23708D01*
X121034Y24139D01*
X123818Y26923D01*
X125720Y28825D01*
X126635D01*
X126952Y28438D01*
X126915Y28254D01*
X127062Y27516D01*
X127252Y27231D01*
Y26195D01*
X133189D01*
Y26266D01*
X144549D01*
Y23706D01*
X152347D01*
X152467Y23706D01*
X152661D01*
X152661D01*
X153036Y24006D01*
X153161D01*
X155979D01*
Y27959D01*
Y31911D01*
X153161D01*
X153036D01*
X152661Y32212D01*
X152661D01*
X152467D01*
X152347Y32211D01*
X150593D01*
Y33698D01*
X156915Y40020D01*
X161921Y35014D01*
Y24596D01*
X161199Y24042D01*
X160590Y23248D01*
X160207Y22324D01*
X160076Y21332D01*
X160207Y20340D01*
X160590Y19415D01*
X161199Y18621D01*
X161993Y18012D01*
X162917Y17629D01*
X163909Y17499D01*
X164901Y17629D01*
X165825Y18012D01*
X166619Y18621D01*
X167228Y19415D01*
X167611Y20340D01*
X167742Y21332D01*
X167611Y22324D01*
X167228Y23248D01*
X166619Y24042D01*
X165897Y24596D01*
Y35837D01*
X165746Y36598D01*
X165315Y37243D01*
X159726Y42832D01*
X172315Y55420D01*
X172746Y56065D01*
X172897Y56826D01*
Y81067D01*
X173619Y81621D01*
X174228Y82415D01*
X174611Y83340D01*
X174742Y84332D01*
X174611Y85324D01*
X174228Y86248D01*
X173619Y87042D01*
X172825Y87651D01*
X171901Y88034D01*
X170909Y88164D01*
D02*
G37*
G36*
X100542Y72791D02*
X99550Y72661D01*
X98625Y72278D01*
X97831Y71669D01*
X97222Y70875D01*
X96839Y69951D01*
X96709Y68959D01*
X96839Y67967D01*
X97222Y67042D01*
X97831Y66249D01*
X98554Y65694D01*
Y62699D01*
X98705Y61938D01*
X99136Y61293D01*
X102130Y58298D01*
X101923Y57798D01*
X92200D01*
Y48200D01*
X120126D01*
Y57343D01*
X122585D01*
X123203Y56725D01*
Y48776D01*
X137615D01*
Y50843D01*
X142113D01*
Y49169D01*
X149437D01*
Y56494D01*
X142113D01*
Y54820D01*
X137615D01*
Y56888D01*
X128534D01*
X128271Y57281D01*
X124815Y60738D01*
X124170Y61168D01*
X123409Y61320D01*
X104733D01*
X102530Y63522D01*
Y65694D01*
X103252Y66249D01*
X103861Y67042D01*
X104244Y67967D01*
X104375Y68959D01*
X104244Y69951D01*
X103861Y70875D01*
X103252Y71669D01*
X102458Y72278D01*
X101534Y72661D01*
X100542Y72791D01*
D02*
G37*
G36*
X29270Y51959D02*
X26408D01*
Y49097D01*
X29270D01*
Y51959D01*
D02*
G37*
G36*
X156006Y18459D02*
X153042D01*
Y15494D01*
X153455Y15549D01*
X154307Y15901D01*
X155038Y16463D01*
X155599Y17194D01*
X155952Y18045D01*
X156006Y18459D01*
D02*
G37*
G36*
X152042Y22423D02*
X151628Y22369D01*
X150777Y22016D01*
X150045Y21455D01*
X149484Y20724D01*
X149132Y19872D01*
X149077Y19459D01*
X152042D01*
Y22423D01*
D02*
G37*
G36*
X153042D02*
Y19459D01*
X156006D01*
X155952Y19872D01*
X155599Y20724D01*
X155038Y21455D01*
X154307Y22016D01*
X153455Y22369D01*
X153042Y22423D01*
D02*
G37*
G36*
X152042Y18459D02*
X149077D01*
X149132Y18045D01*
X149484Y17194D01*
X150045Y16463D01*
X150777Y15901D01*
X151628Y15549D01*
X152042Y15494D01*
Y18459D01*
D02*
G37*
G36*
X22229Y19957D02*
X21171Y19817D01*
X20184Y19409D01*
X19337Y18759D01*
X18687Y17911D01*
X18278Y16925D01*
X18138Y15866D01*
X18278Y14807D01*
X18687Y13821D01*
X19337Y12973D01*
X20184Y12323D01*
X21171Y11914D01*
X22229Y11775D01*
X23288Y11914D01*
X24275Y12323D01*
X25122Y12973D01*
X25772Y13821D01*
X26181Y14807D01*
X26320Y15866D01*
X26181Y16925D01*
X25772Y17911D01*
X25122Y18759D01*
X24275Y19409D01*
X23288Y19817D01*
X22229Y19957D01*
D02*
G37*
G36*
X32072D02*
X31013Y19817D01*
X30027Y19409D01*
X29179Y18759D01*
X28529Y17911D01*
X28120Y16925D01*
X27981Y15866D01*
X28120Y14807D01*
X28529Y13821D01*
X29179Y12973D01*
X30027Y12323D01*
X31013Y11914D01*
X32072Y11775D01*
X33131Y11914D01*
X34117Y12323D01*
X34965Y12973D01*
X35615Y13821D01*
X36024Y14807D01*
X36163Y15866D01*
X36024Y16925D01*
X35615Y17911D01*
X34965Y18759D01*
X34117Y19409D01*
X33131Y19817D01*
X32072Y19957D01*
D02*
G37*
G36*
X41915D02*
X40856Y19817D01*
X39869Y19409D01*
X39022Y18759D01*
X38372Y17911D01*
X37963Y16925D01*
X37824Y15866D01*
X37963Y14807D01*
X38372Y13821D01*
X39022Y12973D01*
X39869Y12323D01*
X40856Y11914D01*
X41915Y11775D01*
X42973Y11914D01*
X43960Y12323D01*
X44807Y12973D01*
X45457Y13821D01*
X45866Y14807D01*
X46005Y15866D01*
X45866Y16925D01*
X45457Y17911D01*
X44807Y18759D01*
X43960Y19409D01*
X42973Y19817D01*
X41915Y19957D01*
D02*
G37*
G36*
X160235Y27459D02*
X156979D01*
Y24006D01*
X160235D01*
Y27459D01*
D02*
G37*
G36*
X156979Y31911D02*
Y28459D01*
X160235D01*
Y31911D01*
X156979D01*
D02*
G37*
G36*
X80975Y35471D02*
X78979D01*
Y32608D01*
X80975D01*
Y35471D01*
D02*
G37*
G36*
X129721Y34994D02*
X128843D01*
X128222Y34870D01*
X127696Y34519D01*
X127345Y33993D01*
X127321Y33872D01*
X129721D01*
Y34994D01*
D02*
G37*
G36*
X26285Y32914D02*
X18173D01*
Y24802D01*
X26285D01*
Y32914D01*
D02*
G37*
G36*
X129721Y25195D02*
X127252D01*
Y24104D01*
X129721D01*
Y25195D01*
D02*
G37*
G36*
X133189D02*
X130721D01*
Y24104D01*
X133189D01*
Y25195D01*
D02*
G37*
G36*
X22342Y86259D02*
X8742D01*
Y79976D01*
X3503Y74738D01*
X3072Y74092D01*
X2921Y73332D01*
Y48025D01*
X3072Y47264D01*
X3503Y46619D01*
X11666Y38456D01*
X12311Y38025D01*
X13072Y37874D01*
X24748D01*
X29797Y32825D01*
X29803Y32815D01*
X29740Y32181D01*
X29179Y31751D01*
X28529Y30903D01*
X28120Y29917D01*
X27981Y28858D01*
X28120Y27799D01*
X28529Y26812D01*
X29179Y25965D01*
X30027Y25315D01*
X31013Y24906D01*
X32072Y24767D01*
X33131Y24906D01*
X34117Y25315D01*
X34965Y25965D01*
X35615Y26812D01*
X36024Y27799D01*
X36163Y28858D01*
X36024Y29917D01*
X35615Y30903D01*
X34965Y31751D01*
X34117Y32401D01*
X34060Y32425D01*
Y33362D01*
X33909Y34123D01*
X33478Y34768D01*
X26978Y41268D01*
X26333Y41699D01*
X25572Y41850D01*
X13895D01*
X6897Y48849D01*
Y65018D01*
X7042Y65459D01*
X7397Y65459D01*
X10042D01*
Y68959D01*
Y72459D01*
X7555D01*
X7348Y72959D01*
X12048Y77659D01*
X22342D01*
Y86259D01*
D02*
G37*
G36*
X153543Y56194D02*
X150681D01*
Y53332D01*
X153543D01*
Y56194D01*
D02*
G37*
G36*
X93782Y85993D02*
X91782D01*
X90738Y85856D01*
X89765Y85453D01*
X88929Y84812D01*
X88288Y83976D01*
X87885Y83003D01*
X87813Y82459D01*
X93782D01*
Y85993D01*
D02*
G37*
G36*
X96782D02*
X94782D01*
Y82459D01*
X100751D01*
X100679Y83003D01*
X100276Y83976D01*
X99635Y84812D01*
X98799Y85453D01*
X97826Y85856D01*
X96782Y85993D01*
D02*
G37*
G36*
X156042Y110248D02*
X154931Y110102D01*
X153897Y109674D01*
X153009Y108992D01*
X152327Y108103D01*
X151898Y107069D01*
X151752Y105959D01*
X151898Y104849D01*
X152327Y103814D01*
X153009Y102926D01*
X153897Y102244D01*
X154931Y101815D01*
X156042Y101669D01*
X157152Y101815D01*
X158186Y102244D01*
X159075Y102926D01*
X159756Y103814D01*
X160185Y104849D01*
X160331Y105959D01*
X160185Y107069D01*
X159756Y108103D01*
X159075Y108992D01*
X158186Y109674D01*
X157152Y110102D01*
X156042Y110248D01*
D02*
G37*
G36*
X100751Y81459D02*
X94782D01*
Y77924D01*
X96782D01*
X97826Y78062D01*
X98799Y78465D01*
X99635Y79106D01*
X100276Y79941D01*
X100679Y80914D01*
X100751Y81459D01*
D02*
G37*
G36*
X14042Y68459D02*
X11042D01*
Y65459D01*
X14042D01*
Y68459D01*
D02*
G37*
G36*
Y72459D02*
X11042D01*
Y69459D01*
X14042D01*
Y72459D01*
D02*
G37*
G36*
X93782Y81459D02*
X87813D01*
X87885Y80914D01*
X88288Y79941D01*
X88929Y79106D01*
X89765Y78465D01*
X90738Y78062D01*
X91782Y77924D01*
X93782D01*
Y81459D01*
D02*
G37*
G36*
X10542Y132791D02*
X9550Y132661D01*
X8625Y132278D01*
X7831Y131669D01*
X7222Y130875D01*
X6840Y129951D01*
X6709Y128959D01*
X6840Y127967D01*
X7222Y127042D01*
X7831Y126249D01*
X8625Y125639D01*
X9550Y125257D01*
X10542Y125126D01*
X11534Y125257D01*
X12458Y125639D01*
X13252Y126249D01*
X13861Y127042D01*
X14244Y127967D01*
X14374Y128959D01*
X14244Y129951D01*
X13861Y130875D01*
X13252Y131669D01*
X12458Y132278D01*
X11534Y132661D01*
X10542Y132791D01*
D02*
G37*
G36*
X60542D02*
X59550Y132661D01*
X58625Y132278D01*
X57832Y131669D01*
X57222Y130875D01*
X56840Y129951D01*
X56709Y128959D01*
X56840Y127967D01*
X57222Y127042D01*
X57832Y126249D01*
X58625Y125639D01*
X59550Y125257D01*
X60542Y125126D01*
X61534Y125257D01*
X62458Y125639D01*
X63252Y126249D01*
X63861Y127042D01*
X64244Y127967D01*
X64375Y128959D01*
X64244Y129951D01*
X63861Y130875D01*
X63252Y131669D01*
X62458Y132278D01*
X61534Y132661D01*
X60542Y132791D01*
D02*
G37*
G36*
X70542D02*
X69550Y132661D01*
X68625Y132278D01*
X67831Y131669D01*
X67222Y130875D01*
X66839Y129951D01*
X66709Y128959D01*
X66839Y127967D01*
X67222Y127042D01*
X67831Y126249D01*
X68625Y125639D01*
X69550Y125257D01*
X70542Y125126D01*
X71534Y125257D01*
X72458Y125639D01*
X73252Y126249D01*
X73861Y127042D01*
X74244Y127967D01*
X74375Y128959D01*
X74244Y129951D01*
X73861Y130875D01*
X73252Y131669D01*
X72458Y132278D01*
X71534Y132661D01*
X70542Y132791D01*
D02*
G37*
G36*
X90542D02*
X89550Y132661D01*
X88625Y132278D01*
X87831Y131669D01*
X87222Y130875D01*
X86839Y129951D01*
X86709Y128959D01*
X86839Y127967D01*
X87222Y127042D01*
X87831Y126249D01*
X88625Y125639D01*
X89550Y125257D01*
X90542Y125126D01*
X91534Y125257D01*
X92458Y125639D01*
X93252Y126249D01*
X93861Y127042D01*
X94244Y127967D01*
X94375Y128959D01*
X94244Y129951D01*
X93861Y130875D01*
X93252Y131669D01*
X92458Y132278D01*
X91534Y132661D01*
X90542Y132791D01*
D02*
G37*
G36*
X50542D02*
X49550Y132661D01*
X48625Y132278D01*
X47831Y131669D01*
X47222Y130875D01*
X46839Y129951D01*
X46709Y128959D01*
X46839Y127967D01*
X47222Y127042D01*
X47831Y126249D01*
X48625Y125639D01*
X49550Y125257D01*
X50542Y125126D01*
X51534Y125257D01*
X52458Y125639D01*
X53252Y126249D01*
X53861Y127042D01*
X54244Y127967D01*
X54374Y128959D01*
X54244Y129951D01*
X53861Y130875D01*
X53252Y131669D01*
X52458Y132278D01*
X51534Y132661D01*
X50542Y132791D01*
D02*
G37*
G36*
X20542D02*
X19550Y132661D01*
X18625Y132278D01*
X17831Y131669D01*
X17222Y130875D01*
X16839Y129951D01*
X16709Y128959D01*
X16839Y127967D01*
X17222Y127042D01*
X17831Y126249D01*
X18625Y125639D01*
X19550Y125257D01*
X20542Y125126D01*
X21534Y125257D01*
X22458Y125639D01*
X23252Y126249D01*
X23861Y127042D01*
X24244Y127967D01*
X24374Y128959D01*
X24244Y129951D01*
X23861Y130875D01*
X23252Y131669D01*
X22458Y132278D01*
X21534Y132661D01*
X20542Y132791D01*
D02*
G37*
G36*
X30542D02*
X29550Y132661D01*
X28625Y132278D01*
X27832Y131669D01*
X27222Y130875D01*
X26840Y129951D01*
X26709Y128959D01*
X26840Y127967D01*
X27222Y127042D01*
X27832Y126249D01*
X28625Y125639D01*
X29550Y125257D01*
X30542Y125126D01*
X31534Y125257D01*
X32458Y125639D01*
X33252Y126249D01*
X33861Y127042D01*
X34244Y127967D01*
X34374Y128959D01*
X34244Y129951D01*
X33861Y130875D01*
X33252Y131669D01*
X32458Y132278D01*
X31534Y132661D01*
X30542Y132791D01*
D02*
G37*
G36*
X40542D02*
X39550Y132661D01*
X38625Y132278D01*
X37832Y131669D01*
X37222Y130875D01*
X36840Y129951D01*
X36709Y128959D01*
X36840Y127967D01*
X37222Y127042D01*
X37832Y126249D01*
X38625Y125639D01*
X39550Y125257D01*
X40542Y125126D01*
X41534Y125257D01*
X42458Y125639D01*
X43252Y126249D01*
X43861Y127042D01*
X44244Y127967D01*
X44374Y128959D01*
X44244Y129951D01*
X43861Y130875D01*
X43252Y131669D01*
X42458Y132278D01*
X41534Y132661D01*
X40542Y132791D01*
D02*
G37*
G36*
X50542Y72791D02*
X49550Y72661D01*
X48625Y72278D01*
X47831Y71669D01*
X47222Y70875D01*
X46839Y69951D01*
X46709Y68959D01*
X46839Y67967D01*
X47222Y67042D01*
X47831Y66249D01*
X48625Y65639D01*
X49550Y65257D01*
X50542Y65126D01*
X51534Y65257D01*
X52458Y65639D01*
X53252Y66249D01*
X53861Y67042D01*
X54244Y67967D01*
X54374Y68959D01*
X54244Y69951D01*
X53861Y70875D01*
X53252Y71669D01*
X52458Y72278D01*
X51534Y72661D01*
X50542Y72791D01*
D02*
G37*
G36*
X60542D02*
X59550Y72661D01*
X58625Y72278D01*
X57832Y71669D01*
X57222Y70875D01*
X56840Y69951D01*
X56709Y68959D01*
X56840Y67967D01*
X57222Y67042D01*
X57832Y66249D01*
X58625Y65639D01*
X59550Y65257D01*
X60542Y65126D01*
X61534Y65257D01*
X62458Y65639D01*
X63252Y66249D01*
X63861Y67042D01*
X64244Y67967D01*
X64375Y68959D01*
X64244Y69951D01*
X63861Y70875D01*
X63252Y71669D01*
X62458Y72278D01*
X61534Y72661D01*
X60542Y72791D01*
D02*
G37*
G36*
X70542D02*
X69550Y72661D01*
X68625Y72278D01*
X67831Y71669D01*
X67222Y70875D01*
X66839Y69951D01*
X66709Y68959D01*
X66839Y67967D01*
X67222Y67042D01*
X67831Y66249D01*
X68625Y65639D01*
X69550Y65257D01*
X70542Y65126D01*
X71534Y65257D01*
X72458Y65639D01*
X73252Y66249D01*
X73861Y67042D01*
X74244Y67967D01*
X74375Y68959D01*
X74244Y69951D01*
X73861Y70875D01*
X73252Y71669D01*
X72458Y72278D01*
X71534Y72661D01*
X70542Y72791D01*
D02*
G37*
G36*
X40542D02*
X39550Y72661D01*
X38625Y72278D01*
X37832Y71669D01*
X37222Y70875D01*
X36840Y69951D01*
X36709Y68959D01*
X36840Y67967D01*
X37222Y67042D01*
X37832Y66249D01*
X38625Y65639D01*
X39550Y65257D01*
X40542Y65126D01*
X41534Y65257D01*
X42458Y65639D01*
X43252Y66249D01*
X43861Y67042D01*
X44244Y67967D01*
X44374Y68959D01*
X44244Y69951D01*
X43861Y70875D01*
X43252Y71669D01*
X42458Y72278D01*
X41534Y72661D01*
X40542Y72791D01*
D02*
G37*
G36*
X157405Y56194D02*
X154543D01*
Y53332D01*
X157405D01*
Y56194D01*
D02*
G37*
G36*
X20542Y72791D02*
X19550Y72661D01*
X18625Y72278D01*
X17831Y71669D01*
X17222Y70875D01*
X16839Y69951D01*
X16709Y68959D01*
X16839Y67967D01*
X17222Y67042D01*
X17831Y66249D01*
X18625Y65639D01*
X19550Y65257D01*
X20542Y65126D01*
X21534Y65257D01*
X22458Y65639D01*
X23252Y66249D01*
X23861Y67042D01*
X24244Y67967D01*
X24374Y68959D01*
X24244Y69951D01*
X23861Y70875D01*
X23252Y71669D01*
X22458Y72278D01*
X21534Y72661D01*
X20542Y72791D01*
D02*
G37*
G36*
X30542D02*
X29550Y72661D01*
X28625Y72278D01*
X27832Y71669D01*
X27222Y70875D01*
X26840Y69951D01*
X26709Y68959D01*
X26840Y67967D01*
X27222Y67042D01*
X27832Y66249D01*
X28625Y65639D01*
X29550Y65257D01*
X30542Y65126D01*
X31534Y65257D01*
X32458Y65639D01*
X33252Y66249D01*
X33861Y67042D01*
X34244Y67967D01*
X34374Y68959D01*
X34244Y69951D01*
X33861Y70875D01*
X33252Y71669D01*
X32458Y72278D01*
X31534Y72661D01*
X30542Y72791D01*
D02*
G37*
G36*
X80542D02*
X79550Y72661D01*
X78625Y72278D01*
X77832Y71669D01*
X77222Y70875D01*
X76840Y69951D01*
X76709Y68959D01*
X76840Y67967D01*
X77222Y67042D01*
X77832Y66249D01*
X78625Y65639D01*
X79550Y65257D01*
X80542Y65126D01*
X81534Y65257D01*
X82458Y65639D01*
X83252Y66249D01*
X83861Y67042D01*
X84244Y67967D01*
X84374Y68959D01*
X84244Y69951D01*
X83861Y70875D01*
X83252Y71669D01*
X82458Y72278D01*
X81534Y72661D01*
X80542Y72791D01*
D02*
G37*
G36*
X140542D02*
X139550Y72661D01*
X138625Y72278D01*
X137831Y71669D01*
X137222Y70875D01*
X136839Y69951D01*
X136709Y68959D01*
X136839Y67967D01*
X137222Y67042D01*
X137831Y66249D01*
X138625Y65639D01*
X139550Y65257D01*
X140542Y65126D01*
X141534Y65257D01*
X142458Y65639D01*
X143252Y66249D01*
X143861Y67042D01*
X144244Y67967D01*
X144375Y68959D01*
X144244Y69951D01*
X143861Y70875D01*
X143252Y71669D01*
X142458Y72278D01*
X141534Y72661D01*
X140542Y72791D01*
D02*
G37*
G36*
X150542D02*
X149550Y72661D01*
X148625Y72278D01*
X147831Y71669D01*
X147222Y70875D01*
X146839Y69951D01*
X146709Y68959D01*
X146839Y67967D01*
X147222Y67042D01*
X147831Y66249D01*
X148625Y65639D01*
X149550Y65257D01*
X150542Y65126D01*
X151534Y65257D01*
X152458Y65639D01*
X153252Y66249D01*
X153861Y67042D01*
X154244Y67967D01*
X154375Y68959D01*
X154244Y69951D01*
X153861Y70875D01*
X153252Y71669D01*
X152458Y72278D01*
X151534Y72661D01*
X150542Y72791D01*
D02*
G37*
G36*
X160542D02*
X159550Y72661D01*
X158625Y72278D01*
X157832Y71669D01*
X157222Y70875D01*
X156840Y69951D01*
X156709Y68959D01*
X156840Y67967D01*
X157222Y67042D01*
X157832Y66249D01*
X158625Y65639D01*
X159550Y65257D01*
X160542Y65126D01*
X161534Y65257D01*
X162458Y65639D01*
X163252Y66249D01*
X163861Y67042D01*
X164244Y67967D01*
X164374Y68959D01*
X164244Y69951D01*
X163861Y70875D01*
X163252Y71669D01*
X162458Y72278D01*
X161534Y72661D01*
X160542Y72791D01*
D02*
G37*
G36*
X130542D02*
X129550Y72661D01*
X128625Y72278D01*
X127831Y71669D01*
X127222Y70875D01*
X126839Y69951D01*
X126709Y68959D01*
X126839Y67967D01*
X127222Y67042D01*
X127831Y66249D01*
X128625Y65639D01*
X129550Y65257D01*
X130542Y65126D01*
X131534Y65257D01*
X132458Y65639D01*
X133252Y66249D01*
X133861Y67042D01*
X134244Y67967D01*
X134374Y68959D01*
X134244Y69951D01*
X133861Y70875D01*
X133252Y71669D01*
X132458Y72278D01*
X131534Y72661D01*
X130542Y72791D01*
D02*
G37*
G36*
X90542D02*
X89550Y72661D01*
X88625Y72278D01*
X87831Y71669D01*
X87222Y70875D01*
X86839Y69951D01*
X86709Y68959D01*
X86828Y68056D01*
X80218Y61447D01*
X58085D01*
X57324Y61296D01*
X56679Y60865D01*
X52329Y56515D01*
X40336D01*
Y54447D01*
X37838D01*
Y56121D01*
X30513D01*
Y48796D01*
X37838D01*
Y50471D01*
X40336D01*
Y48403D01*
X54747D01*
Y53309D01*
X57738Y56300D01*
X58200Y56109D01*
Y48200D01*
X76129D01*
Y57471D01*
X81042D01*
X81802Y57622D01*
X82447Y58053D01*
X89639Y65245D01*
X90542Y65126D01*
X91534Y65257D01*
X92458Y65639D01*
X93252Y66249D01*
X93861Y67042D01*
X94244Y67967D01*
X94375Y68959D01*
X94244Y69951D01*
X93861Y70875D01*
X93252Y71669D01*
X92458Y72278D01*
X91534Y72661D01*
X90542Y72791D01*
D02*
G37*
G36*
X110542D02*
X109550Y72661D01*
X108625Y72278D01*
X107832Y71669D01*
X107222Y70875D01*
X106840Y69951D01*
X106709Y68959D01*
X106840Y67967D01*
X107222Y67042D01*
X107832Y66249D01*
X108625Y65639D01*
X109550Y65257D01*
X110542Y65126D01*
X111534Y65257D01*
X112458Y65639D01*
X113252Y66249D01*
X113861Y67042D01*
X114244Y67967D01*
X114374Y68959D01*
X114244Y69951D01*
X113861Y70875D01*
X113252Y71669D01*
X112458Y72278D01*
X111534Y72661D01*
X110542Y72791D01*
D02*
G37*
G36*
X120542D02*
X119550Y72661D01*
X118625Y72278D01*
X117832Y71669D01*
X117222Y70875D01*
X116840Y69951D01*
X116709Y68959D01*
X116840Y67967D01*
X117222Y67042D01*
X117832Y66249D01*
X118625Y65639D01*
X119550Y65257D01*
X120542Y65126D01*
X121534Y65257D01*
X122458Y65639D01*
X123252Y66249D01*
X123861Y67042D01*
X124244Y67967D01*
X124374Y68959D01*
X124244Y69951D01*
X123861Y70875D01*
X123252Y71669D01*
X122458Y72278D01*
X121534Y72661D01*
X120542Y72791D01*
D02*
G37*
%LPD*%
D10*
X51085Y52459D02*
D03*
X43998D02*
D03*
X126866Y52832D02*
D03*
X133952D02*
D03*
D11*
X34176Y52459D02*
D03*
X25908D02*
D03*
X145775Y52832D02*
D03*
X154043D02*
D03*
D12*
X111863Y25545D02*
D03*
Y28104D02*
D03*
Y30663D02*
D03*
Y33222D02*
D03*
X130221Y33372D02*
D03*
Y30813D02*
D03*
Y28254D02*
D03*
D13*
Y25695D02*
D03*
D14*
X103542Y32522D02*
D03*
Y40396D02*
D03*
X92042Y25522D02*
D03*
Y33396D02*
D03*
D15*
X78479Y35971D02*
D03*
X70998D02*
D03*
X74542Y25734D02*
D03*
D16*
X148605Y27959D02*
D03*
X156479D02*
D03*
D17*
X29459Y45041D02*
X69408D01*
X37209Y24725D02*
Y44405D01*
X65481Y28858D02*
X68605Y25734D01*
X41915Y28858D02*
X65481D01*
X32072D02*
Y33362D01*
X25572Y39862D02*
X32072Y33362D01*
X13072Y39862D02*
X25572D01*
X4909Y48025D02*
X13072Y39862D01*
X4909Y48025D02*
Y73332D01*
X54677Y19257D02*
X141244D01*
X37209Y24725D02*
X40572Y21362D01*
X52572D01*
X54677Y19257D01*
X129915Y92832D02*
X136042Y98959D01*
X86669Y92832D02*
X129915D01*
X170909Y56826D02*
Y84332D01*
X156915Y42832D02*
X170909Y56826D01*
X80542Y98959D02*
X86669Y92832D01*
X163909Y21332D02*
Y35837D01*
X148605Y34522D02*
X156915Y42832D01*
X163909Y35837D01*
X152542Y18959D02*
X156479Y22896D01*
X118642Y121359D02*
X129648D01*
X115542Y124459D02*
X118642Y121359D01*
X115542Y124459D02*
Y130959D01*
X129648Y121359D02*
X135048Y115959D01*
X136042D01*
X120542Y128959D02*
X125542Y123959D01*
X138042D01*
X146042Y115959D01*
X100542Y128959D02*
Y132459D01*
X156042Y115959D02*
Y131959D01*
X141139Y110861D02*
X146042Y105959D01*
X120139Y110861D02*
X141139D01*
X146042Y105959D02*
Y105961D01*
X116042Y110959D02*
X120944D01*
X110542Y116459D02*
X116042Y110959D01*
X110542Y116459D02*
Y128959D01*
X80542Y98959D02*
Y128959D01*
X136042Y98959D02*
Y105959D01*
X134806Y25695D02*
X141244Y19257D01*
X152244D01*
X130221Y25695D02*
X134806D01*
X130221Y33372D02*
X141955D01*
X156479Y22896D02*
Y27959D01*
X141955Y33372D02*
X142042Y33459D01*
X130221Y28254D02*
X148310D01*
X25908Y48592D02*
Y52459D01*
Y48592D02*
X29459Y45041D01*
X25908Y52459D02*
Y54459D01*
X34176Y52459D02*
X43998D01*
X25908Y54459D02*
X26092Y54275D01*
Y70802D01*
X37248Y81959D01*
X94282D01*
X111863Y25545D02*
X119628D01*
X111863D02*
Y28104D01*
X103542Y40396D02*
X109605D01*
X111863Y38138D01*
Y33222D02*
Y38138D01*
X103542Y32522D02*
X105400Y30663D01*
X111863D01*
X92065Y25545D02*
X111863D01*
X89467Y35971D02*
X92042Y33396D01*
X78479Y35971D02*
X89467D01*
X69408Y45041D02*
X78479Y35971D01*
X68605Y25734D02*
X74542D01*
X70998Y35971D02*
X81447Y25522D01*
X92042D01*
X51085Y52459D02*
X58085Y59459D01*
X81042D01*
X90542Y68959D01*
X148605Y27959D02*
Y34522D01*
X100542Y132459D02*
X105915Y137832D01*
X150169D01*
X156042Y131959D01*
X115542Y130959D02*
X119415Y134832D01*
X144669D01*
X150542Y128959D01*
X122412Y39329D02*
X125042Y41959D01*
X124896Y30813D02*
X130221D01*
X122412Y28329D02*
Y39329D01*
X119628Y25545D02*
X122412Y28329D01*
X124896Y30813D01*
X100542Y62699D02*
Y68959D01*
Y62699D02*
X103909Y59332D01*
X123409D01*
X126866Y55875D01*
Y52832D02*
Y55875D01*
X133952Y52832D02*
X145775D01*
X4909Y73332D02*
X13536Y81959D01*
X15542D01*
D18*
X68500Y15998D02*
Y11000D01*
Y12666D01*
X71832Y15998D01*
X69333Y13499D01*
X71832Y11000D01*
X75998D02*
X74331D01*
X73498Y11833D01*
Y13499D01*
X74331Y14332D01*
X75998D01*
X76831Y13499D01*
Y12666D01*
X73498D01*
X78497Y14332D02*
Y11833D01*
X79330Y11000D01*
X81829D01*
Y10167D01*
X80996Y9334D01*
X80163D01*
X81829Y11000D02*
Y14332D01*
X84328Y11000D02*
Y15165D01*
Y13499D01*
X83495D01*
X85161D01*
X84328D01*
Y15165D01*
X85161Y15998D01*
X87660Y11000D02*
X89327D01*
X88494D01*
Y14332D01*
X87660D01*
X91826Y11000D02*
Y14332D01*
X94325D01*
X95158Y13499D01*
Y11000D01*
X100156Y15998D02*
Y11000D01*
X97657D01*
X96824Y11833D01*
Y13499D01*
X97657Y14332D01*
X100156D01*
X104322Y11000D02*
X102656D01*
X101822Y11833D01*
Y13499D01*
X102656Y14332D01*
X104322D01*
X105155Y13499D01*
Y12666D01*
X101822D01*
X106821Y14332D02*
Y11000D01*
Y12666D01*
X107654Y13499D01*
X108487Y14332D01*
X109320D01*
X116818D02*
X118484Y11000D01*
X120150Y14332D01*
X125148Y11000D02*
X121816D01*
X125148Y14332D01*
Y15165D01*
X124315Y15998D01*
X122649D01*
X121816Y15165D01*
X60500Y55498D02*
Y50500D01*
X62999D01*
X63832Y51333D01*
Y52166D01*
X62999Y52999D01*
X60500D01*
X62999D01*
X63832Y53832D01*
Y54665D01*
X62999Y55498D01*
X60500D01*
X65498Y50500D02*
Y53832D01*
X67164Y55498D01*
X68831Y53832D01*
Y50500D01*
Y52999D01*
X65498D01*
X70497Y55498D02*
X73829D01*
X72163D01*
Y50500D01*
X94500D02*
Y53832D01*
X96166Y55498D01*
X97832Y53832D01*
Y50500D01*
Y52999D01*
X94500D01*
X99498Y55498D02*
Y50500D01*
X102831D01*
X107829Y55498D02*
X104497D01*
Y50500D01*
X107829D01*
X104497Y52999D02*
X106163D01*
X109495Y50500D02*
Y55498D01*
X111994D01*
X112827Y54665D01*
Y52999D01*
X111994Y52166D01*
X109495D01*
X111161D02*
X112827Y50500D01*
X114494Y55498D02*
X117826D01*
X116160D01*
Y50500D01*
X53500Y4000D02*
Y8998D01*
X55166Y7332D01*
X56832Y8998D01*
Y4000D01*
X58498D02*
Y4833D01*
X59331D01*
Y4000D01*
X58498D01*
X70994Y8165D02*
X70161Y8998D01*
X68495D01*
X67662Y8165D01*
Y7332D01*
X68495Y6499D01*
X70161D01*
X70994Y5666D01*
Y4833D01*
X70161Y4000D01*
X68495D01*
X67662Y4833D01*
X75993Y7332D02*
X73493D01*
X72660Y6499D01*
Y4833D01*
X73493Y4000D01*
X75993D01*
X77659Y8998D02*
Y4000D01*
Y6499D01*
X78492Y7332D01*
X80158D01*
X80991Y6499D01*
Y4000D01*
X82657Y7332D02*
Y4833D01*
X83490Y4000D01*
X84323Y4833D01*
X85156Y4000D01*
X85989Y4833D01*
Y7332D01*
X90155Y4000D02*
X88489D01*
X87656Y4833D01*
Y6499D01*
X88489Y7332D01*
X90155D01*
X90988Y6499D01*
Y5666D01*
X87656D01*
X94320Y2334D02*
X95153D01*
X95986Y3167D01*
Y7332D01*
X93487D01*
X92654Y6499D01*
Y4833D01*
X93487Y4000D01*
X95986D01*
X97652D02*
X99318D01*
X98485D01*
Y8998D01*
X97652D01*
X104317Y4000D02*
X102651D01*
X101818Y4833D01*
Y6499D01*
X102651Y7332D01*
X104317D01*
X105150Y6499D01*
Y5666D01*
X101818D01*
X106816Y7332D02*
Y4000D01*
Y5666D01*
X107649Y6499D01*
X108482Y7332D01*
X109315D01*
X125144Y8998D02*
X121811D01*
Y6499D01*
X123477D01*
X121811D01*
Y4000D01*
X130142Y8165D02*
X129309Y8998D01*
X127643D01*
X126810Y8165D01*
Y7332D01*
X127643Y6499D01*
X129309D01*
X130142Y5666D01*
Y4833D01*
X129309Y4000D01*
X127643D01*
X126810Y4833D01*
X131808Y4000D02*
X133474D01*
X132641D01*
Y8998D01*
X131808Y8165D01*
X135973Y8998D02*
X139305D01*
Y8165D01*
X135973Y4833D01*
Y4000D01*
D19*
X126042Y115959D02*
D03*
D20*
X136042D02*
D03*
X156042D02*
D03*
X146042Y105959D02*
D03*
Y115959D02*
D03*
X156042Y105959D02*
D03*
X136042D02*
D03*
X126042D02*
D03*
D21*
X15542Y81959D02*
D03*
D22*
X94282D02*
D03*
D23*
X10542Y68959D02*
D03*
D24*
X20542D02*
D03*
X30542D02*
D03*
X40542D02*
D03*
X50542D02*
D03*
X60542D02*
D03*
X70542D02*
D03*
X80542D02*
D03*
X90542D02*
D03*
X100542D02*
D03*
X110542D02*
D03*
X120542D02*
D03*
X130542D02*
D03*
X140542D02*
D03*
X150542D02*
D03*
X160542D02*
D03*
Y128959D02*
D03*
X150542D02*
D03*
X140542D02*
D03*
X130542D02*
D03*
X120542D02*
D03*
X110542D02*
D03*
X100542D02*
D03*
X90542D02*
D03*
X80542D02*
D03*
X70542D02*
D03*
X60542D02*
D03*
X50542D02*
D03*
X40542D02*
D03*
X30542D02*
D03*
X20542D02*
D03*
X10542D02*
D03*
X170909Y84332D02*
D03*
X163909Y21332D02*
D03*
X141542Y33459D02*
D03*
X152542Y18959D02*
D03*
X125042Y41959D02*
D03*
D25*
X41915Y15866D02*
D03*
X32072D02*
D03*
X22229D02*
D03*
X32072Y28858D02*
D03*
X41915D02*
D03*
D26*
X22229D02*
D03*
M02*
