M48
;Layer_Color=9474304
;FILE_FORMAT=2:3
INCH,LZ
;TYPE=PLATED
T01F00S00C0.032
T02F00S00C0.035
T03F00S00C0.036
T04F00S00C0.039
%
T01
X0125Y0042
X01415Y00335
X01525Y0019
X01639Y00213
X01709Y00843
T02
X00222Y00159
X00321
X00419
Y00289
X00321
X00222
T03
X00105Y0069
X00205
X00305
X00405
X00505
X00605
X00705
X00805
X00905
X01005
X01105
X01205
X01305
X01405
X01505
X01605
Y0129
X01505
X01405
X01305
X01205
X01105
X01005
X00905
X00805
X00705
X00605
X00505
X00405
X00305
X00205
X00105
T04
X00943Y0082
X0126Y0106
Y0116
X0136
X0146
X0156
Y0106
X0146
X0136
X00155Y0082
M30
