M48
;Layer_Color=9474304
;FILE_FORMAT=2:3
INCH,LZ
;TYPE=PLATED
T1F00S00C0.024
T2F00S00C0.028
T3F00S00C0.031
T4F00S00C0.032
T5F00S00C0.035
T6F00S00C0.118
%
T01
X00944Y00701
X00156
T02
X01251Y00301
X01416Y00216
X01526Y00071
X0164Y00095
X0171Y00725
T03
X00378Y00121
X00476
X00575
Y00251
X00476
X00378
T04
X00106Y00571
X00206
X00306
X00406
X00506
X00606
X00706
X00806
X00906
X01006
X01106
X01206
X01306
X01406
X01506
X01606
Y01171
X01506
X01406
X01306
X01206
X01106
X01006
X00906
X00806
X00706
X00606
X00506
X00406
X00306
X00206
X00106
T05
X01261Y00941
Y01041
X01361
X01461
X01561
Y00941
X01461
X01361
T06
X0013Y0013
M30
