%FSLAX25Y25*%
%MOIN*%
G70*
G01*
G75*
G04 Layer_Physical_Order=1*
G04 Layer_Color=255*
%ADD10R,0.04724X0.05512*%
%ADD11R,0.04724X0.04724*%
%ADD12O,0.03937X0.01181*%
%ADD13R,0.03937X0.01181*%
%ADD14R,0.05906X0.05512*%
%ADD15R,0.02992X0.04724*%
%ADD16R,0.05512X0.05906*%
%ADD17C,0.01300*%
%ADD18C,0.01000*%
%ADD19C,0.11811*%
%ADD20R,0.05906X0.05906*%
%ADD21C,0.05906*%
%ADD22R,0.09843X0.04724*%
%ADD23O,0.09843X0.04724*%
%ADD24R,0.05000X0.05000*%
%ADD25C,0.05000*%
%ADD26C,0.05512*%
%ADD27R,0.05512X0.05512*%
G36*
X113645Y114018D02*
Y112627D01*
X113796Y111866D01*
X114227Y111221D01*
X117327Y108121D01*
X117972Y107690D01*
X118733Y107539D01*
X122180D01*
Y104627D01*
X126133D01*
Y103627D01*
X122180D01*
Y101018D01*
X121524D01*
X121035Y101115D01*
X116956D01*
X112621Y105451D01*
Y113863D01*
X113145Y114265D01*
X113645Y114018D01*
D02*
G37*
G36*
X177500Y2500D02*
X2500D01*
Y127500D01*
X103987D01*
X104194Y127000D01*
X99227Y122033D01*
X98796Y121388D01*
X98644Y120627D01*
Y120391D01*
X97922Y119837D01*
X97313Y119044D01*
X96930Y118119D01*
X96800Y117127D01*
X96930Y116135D01*
X97313Y115211D01*
X97922Y114417D01*
X98716Y113808D01*
X99641Y113425D01*
X100633Y113294D01*
X101625Y113425D01*
X102549Y113808D01*
X103343Y114417D01*
X103952Y115211D01*
X104335Y116135D01*
X104465Y117127D01*
X104335Y118119D01*
X103952Y119044D01*
X103343Y119837D01*
X103254Y119905D01*
X103221Y120404D01*
X106829Y124012D01*
X117052D01*
X117244Y123550D01*
X114227Y120533D01*
X113860Y119984D01*
X113509Y119885D01*
X113285Y119882D01*
X112549Y120446D01*
X111625Y120829D01*
X110633Y120960D01*
X109641Y120829D01*
X108716Y120446D01*
X107922Y119837D01*
X107313Y119044D01*
X106930Y118119D01*
X106800Y117127D01*
X106930Y116135D01*
X107313Y115211D01*
X107922Y114417D01*
X108644Y113863D01*
Y104627D01*
X108796Y103866D01*
X109227Y103221D01*
X114727Y97721D01*
X115372Y97290D01*
X116133Y97139D01*
X119741D01*
X120230Y97042D01*
X122443D01*
X122664Y96593D01*
X122418Y96272D01*
X121989Y95237D01*
X121843Y94127D01*
X121989Y93017D01*
X122418Y91982D01*
X123100Y91094D01*
X123988Y90412D01*
X125022Y89984D01*
X126133Y89838D01*
X127243Y89984D01*
X128277Y90412D01*
X129166Y91094D01*
X129847Y91982D01*
X130276Y93017D01*
X130422Y94127D01*
X130276Y95237D01*
X129847Y96272D01*
X129601Y96593D01*
X129822Y97042D01*
X132443D01*
X132665Y96593D01*
X132418Y96272D01*
X131989Y95237D01*
X131843Y94127D01*
X131989Y93017D01*
X132418Y91982D01*
X133099Y91094D01*
X133988Y90412D01*
X134144Y90347D01*
Y87951D01*
X129182Y82988D01*
X87583D01*
X82621Y87951D01*
Y113863D01*
X83343Y114417D01*
X83952Y115211D01*
X84335Y116135D01*
X84465Y117127D01*
X84335Y118119D01*
X83952Y119044D01*
X83343Y119837D01*
X82549Y120446D01*
X81625Y120829D01*
X80633Y120960D01*
X79641Y120829D01*
X78716Y120446D01*
X77922Y119837D01*
X77313Y119044D01*
X76930Y118119D01*
X76800Y117127D01*
X76930Y116135D01*
X77313Y115211D01*
X77922Y114417D01*
X78644Y113863D01*
Y87127D01*
X78796Y86366D01*
X79227Y85721D01*
X85354Y79594D01*
X85999Y79163D01*
X86760Y79012D01*
X130006D01*
X130766Y79163D01*
X131411Y79594D01*
X137539Y85721D01*
X137970Y86366D01*
X138121Y87127D01*
Y90347D01*
X138277Y90412D01*
X139166Y91094D01*
X139847Y91982D01*
X140276Y93017D01*
X140422Y94127D01*
X140276Y95237D01*
X139847Y96272D01*
X139601Y96593D01*
X139822Y97042D01*
X140406D01*
X142054Y95394D01*
X141989Y95237D01*
X141843Y94127D01*
X141989Y93017D01*
X142418Y91982D01*
X143099Y91094D01*
X143988Y90412D01*
X145022Y89984D01*
X146133Y89838D01*
X147243Y89984D01*
X148277Y90412D01*
X149166Y91094D01*
X149847Y91982D01*
X150276Y93017D01*
X150422Y94127D01*
X150276Y95237D01*
X149847Y96272D01*
X149166Y97160D01*
X148277Y97842D01*
X147243Y98270D01*
X146133Y98417D01*
X145022Y98270D01*
X144866Y98206D01*
X142636Y100436D01*
X141991Y100867D01*
X141230Y101018D01*
X139738D01*
X139491Y101518D01*
X139847Y101982D01*
X140276Y103017D01*
X140422Y104127D01*
X140276Y105237D01*
X139847Y106272D01*
X139166Y107160D01*
X138277Y107842D01*
X137243Y108270D01*
X136133Y108417D01*
X135022Y108270D01*
X134164Y107915D01*
X132401Y109677D01*
X132593Y110139D01*
X137309D01*
X142054Y105394D01*
X141989Y105237D01*
X141843Y104127D01*
X141989Y103017D01*
X142418Y101982D01*
X143099Y101094D01*
X143988Y100412D01*
X145022Y99984D01*
X146133Y99838D01*
X147243Y99984D01*
X148277Y100412D01*
X149166Y101094D01*
X149847Y101982D01*
X150276Y103017D01*
X150422Y104127D01*
X150276Y105237D01*
X149847Y106272D01*
X149166Y107160D01*
X148277Y107842D01*
X147243Y108270D01*
X146133Y108417D01*
X145022Y108270D01*
X144866Y108206D01*
X140197Y112874D01*
X140419Y113322D01*
X140633Y113294D01*
X141625Y113425D01*
X142549Y113808D01*
X143343Y114417D01*
X143952Y115211D01*
X144335Y116135D01*
X144465Y117127D01*
X144335Y118119D01*
X143952Y119044D01*
X143343Y119837D01*
X142549Y120446D01*
X142391Y120512D01*
X142491Y121012D01*
X143936D01*
X146919Y118029D01*
X146800Y117127D01*
X146931Y116135D01*
X147313Y115211D01*
X147923Y114417D01*
X148716Y113808D01*
X149641Y113425D01*
X150633Y113294D01*
X151625Y113425D01*
X152549Y113808D01*
X153343Y114417D01*
X153645Y114810D01*
X154145Y114640D01*
Y107907D01*
X153988Y107842D01*
X153100Y107160D01*
X152418Y106272D01*
X151989Y105237D01*
X151843Y104127D01*
X151989Y103017D01*
X152418Y101982D01*
X153100Y101094D01*
X153988Y100412D01*
X155023Y99984D01*
X156133Y99838D01*
X157243Y99984D01*
X158277Y100412D01*
X159166Y101094D01*
X159847Y101982D01*
X160276Y103017D01*
X160422Y104127D01*
X160276Y105237D01*
X159847Y106272D01*
X159166Y107160D01*
X158277Y107842D01*
X158121Y107907D01*
Y113699D01*
X158569Y113921D01*
X158716Y113808D01*
X159641Y113425D01*
X160633Y113294D01*
X161625Y113425D01*
X162549Y113808D01*
X163343Y114417D01*
X163952Y115211D01*
X164335Y116135D01*
X164465Y117127D01*
X164335Y118119D01*
X163952Y119044D01*
X163343Y119837D01*
X162549Y120446D01*
X161625Y120829D01*
X160633Y120960D01*
X159641Y120829D01*
X158716Y120446D01*
X158587Y120347D01*
X158036Y120554D01*
X157969Y120888D01*
X157538Y121533D01*
X152071Y127000D01*
X152279Y127500D01*
X177500D01*
Y2500D01*
D02*
G37*
%LPC*%
G36*
X142133Y25091D02*
Y22127D01*
X145097D01*
X145043Y22541D01*
X144690Y23392D01*
X144129Y24123D01*
X143398Y24684D01*
X142546Y25037D01*
X142133Y25091D01*
D02*
G37*
G36*
X78070Y27501D02*
X76074D01*
Y24639D01*
X78070D01*
Y27501D01*
D02*
G37*
G36*
X81066D02*
X79070D01*
Y24639D01*
X81066D01*
Y27501D01*
D02*
G37*
G36*
X91633Y25320D02*
X88180D01*
Y22064D01*
X91633D01*
Y25320D01*
D02*
G37*
G36*
X131690Y23162D02*
X130812D01*
Y22040D01*
X133212D01*
X133188Y22161D01*
X132836Y22687D01*
X132310Y23039D01*
X131690Y23162D01*
D02*
G37*
G36*
X141133Y25091D02*
X140719Y25037D01*
X139868Y24684D01*
X139136Y24123D01*
X138575Y23392D01*
X138223Y22541D01*
X138168Y22127D01*
X141133D01*
Y25091D01*
D02*
G37*
G36*
X96085Y25320D02*
X92633D01*
Y22064D01*
X96085D01*
Y25320D01*
D02*
G37*
G36*
X25499Y43989D02*
X22637D01*
Y41127D01*
X25499D01*
Y43989D01*
D02*
G37*
G36*
X171000Y76333D02*
X170008Y76202D01*
X169084Y75819D01*
X168290Y75210D01*
X167681Y74416D01*
X167298Y73492D01*
X167167Y72500D01*
X167298Y71508D01*
X167681Y70584D01*
X168290Y69790D01*
X169012Y69236D01*
Y45818D01*
X164244Y41050D01*
X163782Y41242D01*
Y49798D01*
X104200D01*
Y38534D01*
X161074D01*
X161266Y38072D01*
X155600Y32406D01*
X147290Y24096D01*
X146859Y23451D01*
X146707Y22690D01*
Y20380D01*
X145383D01*
X145064Y20880D01*
X145097Y21127D01*
X138168D01*
X138223Y20713D01*
X138575Y19862D01*
X139136Y19131D01*
X139424Y18911D01*
X139254Y18410D01*
X133898D01*
X133581Y18797D01*
X133617Y18981D01*
X133471Y19719D01*
X133053Y20345D01*
X132880Y20460D01*
X133188Y20920D01*
X133212Y21041D01*
X127090D01*
X127032Y20970D01*
X124987D01*
X124878Y20948D01*
X124491Y21265D01*
Y26000D01*
X124867Y26329D01*
X125133Y26294D01*
X126125Y26425D01*
X127049Y26808D01*
X127843Y27417D01*
X128452Y28211D01*
X128835Y29135D01*
X128965Y30127D01*
X128835Y31119D01*
X128452Y32043D01*
X127843Y32837D01*
X127049Y33446D01*
X126125Y33829D01*
X125133Y33960D01*
X124141Y33829D01*
X123216Y33446D01*
X122423Y32837D01*
X121813Y32043D01*
X121431Y31119D01*
X121300Y30127D01*
X121419Y29225D01*
X121097Y28903D01*
X120666Y28258D01*
X120515Y27497D01*
Y17321D01*
X118896Y15702D01*
X115540D01*
X115222Y16088D01*
X115259Y16273D01*
X115112Y17010D01*
X114750Y17552D01*
X115112Y18094D01*
X115259Y18832D01*
X115112Y19570D01*
X114750Y20111D01*
X115112Y20653D01*
X115259Y21391D01*
X115112Y22129D01*
X114694Y22754D01*
X114069Y23172D01*
X113942Y23197D01*
Y26306D01*
X113790Y27067D01*
X113359Y27712D01*
X111101Y29970D01*
X110457Y30401D01*
X109696Y30552D01*
X107885D01*
Y32620D01*
X99380D01*
Y24508D01*
Y16634D01*
X107885D01*
Y16634D01*
X108092Y16833D01*
X108373Y16822D01*
X108681Y16438D01*
X108648Y16273D01*
X108685Y16088D01*
X108367Y15702D01*
X96739D01*
X96385Y16056D01*
Y17433D01*
X96385Y17553D01*
Y17746D01*
Y17746D01*
X96085Y18122D01*
Y18246D01*
Y21064D01*
X88180D01*
Y18246D01*
Y18122D01*
X87880Y17746D01*
Y17746D01*
Y17553D01*
X87880Y17433D01*
Y15678D01*
X82362D01*
X77725Y20315D01*
X77917Y20777D01*
X78070D01*
Y23639D01*
X76074D01*
Y22620D01*
X75612Y22428D01*
X73885Y24155D01*
Y27801D01*
X68293D01*
Y20477D01*
X71940D01*
X74390Y18027D01*
X74198Y17565D01*
X71837D01*
Y15891D01*
X69519D01*
X61403Y24007D01*
X61427Y24064D01*
X61566Y25123D01*
X61427Y26182D01*
X61018Y27169D01*
X60368Y28016D01*
X59521Y28666D01*
X58534Y29075D01*
X57475Y29214D01*
X56416Y29075D01*
X55430Y28666D01*
X54583Y28016D01*
X53932Y27169D01*
X53524Y26182D01*
X53384Y25123D01*
X53524Y24064D01*
X53932Y23078D01*
X54583Y22230D01*
X55430Y21580D01*
X56416Y21172D01*
X57475Y21032D01*
X58534Y21172D01*
X58591Y21195D01*
X67290Y12497D01*
X67935Y12066D01*
X68696Y11914D01*
X71837D01*
Y10240D01*
X77429D01*
Y14334D01*
X77891Y14526D01*
X80132Y12284D01*
X80777Y11853D01*
X81538Y11702D01*
X87880D01*
Y9634D01*
X96385D01*
Y11726D01*
X119719D01*
X120480Y11877D01*
X121125Y12308D01*
X123909Y15091D01*
X125811Y16993D01*
X126726D01*
X127043Y16607D01*
X127006Y16422D01*
X127153Y15685D01*
X127343Y15400D01*
Y14363D01*
X133280D01*
Y14434D01*
X144640D01*
Y11874D01*
X152438D01*
X152558Y11874D01*
X152752D01*
X152752D01*
X153127Y12174D01*
X153252D01*
X156070D01*
Y16127D01*
Y20080D01*
X153252D01*
X153127D01*
X152752Y20380D01*
X152752D01*
X152558D01*
X152438Y20380D01*
X150684D01*
Y21867D01*
X157006Y28188D01*
X162012Y23182D01*
Y12764D01*
X161290Y12210D01*
X160681Y11416D01*
X160298Y10492D01*
X160167Y9500D01*
X160298Y8508D01*
X160681Y7584D01*
X161290Y6790D01*
X162084Y6181D01*
X163008Y5798D01*
X164000Y5667D01*
X164992Y5798D01*
X165916Y6181D01*
X166710Y6790D01*
X167319Y7584D01*
X167702Y8508D01*
X167833Y9500D01*
X167702Y10492D01*
X167319Y11416D01*
X166710Y12210D01*
X165988Y12764D01*
Y24005D01*
X165837Y24766D01*
X165406Y25411D01*
X159817Y31000D01*
X172406Y43589D01*
X172837Y44234D01*
X172988Y44995D01*
Y69236D01*
X173710Y69790D01*
X174319Y70584D01*
X174702Y71508D01*
X174833Y72500D01*
X174702Y73492D01*
X174319Y74416D01*
X173710Y75210D01*
X172916Y75819D01*
X171992Y76202D01*
X171000Y76333D01*
D02*
G37*
G36*
X68999Y43989D02*
X66137D01*
Y41127D01*
X68999D01*
Y43989D01*
D02*
G37*
G36*
X29361D02*
X26499D01*
Y41127D01*
X29361D01*
Y43989D01*
D02*
G37*
G36*
Y40127D02*
X26499D01*
Y37265D01*
X29361D01*
Y40127D01*
D02*
G37*
G36*
X25499D02*
X22637D01*
Y37265D01*
X25499D01*
Y40127D01*
D02*
G37*
G36*
X72861D02*
X69999D01*
Y37265D01*
X72861D01*
Y40127D01*
D02*
G37*
G36*
X68999D02*
X66137D01*
Y37265D01*
X68999D01*
Y40127D01*
D02*
G37*
G36*
X153133Y10592D02*
Y7627D01*
X156097D01*
X156043Y8041D01*
X155690Y8892D01*
X155129Y9623D01*
X154398Y10184D01*
X153546Y10537D01*
X153133Y10592D01*
D02*
G37*
G36*
X37790Y16222D02*
X36731Y16083D01*
X35745Y15674D01*
X34897Y15024D01*
X34247Y14177D01*
X33838Y13190D01*
X33699Y12131D01*
X33838Y11072D01*
X34247Y10086D01*
X34897Y9238D01*
X35745Y8588D01*
X36731Y8180D01*
X37790Y8040D01*
X38849Y8180D01*
X39836Y8588D01*
X40683Y9238D01*
X41333Y10086D01*
X41742Y11072D01*
X41881Y12131D01*
X41742Y13190D01*
X41333Y14177D01*
X40683Y15024D01*
X39836Y15674D01*
X38849Y16083D01*
X37790Y16222D01*
D02*
G37*
G36*
X47633D02*
X46574Y16083D01*
X45587Y15674D01*
X44740Y15024D01*
X44090Y14177D01*
X43681Y13190D01*
X43542Y12131D01*
X43681Y11072D01*
X44090Y10086D01*
X44740Y9238D01*
X45587Y8588D01*
X46574Y8180D01*
X47633Y8040D01*
X48691Y8180D01*
X49678Y8588D01*
X50525Y9238D01*
X51175Y10086D01*
X51584Y11072D01*
X51724Y12131D01*
X51584Y13190D01*
X51175Y14177D01*
X50525Y15024D01*
X49678Y15674D01*
X48691Y16083D01*
X47633Y16222D01*
D02*
G37*
G36*
X152133Y10592D02*
X151719Y10537D01*
X150868Y10184D01*
X150136Y9623D01*
X149575Y8892D01*
X149223Y8041D01*
X149168Y7627D01*
X152133D01*
Y10592D01*
D02*
G37*
G36*
Y6627D02*
X149168D01*
X149223Y6213D01*
X149575Y5362D01*
X150136Y4631D01*
X150868Y4070D01*
X151719Y3717D01*
X152133Y3663D01*
Y6627D01*
D02*
G37*
G36*
X156097D02*
X153133D01*
Y3663D01*
X153546Y3717D01*
X154398Y4070D01*
X155129Y4631D01*
X155690Y5362D01*
X156043Y6213D01*
X156097Y6627D01*
D02*
G37*
G36*
X13000Y20240D02*
X11587Y20101D01*
X10229Y19689D01*
X8978Y19020D01*
X7880Y18120D01*
X6980Y17022D01*
X6311Y15771D01*
X5899Y14412D01*
X5760Y13000D01*
X5899Y11587D01*
X6311Y10229D01*
X6980Y8978D01*
X7880Y7880D01*
X8978Y6980D01*
X10229Y6311D01*
X11587Y5899D01*
X13000Y5760D01*
X14412Y5899D01*
X15771Y6311D01*
X17022Y6980D01*
X18120Y7880D01*
X19020Y8978D01*
X19689Y10229D01*
X20101Y11587D01*
X20240Y13000D01*
X20101Y14412D01*
X19689Y15771D01*
X19020Y17022D01*
X18120Y18120D01*
X17022Y19020D01*
X15771Y19689D01*
X14412Y20101D01*
X13000Y20240D01*
D02*
G37*
G36*
X57475Y16222D02*
X56416Y16083D01*
X55430Y15674D01*
X54583Y15024D01*
X53932Y14177D01*
X53524Y13190D01*
X53384Y12131D01*
X53524Y11072D01*
X53932Y10086D01*
X54583Y9238D01*
X55430Y8588D01*
X56416Y8180D01*
X57475Y8040D01*
X58534Y8180D01*
X59521Y8588D01*
X60368Y9238D01*
X61018Y10086D01*
X61427Y11072D01*
X61566Y12131D01*
X61427Y13190D01*
X61018Y14177D01*
X60368Y15024D01*
X59521Y15674D01*
X58534Y16083D01*
X57475Y16222D01*
D02*
G37*
G36*
X81066Y23639D02*
X79070D01*
Y20777D01*
X81066D01*
Y23639D01*
D02*
G37*
G36*
X21854Y73789D02*
X9411D01*
Y66718D01*
X4777Y62083D01*
X4346Y61438D01*
X4194Y60677D01*
Y38577D01*
X4346Y37816D01*
X4777Y37171D01*
X13227Y28721D01*
X13872Y28290D01*
X14633Y28139D01*
X33734D01*
Y21067D01*
X41846D01*
Y27445D01*
X42308Y27636D01*
X43705Y26239D01*
X43681Y26182D01*
X43542Y25123D01*
X43681Y24064D01*
X44090Y23078D01*
X44740Y22230D01*
X45587Y21580D01*
X46574Y21172D01*
X47633Y21032D01*
X48691Y21172D01*
X49678Y21580D01*
X50525Y22230D01*
X51175Y23078D01*
X51584Y24064D01*
X51724Y25123D01*
X51584Y26182D01*
X51175Y27169D01*
X50525Y28016D01*
X49678Y28666D01*
X48691Y29075D01*
X47633Y29214D01*
X46574Y29075D01*
X46517Y29051D01*
X44034Y31533D01*
X43389Y31964D01*
X42629Y32115D01*
X15456D01*
X8171Y39401D01*
Y53627D01*
X10133D01*
Y57127D01*
Y60627D01*
X9598D01*
X9406Y61089D01*
X14782Y66465D01*
X21854D01*
Y73789D01*
D02*
G37*
G36*
X129812Y23162D02*
X128934D01*
X128313Y23039D01*
X127787Y22687D01*
X127436Y22161D01*
X127412Y22040D01*
X129812D01*
Y23162D01*
D02*
G37*
G36*
X157070Y20080D02*
Y16627D01*
X160326D01*
Y20080D01*
X157070D01*
D02*
G37*
G36*
X160326Y15627D02*
X157070D01*
Y12174D01*
X160326D01*
Y15627D01*
D02*
G37*
G36*
X129812Y13363D02*
X127343D01*
Y12273D01*
X129812D01*
Y13363D01*
D02*
G37*
G36*
X133280D02*
X130812D01*
Y12273D01*
X133280D01*
Y13363D01*
D02*
G37*
G36*
X72861Y43989D02*
X69999D01*
Y41127D01*
X72861D01*
Y43989D01*
D02*
G37*
G36*
X93873Y73518D02*
X91814D01*
X90936Y73403D01*
X90118Y73064D01*
X89416Y72525D01*
X88877Y71823D01*
X88538Y71005D01*
X88488Y70627D01*
X93873D01*
Y73518D01*
D02*
G37*
G36*
X96932D02*
X94873D01*
Y70627D01*
X100257D01*
X100208Y71005D01*
X99869Y71823D01*
X99330Y72525D01*
X98628Y73064D01*
X97810Y73403D01*
X96932Y73518D01*
D02*
G37*
G36*
X156133Y98417D02*
X155023Y98270D01*
X153988Y97842D01*
X153100Y97160D01*
X152418Y96272D01*
X151989Y95237D01*
X151843Y94127D01*
X151989Y93017D01*
X152418Y91982D01*
X153100Y91094D01*
X153988Y90412D01*
X155023Y89984D01*
X156133Y89838D01*
X157243Y89984D01*
X158277Y90412D01*
X159166Y91094D01*
X159847Y91982D01*
X160276Y93017D01*
X160422Y94127D01*
X160276Y95237D01*
X159847Y96272D01*
X159166Y97160D01*
X158277Y97842D01*
X157243Y98270D01*
X156133Y98417D01*
D02*
G37*
G36*
X100257Y69627D02*
X94873D01*
Y66736D01*
X96932D01*
X97810Y66851D01*
X98628Y67190D01*
X99330Y67729D01*
X99869Y68432D01*
X100208Y69249D01*
X100257Y69627D01*
D02*
G37*
G36*
X14133Y56627D02*
X11133D01*
Y53627D01*
X14133D01*
Y56627D01*
D02*
G37*
G36*
Y60627D02*
X11133D01*
Y57627D01*
X14133D01*
Y60627D01*
D02*
G37*
G36*
X93873Y69627D02*
X88488D01*
X88538Y69249D01*
X88877Y68432D01*
X89416Y67729D01*
X90118Y67190D01*
X90936Y66851D01*
X91814Y66736D01*
X93873D01*
Y69627D01*
D02*
G37*
G36*
X10633Y120960D02*
X9641Y120829D01*
X8716Y120446D01*
X7923Y119837D01*
X7313Y119044D01*
X6931Y118119D01*
X6800Y117127D01*
X6931Y116135D01*
X7313Y115211D01*
X7923Y114417D01*
X8716Y113808D01*
X9641Y113425D01*
X10633Y113294D01*
X11625Y113425D01*
X12549Y113808D01*
X13343Y114417D01*
X13952Y115211D01*
X14335Y116135D01*
X14465Y117127D01*
X14335Y118119D01*
X13952Y119044D01*
X13343Y119837D01*
X12549Y120446D01*
X11625Y120829D01*
X10633Y120960D01*
D02*
G37*
G36*
X60633D02*
X59641Y120829D01*
X58716Y120446D01*
X57923Y119837D01*
X57313Y119044D01*
X56931Y118119D01*
X56800Y117127D01*
X56931Y116135D01*
X57313Y115211D01*
X57923Y114417D01*
X58716Y113808D01*
X59641Y113425D01*
X60633Y113294D01*
X61625Y113425D01*
X62549Y113808D01*
X63343Y114417D01*
X63952Y115211D01*
X64335Y116135D01*
X64465Y117127D01*
X64335Y118119D01*
X63952Y119044D01*
X63343Y119837D01*
X62549Y120446D01*
X61625Y120829D01*
X60633Y120960D01*
D02*
G37*
G36*
X70633D02*
X69641Y120829D01*
X68716Y120446D01*
X67923Y119837D01*
X67313Y119044D01*
X66931Y118119D01*
X66800Y117127D01*
X66931Y116135D01*
X67313Y115211D01*
X67923Y114417D01*
X68716Y113808D01*
X69641Y113425D01*
X70633Y113294D01*
X71625Y113425D01*
X72549Y113808D01*
X73343Y114417D01*
X73952Y115211D01*
X74335Y116135D01*
X74465Y117127D01*
X74335Y118119D01*
X73952Y119044D01*
X73343Y119837D01*
X72549Y120446D01*
X71625Y120829D01*
X70633Y120960D01*
D02*
G37*
G36*
X90633D02*
X89641Y120829D01*
X88716Y120446D01*
X87923Y119837D01*
X87313Y119044D01*
X86931Y118119D01*
X86800Y117127D01*
X86931Y116135D01*
X87313Y115211D01*
X87923Y114417D01*
X88716Y113808D01*
X89641Y113425D01*
X90633Y113294D01*
X91625Y113425D01*
X92549Y113808D01*
X93343Y114417D01*
X93952Y115211D01*
X94335Y116135D01*
X94465Y117127D01*
X94335Y118119D01*
X93952Y119044D01*
X93343Y119837D01*
X92549Y120446D01*
X91625Y120829D01*
X90633Y120960D01*
D02*
G37*
G36*
X50633D02*
X49641Y120829D01*
X48716Y120446D01*
X47923Y119837D01*
X47313Y119044D01*
X46931Y118119D01*
X46800Y117127D01*
X46931Y116135D01*
X47313Y115211D01*
X47923Y114417D01*
X48716Y113808D01*
X49641Y113425D01*
X50633Y113294D01*
X51625Y113425D01*
X52549Y113808D01*
X53343Y114417D01*
X53952Y115211D01*
X54335Y116135D01*
X54465Y117127D01*
X54335Y118119D01*
X53952Y119044D01*
X53343Y119837D01*
X52549Y120446D01*
X51625Y120829D01*
X50633Y120960D01*
D02*
G37*
G36*
X20633D02*
X19641Y120829D01*
X18716Y120446D01*
X17922Y119837D01*
X17313Y119044D01*
X16930Y118119D01*
X16800Y117127D01*
X16930Y116135D01*
X17313Y115211D01*
X17922Y114417D01*
X18716Y113808D01*
X19641Y113425D01*
X20633Y113294D01*
X21625Y113425D01*
X22549Y113808D01*
X23343Y114417D01*
X23952Y115211D01*
X24335Y116135D01*
X24465Y117127D01*
X24335Y118119D01*
X23952Y119044D01*
X23343Y119837D01*
X22549Y120446D01*
X21625Y120829D01*
X20633Y120960D01*
D02*
G37*
G36*
X30633D02*
X29641Y120829D01*
X28716Y120446D01*
X27922Y119837D01*
X27313Y119044D01*
X26930Y118119D01*
X26800Y117127D01*
X26930Y116135D01*
X27313Y115211D01*
X27922Y114417D01*
X28716Y113808D01*
X29641Y113425D01*
X30633Y113294D01*
X31625Y113425D01*
X32549Y113808D01*
X33343Y114417D01*
X33952Y115211D01*
X34335Y116135D01*
X34465Y117127D01*
X34335Y118119D01*
X33952Y119044D01*
X33343Y119837D01*
X32549Y120446D01*
X31625Y120829D01*
X30633Y120960D01*
D02*
G37*
G36*
X40633D02*
X39641Y120829D01*
X38716Y120446D01*
X37922Y119837D01*
X37313Y119044D01*
X36931Y118119D01*
X36800Y117127D01*
X36931Y116135D01*
X37313Y115211D01*
X37922Y114417D01*
X38716Y113808D01*
X39641Y113425D01*
X40633Y113294D01*
X41625Y113425D01*
X42549Y113808D01*
X43343Y114417D01*
X43952Y115211D01*
X44335Y116135D01*
X44465Y117127D01*
X44335Y118119D01*
X43952Y119044D01*
X43343Y119837D01*
X42549Y120446D01*
X41625Y120829D01*
X40633Y120960D01*
D02*
G37*
G36*
X50633Y60960D02*
X49641Y60829D01*
X48716Y60446D01*
X47923Y59837D01*
X47313Y59044D01*
X46931Y58119D01*
X46800Y57127D01*
X46931Y56135D01*
X47313Y55211D01*
X47923Y54417D01*
X48716Y53808D01*
X49641Y53425D01*
X50633Y53294D01*
X51625Y53425D01*
X52549Y53808D01*
X53343Y54417D01*
X53952Y55211D01*
X54335Y56135D01*
X54465Y57127D01*
X54335Y58119D01*
X53952Y59044D01*
X53343Y59837D01*
X52549Y60446D01*
X51625Y60829D01*
X50633Y60960D01*
D02*
G37*
G36*
X60633D02*
X59641Y60829D01*
X58716Y60446D01*
X57923Y59837D01*
X57313Y59044D01*
X56931Y58119D01*
X56800Y57127D01*
X56931Y56135D01*
X57313Y55211D01*
X57923Y54417D01*
X58716Y53808D01*
X59641Y53425D01*
X60633Y53294D01*
X61625Y53425D01*
X62549Y53808D01*
X63343Y54417D01*
X63952Y55211D01*
X64335Y56135D01*
X64465Y57127D01*
X64335Y58119D01*
X63952Y59044D01*
X63343Y59837D01*
X62549Y60446D01*
X61625Y60829D01*
X60633Y60960D01*
D02*
G37*
G36*
X70633D02*
X69641Y60829D01*
X68716Y60446D01*
X67923Y59837D01*
X67313Y59044D01*
X66931Y58119D01*
X66800Y57127D01*
X66931Y56135D01*
X67313Y55211D01*
X67923Y54417D01*
X68716Y53808D01*
X69641Y53425D01*
X70633Y53294D01*
X71625Y53425D01*
X72549Y53808D01*
X73343Y54417D01*
X73952Y55211D01*
X74335Y56135D01*
X74465Y57127D01*
X74335Y58119D01*
X73952Y59044D01*
X73343Y59837D01*
X72549Y60446D01*
X71625Y60829D01*
X70633Y60960D01*
D02*
G37*
G36*
X40633D02*
X39641Y60829D01*
X38716Y60446D01*
X37922Y59837D01*
X37313Y59044D01*
X36931Y58119D01*
X36800Y57127D01*
X36931Y56135D01*
X37313Y55211D01*
X37922Y54417D01*
X38716Y53808D01*
X39641Y53425D01*
X40633Y53294D01*
X41625Y53425D01*
X42549Y53808D01*
X43343Y54417D01*
X43952Y55211D01*
X44335Y56135D01*
X44465Y57127D01*
X44335Y58119D01*
X43952Y59044D01*
X43343Y59837D01*
X42549Y60446D01*
X41625Y60829D01*
X40633Y60960D01*
D02*
G37*
G36*
X100633D02*
X99641Y60829D01*
X98716Y60446D01*
X97922Y59837D01*
X97313Y59044D01*
X96930Y58119D01*
X96800Y57127D01*
X96930Y56135D01*
X97313Y55211D01*
X97922Y54417D01*
X98644Y53863D01*
Y46907D01*
X96420Y44683D01*
X84427D01*
Y42615D01*
X81429D01*
Y44289D01*
X74104D01*
Y36965D01*
X81429D01*
Y38639D01*
X84427D01*
Y36571D01*
X98838D01*
Y41478D01*
X102039Y44678D01*
X102470Y45323D01*
X102621Y46084D01*
Y53863D01*
X103343Y54417D01*
X103952Y55211D01*
X104335Y56135D01*
X104465Y57127D01*
X104335Y58119D01*
X103952Y59044D01*
X103343Y59837D01*
X102549Y60446D01*
X101625Y60829D01*
X100633Y60960D01*
D02*
G37*
G36*
X20633D02*
X19641Y60829D01*
X18716Y60446D01*
X17922Y59837D01*
X17313Y59044D01*
X16930Y58119D01*
X16800Y57127D01*
X16930Y56135D01*
X17313Y55211D01*
X17922Y54417D01*
X18716Y53808D01*
X19641Y53425D01*
X20633Y53294D01*
X21625Y53425D01*
X22549Y53808D01*
X23343Y54417D01*
X23952Y55211D01*
X24335Y56135D01*
X24465Y57127D01*
X24335Y58119D01*
X23952Y59044D01*
X23343Y59837D01*
X22549Y60446D01*
X21625Y60829D01*
X20633Y60960D01*
D02*
G37*
G36*
X30633D02*
X29641Y60829D01*
X28716Y60446D01*
X27922Y59837D01*
X27313Y59044D01*
X26930Y58119D01*
X26800Y57127D01*
X26930Y56135D01*
X27313Y55211D01*
X27922Y54417D01*
X28716Y53808D01*
X29641Y53425D01*
X30633Y53294D01*
X31625Y53425D01*
X32549Y53808D01*
X33343Y54417D01*
X33952Y55211D01*
X34335Y56135D01*
X34465Y57127D01*
X34335Y58119D01*
X33952Y59044D01*
X33343Y59837D01*
X32549Y60446D01*
X31625Y60829D01*
X30633Y60960D01*
D02*
G37*
G36*
X80633D02*
X79641Y60829D01*
X78716Y60446D01*
X77922Y59837D01*
X77313Y59044D01*
X76930Y58119D01*
X76800Y57127D01*
X76930Y56135D01*
X77313Y55211D01*
X77922Y54417D01*
X78716Y53808D01*
X79641Y53425D01*
X80633Y53294D01*
X81625Y53425D01*
X82549Y53808D01*
X83343Y54417D01*
X83952Y55211D01*
X84335Y56135D01*
X84465Y57127D01*
X84335Y58119D01*
X83952Y59044D01*
X83343Y59837D01*
X82549Y60446D01*
X81625Y60829D01*
X80633Y60960D01*
D02*
G37*
G36*
X140633D02*
X139641Y60829D01*
X138716Y60446D01*
X137923Y59837D01*
X137313Y59044D01*
X136931Y58119D01*
X136800Y57127D01*
X136931Y56135D01*
X137313Y55211D01*
X137923Y54417D01*
X138716Y53808D01*
X139641Y53425D01*
X140633Y53294D01*
X141625Y53425D01*
X142549Y53808D01*
X143343Y54417D01*
X143952Y55211D01*
X144335Y56135D01*
X144465Y57127D01*
X144335Y58119D01*
X143952Y59044D01*
X143343Y59837D01*
X142549Y60446D01*
X141625Y60829D01*
X140633Y60960D01*
D02*
G37*
G36*
X150633D02*
X149641Y60829D01*
X148716Y60446D01*
X147923Y59837D01*
X147313Y59044D01*
X146931Y58119D01*
X146800Y57127D01*
X146931Y56135D01*
X147313Y55211D01*
X147923Y54417D01*
X148716Y53808D01*
X149641Y53425D01*
X150633Y53294D01*
X151625Y53425D01*
X152549Y53808D01*
X153343Y54417D01*
X153952Y55211D01*
X154335Y56135D01*
X154465Y57127D01*
X154335Y58119D01*
X153952Y59044D01*
X153343Y59837D01*
X152549Y60446D01*
X151625Y60829D01*
X150633Y60960D01*
D02*
G37*
G36*
X160633D02*
X159641Y60829D01*
X158716Y60446D01*
X157922Y59837D01*
X157313Y59044D01*
X156930Y58119D01*
X156800Y57127D01*
X156930Y56135D01*
X157313Y55211D01*
X157922Y54417D01*
X158716Y53808D01*
X159641Y53425D01*
X160633Y53294D01*
X161625Y53425D01*
X162549Y53808D01*
X163343Y54417D01*
X163952Y55211D01*
X164335Y56135D01*
X164465Y57127D01*
X164335Y58119D01*
X163952Y59044D01*
X163343Y59837D01*
X162549Y60446D01*
X161625Y60829D01*
X160633Y60960D01*
D02*
G37*
G36*
X130633D02*
X129641Y60829D01*
X128716Y60446D01*
X127922Y59837D01*
X127313Y59044D01*
X126930Y58119D01*
X126800Y57127D01*
X126930Y56135D01*
X127313Y55211D01*
X127922Y54417D01*
X128716Y53808D01*
X129641Y53425D01*
X130633Y53294D01*
X131625Y53425D01*
X132549Y53808D01*
X133343Y54417D01*
X133952Y55211D01*
X134335Y56135D01*
X134465Y57127D01*
X134335Y58119D01*
X133952Y59044D01*
X133343Y59837D01*
X132549Y60446D01*
X131625Y60829D01*
X130633Y60960D01*
D02*
G37*
G36*
X90633D02*
X89641Y60829D01*
X88716Y60446D01*
X87923Y59837D01*
X87313Y59044D01*
X86931Y58119D01*
X86800Y57127D01*
X86919Y56225D01*
X80309Y49615D01*
X58176D01*
X57415Y49464D01*
X56770Y49033D01*
X52420Y44683D01*
X40427D01*
Y42615D01*
X37929D01*
Y44289D01*
X30604D01*
Y36965D01*
X37929D01*
Y38639D01*
X40427D01*
Y36571D01*
X54838D01*
Y41478D01*
X59000Y45639D01*
X81133D01*
X81893Y45790D01*
X82538Y46221D01*
X89730Y53413D01*
X90633Y53294D01*
X91625Y53425D01*
X92549Y53808D01*
X93343Y54417D01*
X93952Y55211D01*
X94335Y56135D01*
X94465Y57127D01*
X94335Y58119D01*
X93952Y59044D01*
X93343Y59837D01*
X92549Y60446D01*
X91625Y60829D01*
X90633Y60960D01*
D02*
G37*
G36*
X110633D02*
X109641Y60829D01*
X108716Y60446D01*
X107922Y59837D01*
X107313Y59044D01*
X106930Y58119D01*
X106800Y57127D01*
X106930Y56135D01*
X107313Y55211D01*
X107922Y54417D01*
X108716Y53808D01*
X109641Y53425D01*
X110633Y53294D01*
X111625Y53425D01*
X112549Y53808D01*
X113343Y54417D01*
X113952Y55211D01*
X114335Y56135D01*
X114465Y57127D01*
X114335Y58119D01*
X113952Y59044D01*
X113343Y59837D01*
X112549Y60446D01*
X111625Y60829D01*
X110633Y60960D01*
D02*
G37*
G36*
X120633D02*
X119641Y60829D01*
X118716Y60446D01*
X117922Y59837D01*
X117313Y59044D01*
X116930Y58119D01*
X116800Y57127D01*
X116930Y56135D01*
X117313Y55211D01*
X117922Y54417D01*
X118716Y53808D01*
X119641Y53425D01*
X120633Y53294D01*
X121625Y53425D01*
X122549Y53808D01*
X123343Y54417D01*
X123952Y55211D01*
X124335Y56135D01*
X124465Y57127D01*
X124335Y58119D01*
X123952Y59044D01*
X123343Y59837D01*
X122549Y60446D01*
X121625Y60829D01*
X120633Y60960D01*
D02*
G37*
%LPD*%
D10*
X51176Y40627D02*
D03*
X44089D02*
D03*
X95176D02*
D03*
X88089D02*
D03*
D11*
X34266D02*
D03*
X25999D02*
D03*
X77766D02*
D03*
X69499D02*
D03*
D12*
X111953Y13714D02*
D03*
Y16273D02*
D03*
Y18832D02*
D03*
Y21391D02*
D03*
X130312Y21541D02*
D03*
Y18981D02*
D03*
Y16422D02*
D03*
D13*
Y13863D02*
D03*
D14*
X103633Y20690D02*
D03*
Y28564D02*
D03*
X92133Y13690D02*
D03*
Y21564D02*
D03*
D15*
X78570Y24139D02*
D03*
X71089D02*
D03*
X74633Y13903D02*
D03*
D16*
X148696Y16127D02*
D03*
X156570D02*
D03*
D17*
X130006Y81000D02*
X136133Y87127D01*
X86760Y81000D02*
X130006D01*
X171000Y44995D02*
Y72500D01*
X157006Y31000D02*
X171000Y44995D01*
X80633Y87127D02*
X86760Y81000D01*
X164000Y9500D02*
Y24005D01*
X148696Y22690D02*
X157006Y31000D01*
X164000Y24005D01*
X152633Y7127D02*
X156570Y11064D01*
X118733Y109527D02*
X129739D01*
X115633Y112627D02*
X118733Y109527D01*
X115633Y112627D02*
Y119127D01*
X129739Y109527D02*
X135139Y104127D01*
X136133D01*
X120633Y117127D02*
X125633Y112127D01*
X138133D01*
X146133Y104127D01*
X100633Y117127D02*
Y120627D01*
X156133Y104127D02*
Y120127D01*
X141230Y99030D02*
X146133Y94127D01*
X120230Y99030D02*
X141230D01*
X146133Y94127D02*
Y94129D01*
X116133Y99127D02*
X121035D01*
X110633Y104627D02*
X116133Y99127D01*
X110633Y104627D02*
Y117127D01*
X80633Y87127D02*
Y117127D01*
X136133Y87127D02*
Y94127D01*
X6183Y60677D02*
X15633Y70127D01*
X6183Y38577D02*
X14633Y30127D01*
X6183Y38577D02*
Y60677D01*
X134897Y13863D02*
X141335Y7425D01*
X152335D01*
X55526D02*
X141335D01*
X48633Y33210D02*
X69499D01*
X29550D02*
X48633D01*
X52769Y29073D01*
Y10182D02*
Y29073D01*
Y10182D02*
X55526Y7425D01*
X130312Y13863D02*
X134897D01*
X130312Y21541D02*
X142046D01*
X156570Y11064D02*
Y16127D01*
X142046Y21541D02*
X142133Y21627D01*
X130312Y16422D02*
X148400D01*
X25999Y36761D02*
Y40627D01*
Y36761D02*
X29550Y33210D01*
X42629Y30127D02*
X47633Y25123D01*
X14633Y30127D02*
X42629D01*
X25999Y40627D02*
Y42627D01*
X34266Y40627D02*
X44089D01*
X25999Y42627D02*
X26183Y42443D01*
Y58970D01*
X37339Y70127D01*
X94373D01*
X111953Y13714D02*
X119719D01*
X111953D02*
Y16273D01*
X103633Y28564D02*
X109696D01*
X111953Y26306D01*
Y21391D02*
Y26306D01*
X103633Y20690D02*
X105491Y18832D01*
X111953D01*
X92156Y13714D02*
X111953D01*
X89558Y24139D02*
X92133Y21564D01*
X78570Y24139D02*
X89558D01*
X69499Y33210D02*
X78570Y24139D01*
X69499Y33210D02*
Y40627D01*
X57475Y25123D02*
X68696Y13903D01*
X74633D01*
X71089Y24139D02*
X81538Y13690D01*
X92133D01*
X51176Y40627D02*
X58176Y47627D01*
X81133D01*
X90633Y57127D01*
X95176Y40627D02*
X100633Y46084D01*
Y57127D01*
X77766Y40627D02*
X88089D01*
X148696Y16127D02*
Y22690D01*
X100633Y120627D02*
X106006Y126000D01*
X150260D01*
X156133Y120127D01*
X115633Y119127D02*
X119506Y123000D01*
X144760D01*
X150633Y117127D01*
X122503Y27497D02*
X125133Y30127D01*
X124987Y18981D02*
X130312D01*
X122503Y16497D02*
Y27497D01*
X119719Y13714D02*
X122503Y16497D01*
X124987Y18981D01*
D18*
X106500Y47498D02*
Y42500D01*
Y44166D01*
X109832Y47498D01*
X107333Y44999D01*
X109832Y42500D01*
X113998D02*
X112331D01*
X111498Y43333D01*
Y44999D01*
X112331Y45832D01*
X113998D01*
X114831Y44999D01*
Y44166D01*
X111498D01*
X116497Y45832D02*
Y43333D01*
X117330Y42500D01*
X119829D01*
Y41667D01*
X118996Y40834D01*
X118163D01*
X119829Y42500D02*
Y45832D01*
X122328Y42500D02*
Y46665D01*
Y44999D01*
X121495D01*
X123161D01*
X122328D01*
Y46665D01*
X123161Y47498D01*
X125661Y42500D02*
X127327D01*
X126494D01*
Y45832D01*
X125661D01*
X129826Y42500D02*
Y45832D01*
X132325D01*
X133158Y44999D01*
Y42500D01*
X138156Y47498D02*
Y42500D01*
X135657D01*
X134824Y43333D01*
Y44999D01*
X135657Y45832D01*
X138156D01*
X142322Y42500D02*
X140656D01*
X139822Y43333D01*
Y44999D01*
X140656Y45832D01*
X142322D01*
X143155Y44999D01*
Y44166D01*
X139822D01*
X144821Y45832D02*
Y42500D01*
Y44166D01*
X145654Y44999D01*
X146487Y45832D01*
X147320D01*
X154818D02*
X156484Y42500D01*
X158150Y45832D01*
X159816Y42500D02*
X161482D01*
X160649D01*
Y47498D01*
X159816Y46665D01*
D19*
X13000Y13000D02*
D03*
D20*
X126133Y104127D02*
D03*
D21*
X136133D02*
D03*
X156133D02*
D03*
X146133Y94127D02*
D03*
Y104127D02*
D03*
X156133Y94127D02*
D03*
X136133D02*
D03*
X126133D02*
D03*
D22*
X15633Y70127D02*
D03*
D23*
X94373D02*
D03*
D24*
X10633Y57127D02*
D03*
D25*
X20633D02*
D03*
X30633D02*
D03*
X40633D02*
D03*
X50633D02*
D03*
X60633D02*
D03*
X70633D02*
D03*
X80633D02*
D03*
X90633D02*
D03*
X100633D02*
D03*
X110633D02*
D03*
X120633D02*
D03*
X130633D02*
D03*
X140633D02*
D03*
X150633D02*
D03*
X160633D02*
D03*
Y117127D02*
D03*
X150633D02*
D03*
X140633D02*
D03*
X130633D02*
D03*
X120633D02*
D03*
X110633D02*
D03*
X100633D02*
D03*
X90633D02*
D03*
X80633D02*
D03*
X70633D02*
D03*
X60633D02*
D03*
X50633D02*
D03*
X40633D02*
D03*
X30633D02*
D03*
X20633D02*
D03*
X10633D02*
D03*
X171000Y72500D02*
D03*
X164000Y9500D02*
D03*
X141633Y21627D02*
D03*
X152633Y7127D02*
D03*
X125133Y30127D02*
D03*
D26*
X57475Y12131D02*
D03*
X47633D02*
D03*
X37790D02*
D03*
X47633Y25123D02*
D03*
X57475D02*
D03*
D27*
X37790D02*
D03*
M02*
