%FSLAX25Y25*%
%MOIN*%
G70*
G01*
G75*
G04 Layer_Physical_Order=2*
G04 Layer_Color=16711680*
%ADD10R,0.04724X0.05512*%
%ADD11R,0.04724X0.04724*%
%ADD12O,0.03937X0.01181*%
%ADD13R,0.03937X0.01181*%
%ADD14R,0.05906X0.05512*%
%ADD15R,0.02992X0.04724*%
%ADD16R,0.05512X0.05906*%
%ADD17C,0.01300*%
%ADD18C,0.01000*%
%ADD19C,0.11811*%
%ADD20R,0.05906X0.05906*%
%ADD21C,0.05906*%
%ADD22R,0.09843X0.04724*%
%ADD23O,0.09843X0.04724*%
%ADD24R,0.05000X0.05000*%
%ADD25C,0.05000*%
%ADD26C,0.05512*%
%ADD27R,0.05512X0.05512*%
%ADD28R,0.05512X0.04724*%
%ADD29R,0.05906X0.15748*%
%ADD30R,0.04724X0.02992*%
%ADD31O,0.04331X0.02559*%
%ADD32R,0.04331X0.02559*%
G36*
X177500Y2500D02*
X172519D01*
X172312Y3000D01*
X173843Y4531D01*
X174274Y5176D01*
X174425Y5937D01*
Y14247D01*
X176493D01*
Y22753D01*
X173488D01*
Y26294D01*
X173556D01*
Y33381D01*
Y40706D01*
X171488D01*
Y41295D01*
X173556D01*
Y48305D01*
X173556Y48426D01*
Y48619D01*
Y48619D01*
X173256Y48995D01*
Y49119D01*
Y51543D01*
X165744D01*
Y49119D01*
Y48995D01*
X165444Y48619D01*
Y48619D01*
Y48426D01*
X165444Y48305D01*
Y41295D01*
X167512D01*
Y40706D01*
X165444D01*
Y39856D01*
X160389D01*
X160044Y40121D01*
X159416Y40380D01*
X158743Y40469D01*
X156971D01*
X156298Y40380D01*
X155670Y40121D01*
X155131Y39707D01*
X154718Y39168D01*
X154458Y38541D01*
X154369Y37867D01*
X154458Y37194D01*
X154718Y36566D01*
X155131Y36028D01*
X155670Y35614D01*
X156298Y35354D01*
X156971Y35265D01*
X158743D01*
X159416Y35354D01*
X160044Y35614D01*
X160389Y35879D01*
X165444D01*
Y33381D01*
Y32375D01*
X160389D01*
X160044Y32640D01*
X159416Y32900D01*
X158743Y32989D01*
X156971D01*
X156298Y32900D01*
X155670Y32640D01*
X155131Y32227D01*
X154718Y31688D01*
X154458Y31060D01*
X154369Y30387D01*
X154458Y29713D01*
X154718Y29086D01*
X155131Y28547D01*
X155670Y28134D01*
X156298Y27874D01*
X156971Y27785D01*
X158743D01*
X159416Y27874D01*
X160044Y28134D01*
X160389Y28399D01*
X165444D01*
Y26294D01*
X169512D01*
Y23106D01*
X169158Y22753D01*
X168695D01*
X168574Y22753D01*
X168381D01*
X168381D01*
X168005Y22453D01*
X167881D01*
X165063D01*
Y18500D01*
Y14547D01*
X167881D01*
X168005D01*
X168381Y14247D01*
X168381D01*
X168574D01*
X168695Y14247D01*
X170449D01*
Y6761D01*
X169676Y5988D01*
X165964D01*
X165837Y6279D01*
X165824Y6488D01*
X166496Y7004D01*
X167057Y7735D01*
X167410Y8586D01*
X167464Y9000D01*
X160536D01*
X160590Y8586D01*
X160943Y7735D01*
X161504Y7004D01*
X162176Y6488D01*
X162163Y6279D01*
X162036Y5988D01*
X156783D01*
X156381Y6488D01*
X156465Y7127D01*
X156335Y8119D01*
X155952Y9043D01*
X155343Y9837D01*
X154621Y10391D01*
Y16127D01*
X154470Y16888D01*
X154039Y17533D01*
X148538Y23033D01*
X147894Y23464D01*
X147133Y23615D01*
X144897D01*
X144343Y24337D01*
X143549Y24946D01*
X142625Y25329D01*
X141692Y25452D01*
X141555Y25627D01*
X141412Y25935D01*
X141501Y26071D01*
X145338D01*
Y27807D01*
X151874D01*
Y32966D01*
X151816D01*
X151487Y33466D01*
X151519Y33627D01*
X148408D01*
Y34627D01*
X151519D01*
X151441Y35017D01*
X150937Y35770D01*
X151234Y36158D01*
X151547Y36566D01*
X151807Y37194D01*
X151896Y37867D01*
X151807Y38541D01*
X151547Y39168D01*
X151134Y39707D01*
X150595Y40121D01*
X149968Y40380D01*
X149294Y40469D01*
X147522D01*
X146849Y40380D01*
X146221Y40121D01*
X145876Y39856D01*
X137838D01*
Y41683D01*
X125654D01*
X125462Y42145D01*
X127956Y44639D01*
X145633D01*
X146394Y44790D01*
X147038Y45221D01*
X152039Y50221D01*
X152470Y50866D01*
X152621Y51627D01*
Y53863D01*
X153343Y54417D01*
X153952Y55211D01*
X154335Y56135D01*
X154465Y57127D01*
X154335Y58119D01*
X153952Y59044D01*
X153343Y59837D01*
X152549Y60446D01*
X151625Y60829D01*
X150633Y60960D01*
X149641Y60829D01*
X148716Y60446D01*
X147923Y59837D01*
X147313Y59044D01*
X146931Y58119D01*
X146800Y57127D01*
X146931Y56135D01*
X147313Y55211D01*
X147923Y54417D01*
X148644Y53863D01*
Y52451D01*
X144809Y48615D01*
X127133D01*
X126372Y48464D01*
X125727Y48033D01*
X119227Y41533D01*
X118796Y40888D01*
X118644Y40127D01*
Y27627D01*
X118796Y26866D01*
X119227Y26221D01*
X122227Y23221D01*
X122872Y22790D01*
X123633Y22639D01*
X136965D01*
X137466Y22739D01*
X137895Y22347D01*
X137800Y21627D01*
X137931Y20635D01*
X138313Y19711D01*
X138923Y18917D01*
X139716Y18308D01*
X140641Y17925D01*
X141633Y17794D01*
X142625Y17925D01*
X143549Y18308D01*
X144343Y18917D01*
X144897Y19639D01*
X146309D01*
X150645Y15304D01*
Y10391D01*
X149923Y9837D01*
X149369Y9115D01*
X118696D01*
X115764Y12048D01*
Y19826D01*
X118028D01*
Y38174D01*
X109523D01*
Y19826D01*
X111787D01*
Y11224D01*
X111939Y10464D01*
X112370Y9819D01*
X116467Y5721D01*
X117112Y5290D01*
X117873Y5139D01*
X149369D01*
X149923Y4417D01*
X150716Y3808D01*
X151641Y3425D01*
X152633Y3294D01*
X152859Y3324D01*
X153177Y2972D01*
X152981Y2500D01*
X2500D01*
Y127500D01*
X177500D01*
Y2500D01*
D02*
G37*
%LPC*%
G36*
X50633Y60960D02*
X49641Y60829D01*
X48716Y60446D01*
X47923Y59837D01*
X47313Y59044D01*
X46931Y58119D01*
X46800Y57127D01*
X46931Y56135D01*
X47313Y55211D01*
X47923Y54417D01*
X48716Y53808D01*
X49641Y53425D01*
X50633Y53294D01*
X51625Y53425D01*
X52549Y53808D01*
X53343Y54417D01*
X53952Y55211D01*
X54335Y56135D01*
X54465Y57127D01*
X54335Y58119D01*
X53952Y59044D01*
X53343Y59837D01*
X52549Y60446D01*
X51625Y60829D01*
X50633Y60960D01*
D02*
G37*
G36*
X60633D02*
X59641Y60829D01*
X58716Y60446D01*
X57923Y59837D01*
X57313Y59044D01*
X56931Y58119D01*
X56800Y57127D01*
X56931Y56135D01*
X57313Y55211D01*
X57923Y54417D01*
X58716Y53808D01*
X59641Y53425D01*
X60633Y53294D01*
X61625Y53425D01*
X62549Y53808D01*
X63343Y54417D01*
X63952Y55211D01*
X64335Y56135D01*
X64465Y57127D01*
X64335Y58119D01*
X63952Y59044D01*
X63343Y59837D01*
X62549Y60446D01*
X61625Y60829D01*
X60633Y60960D01*
D02*
G37*
G36*
X70633D02*
X69641Y60829D01*
X68716Y60446D01*
X67923Y59837D01*
X67313Y59044D01*
X66931Y58119D01*
X66800Y57127D01*
X66931Y56135D01*
X67313Y55211D01*
X67923Y54417D01*
X68716Y53808D01*
X69641Y53425D01*
X70633Y53294D01*
X71625Y53425D01*
X72549Y53808D01*
X73343Y54417D01*
X73952Y55211D01*
X74335Y56135D01*
X74465Y57127D01*
X74335Y58119D01*
X73952Y59044D01*
X73343Y59837D01*
X72549Y60446D01*
X71625Y60829D01*
X70633Y60960D01*
D02*
G37*
G36*
X40633D02*
X39641Y60829D01*
X38716Y60446D01*
X37922Y59837D01*
X37313Y59044D01*
X36931Y58119D01*
X36800Y57127D01*
X36931Y56135D01*
X37313Y55211D01*
X37922Y54417D01*
X38716Y53808D01*
X39641Y53425D01*
X40633Y53294D01*
X41625Y53425D01*
X42549Y53808D01*
X43343Y54417D01*
X43952Y55211D01*
X44335Y56135D01*
X44465Y57127D01*
X44335Y58119D01*
X43952Y59044D01*
X43343Y59837D01*
X42549Y60446D01*
X41625Y60829D01*
X40633Y60960D01*
D02*
G37*
G36*
X140633D02*
X139641Y60829D01*
X138716Y60446D01*
X137923Y59837D01*
X137313Y59044D01*
X136931Y58119D01*
X136800Y57127D01*
X136919Y56225D01*
X133809Y53115D01*
X132184D01*
X132084Y53615D01*
X132549Y53808D01*
X133343Y54417D01*
X133952Y55211D01*
X134335Y56135D01*
X134465Y57127D01*
X134335Y58119D01*
X133952Y59044D01*
X133343Y59837D01*
X132549Y60446D01*
X131625Y60829D01*
X130633Y60960D01*
X129641Y60829D01*
X128716Y60446D01*
X127922Y59837D01*
X127313Y59044D01*
X126930Y58119D01*
X126800Y57127D01*
X126930Y56135D01*
X127313Y55211D01*
X127922Y54417D01*
X128716Y53808D01*
X129181Y53615D01*
X129081Y53115D01*
X122184D01*
X122084Y53615D01*
X122549Y53808D01*
X123343Y54417D01*
X123952Y55211D01*
X124335Y56135D01*
X124465Y57127D01*
X124335Y58119D01*
X123952Y59044D01*
X123343Y59837D01*
X122549Y60446D01*
X121625Y60829D01*
X120633Y60960D01*
X119641Y60829D01*
X118716Y60446D01*
X117922Y59837D01*
X117313Y59044D01*
X116930Y58119D01*
X116800Y57127D01*
X116930Y56135D01*
X117313Y55211D01*
X117922Y54417D01*
X118716Y53808D01*
X119641Y53425D01*
X120071Y53368D01*
X120193Y52848D01*
X119721Y52533D01*
X117113Y49925D01*
X61674D01*
Y50733D01*
X54350D01*
Y45141D01*
X61674D01*
Y45949D01*
X117937D01*
X118698Y46100D01*
X119343Y46531D01*
X121951Y49139D01*
X134633D01*
X135394Y49290D01*
X136038Y49721D01*
X139730Y53413D01*
X140633Y53294D01*
X141625Y53425D01*
X142549Y53808D01*
X143343Y54417D01*
X143952Y55211D01*
X144335Y56135D01*
X144465Y57127D01*
X144335Y58119D01*
X143952Y59044D01*
X143343Y59837D01*
X142549Y60446D01*
X141625Y60829D01*
X140633Y60960D01*
D02*
G37*
G36*
X20633D02*
X19641Y60829D01*
X18716Y60446D01*
X17922Y59837D01*
X17313Y59044D01*
X16930Y58119D01*
X16800Y57127D01*
X16930Y56135D01*
X17313Y55211D01*
X17922Y54417D01*
X18716Y53808D01*
X19641Y53425D01*
X20633Y53294D01*
X21625Y53425D01*
X22549Y53808D01*
X23343Y54417D01*
X23952Y55211D01*
X24335Y56135D01*
X24465Y57127D01*
X24335Y58119D01*
X23952Y59044D01*
X23343Y59837D01*
X22549Y60446D01*
X21625Y60829D01*
X20633Y60960D01*
D02*
G37*
G36*
X30633D02*
X29641Y60829D01*
X28716Y60446D01*
X27922Y59837D01*
X27313Y59044D01*
X26930Y58119D01*
X26800Y57127D01*
X26930Y56135D01*
X27313Y55211D01*
X27922Y54417D01*
X28716Y53808D01*
X29641Y53425D01*
X30633Y53294D01*
X31625Y53425D01*
X32549Y53808D01*
X33343Y54417D01*
X33952Y55211D01*
X34335Y56135D01*
X34465Y57127D01*
X34335Y58119D01*
X33952Y59044D01*
X33343Y59837D01*
X32549Y60446D01*
X31625Y60829D01*
X30633Y60960D01*
D02*
G37*
G36*
X80633D02*
X79641Y60829D01*
X78716Y60446D01*
X77922Y59837D01*
X77313Y59044D01*
X76930Y58119D01*
X76800Y57127D01*
X76930Y56135D01*
X77313Y55211D01*
X77922Y54417D01*
X78716Y53808D01*
X79641Y53425D01*
X80633Y53294D01*
X81625Y53425D01*
X82549Y53808D01*
X83343Y54417D01*
X83952Y55211D01*
X84335Y56135D01*
X84465Y57127D01*
X84335Y58119D01*
X83952Y59044D01*
X83343Y59837D01*
X82549Y60446D01*
X81625Y60829D01*
X80633Y60960D01*
D02*
G37*
G36*
X170500Y72000D02*
X167536D01*
X167590Y71586D01*
X167943Y70735D01*
X168504Y70004D01*
X169235Y69443D01*
X170086Y69090D01*
X170500Y69036D01*
Y72000D01*
D02*
G37*
G36*
X174464D02*
X171500D01*
Y69036D01*
X171914Y69090D01*
X172765Y69443D01*
X173496Y70004D01*
X174057Y70735D01*
X174410Y71586D01*
X174464Y72000D01*
D02*
G37*
G36*
X170500Y75964D02*
X170086Y75910D01*
X169235Y75557D01*
X168504Y74996D01*
X167943Y74265D01*
X167590Y73414D01*
X167536Y73000D01*
X170500D01*
Y75964D01*
D02*
G37*
G36*
X160633Y60960D02*
X159641Y60829D01*
X158716Y60446D01*
X157922Y59837D01*
X157313Y59044D01*
X156930Y58119D01*
X156800Y57127D01*
X156930Y56135D01*
X157313Y55211D01*
X157922Y54417D01*
X158716Y53808D01*
X159641Y53425D01*
X160633Y53294D01*
X161625Y53425D01*
X162549Y53808D01*
X163343Y54417D01*
X163952Y55211D01*
X164335Y56135D01*
X164465Y57127D01*
X164335Y58119D01*
X163952Y59044D01*
X163343Y59837D01*
X162549Y60446D01*
X161625Y60829D01*
X160633Y60960D01*
D02*
G37*
G36*
X90633D02*
X89641Y60829D01*
X88716Y60446D01*
X87923Y59837D01*
X87313Y59044D01*
X86931Y58119D01*
X86800Y57127D01*
X86931Y56135D01*
X87313Y55211D01*
X87923Y54417D01*
X88716Y53808D01*
X89641Y53425D01*
X90633Y53294D01*
X91625Y53425D01*
X92549Y53808D01*
X93343Y54417D01*
X93952Y55211D01*
X94335Y56135D01*
X94465Y57127D01*
X94335Y58119D01*
X93952Y59044D01*
X93343Y59837D01*
X92549Y60446D01*
X91625Y60829D01*
X90633Y60960D01*
D02*
G37*
G36*
X100633D02*
X99641Y60829D01*
X98716Y60446D01*
X97922Y59837D01*
X97313Y59044D01*
X96930Y58119D01*
X96800Y57127D01*
X96930Y56135D01*
X97313Y55211D01*
X97922Y54417D01*
X98716Y53808D01*
X99641Y53425D01*
X100633Y53294D01*
X101625Y53425D01*
X102549Y53808D01*
X103343Y54417D01*
X103952Y55211D01*
X104335Y56135D01*
X104465Y57127D01*
X104335Y58119D01*
X103952Y59044D01*
X103343Y59837D01*
X102549Y60446D01*
X101625Y60829D01*
X100633Y60960D01*
D02*
G37*
G36*
X110633D02*
X109641Y60829D01*
X108716Y60446D01*
X107922Y59837D01*
X107313Y59044D01*
X106930Y58119D01*
X106800Y57127D01*
X106930Y56135D01*
X107313Y55211D01*
X107922Y54417D01*
X108716Y53808D01*
X109641Y53425D01*
X110633Y53294D01*
X111625Y53425D01*
X112549Y53808D01*
X113343Y54417D01*
X113952Y55211D01*
X114335Y56135D01*
X114465Y57127D01*
X114335Y58119D01*
X113952Y59044D01*
X113343Y59837D01*
X112549Y60446D01*
X111625Y60829D01*
X110633Y60960D01*
D02*
G37*
G36*
X173256Y55405D02*
X170000D01*
Y52543D01*
X173256D01*
Y55405D01*
D02*
G37*
G36*
X163500Y12964D02*
X163086Y12910D01*
X162235Y12557D01*
X161504Y11996D01*
X160943Y11265D01*
X160590Y10414D01*
X160536Y10000D01*
X163500D01*
Y12964D01*
D02*
G37*
G36*
X164500D02*
Y10000D01*
X167464D01*
X167410Y10414D01*
X167057Y11265D01*
X166496Y11996D01*
X165765Y12557D01*
X164914Y12910D01*
X164500Y12964D01*
D02*
G37*
G36*
X164063Y18000D02*
X160807D01*
Y14547D01*
X164063D01*
Y18000D01*
D02*
G37*
G36*
X57475Y16222D02*
X56416Y16083D01*
X55430Y15674D01*
X54583Y15024D01*
X53932Y14177D01*
X53524Y13190D01*
X53384Y12131D01*
X53524Y11072D01*
X53932Y10086D01*
X54583Y9238D01*
X55430Y8588D01*
X56416Y8180D01*
X57475Y8040D01*
X58534Y8180D01*
X59521Y8588D01*
X60368Y9238D01*
X61018Y10086D01*
X61427Y11072D01*
X61566Y12131D01*
X61427Y13190D01*
X61018Y14177D01*
X60368Y15024D01*
X59521Y15674D01*
X58534Y16083D01*
X57475Y16222D01*
D02*
G37*
G36*
X13000Y20240D02*
X11587Y20101D01*
X10229Y19689D01*
X8978Y19020D01*
X7880Y18120D01*
X6980Y17022D01*
X6311Y15771D01*
X5899Y14412D01*
X5760Y13000D01*
X5899Y11587D01*
X6311Y10229D01*
X6980Y8978D01*
X7880Y7880D01*
X8978Y6980D01*
X10229Y6311D01*
X11587Y5899D01*
X13000Y5760D01*
X14412Y5899D01*
X15771Y6311D01*
X17022Y6980D01*
X18120Y7880D01*
X19020Y8978D01*
X19689Y10229D01*
X20101Y11587D01*
X20240Y13000D01*
X20101Y14412D01*
X19689Y15771D01*
X19020Y17022D01*
X18120Y18120D01*
X17022Y19020D01*
X15771Y19689D01*
X14412Y20101D01*
X13000Y20240D01*
D02*
G37*
G36*
X37790Y16222D02*
X36731Y16083D01*
X35745Y15674D01*
X34897Y15024D01*
X34247Y14177D01*
X33838Y13190D01*
X33699Y12131D01*
X33838Y11072D01*
X34247Y10086D01*
X34897Y9238D01*
X35745Y8588D01*
X36731Y8180D01*
X37790Y8040D01*
X38849Y8180D01*
X39836Y8588D01*
X40683Y9238D01*
X41333Y10086D01*
X41742Y11072D01*
X41881Y12131D01*
X41742Y13190D01*
X41333Y14177D01*
X40683Y15024D01*
X39836Y15674D01*
X38849Y16083D01*
X37790Y16222D01*
D02*
G37*
G36*
X47633D02*
X46574Y16083D01*
X45587Y15674D01*
X44740Y15024D01*
X44090Y14177D01*
X43681Y13190D01*
X43542Y12131D01*
X43681Y11072D01*
X44090Y10086D01*
X44740Y9238D01*
X45587Y8588D01*
X46574Y8180D01*
X47633Y8040D01*
X48691Y8180D01*
X49678Y8588D01*
X50525Y9238D01*
X51175Y10086D01*
X51584Y11072D01*
X51724Y12131D01*
X51584Y13190D01*
X51175Y14177D01*
X50525Y15024D01*
X49678Y15674D01*
X48691Y16083D01*
X47633Y16222D01*
D02*
G37*
G36*
X164063Y22453D02*
X160807D01*
Y19000D01*
X164063D01*
Y22453D01*
D02*
G37*
G36*
X57512Y42953D02*
X54650D01*
Y40957D01*
X57512D01*
Y42953D01*
D02*
G37*
G36*
X61374D02*
X58512D01*
Y40957D01*
X61374D01*
Y42953D01*
D02*
G37*
G36*
X169000Y55405D02*
X165744D01*
Y52543D01*
X169000D01*
Y55405D01*
D02*
G37*
G36*
X61374Y39957D02*
X58512D01*
Y37960D01*
X61374D01*
Y39957D01*
D02*
G37*
G36*
X51438Y46796D02*
X44113D01*
Y41204D01*
X45968D01*
Y37056D01*
X44294D01*
Y28944D01*
X45128D01*
X45298Y28444D01*
X44740Y28016D01*
X44090Y27169D01*
X43681Y26182D01*
X43542Y25123D01*
X43681Y24064D01*
X44090Y23078D01*
X44740Y22230D01*
X45587Y21580D01*
X46574Y21172D01*
X47633Y21032D01*
X48691Y21172D01*
X49678Y21580D01*
X50525Y22230D01*
X51175Y23078D01*
X51584Y24064D01*
X51724Y25123D01*
X51584Y26182D01*
X51175Y27169D01*
X50525Y28016D01*
X49967Y28444D01*
X50137Y28944D01*
X54971D01*
X55141Y28444D01*
X54583Y28016D01*
X53932Y27169D01*
X53524Y26182D01*
X53384Y25123D01*
X53524Y24064D01*
X53932Y23078D01*
X54583Y22230D01*
X55430Y21580D01*
X56416Y21172D01*
X57475Y21032D01*
X58534Y21172D01*
X59521Y21580D01*
X60368Y22230D01*
X61018Y23078D01*
X61427Y24064D01*
X61566Y25123D01*
X61427Y26182D01*
X61018Y27169D01*
X60368Y28016D01*
X59521Y28666D01*
X58706Y29004D01*
Y31012D01*
X63677D01*
X64247Y30441D01*
Y19826D01*
X72753D01*
Y38174D01*
X64247D01*
Y34988D01*
X58706D01*
Y37056D01*
X49945D01*
Y41204D01*
X51438D01*
Y46796D01*
D02*
G37*
G36*
X41846Y29179D02*
X33734D01*
Y21067D01*
X41846D01*
Y29179D01*
D02*
G37*
G36*
X57512Y39957D02*
X54650D01*
Y37960D01*
X57512D01*
Y39957D01*
D02*
G37*
G36*
X171500Y75964D02*
Y73000D01*
X174464D01*
X174410Y73414D01*
X174057Y74265D01*
X173496Y74996D01*
X172765Y75557D01*
X171914Y75910D01*
X171500Y75964D01*
D02*
G37*
G36*
X70633Y120960D02*
X69641Y120829D01*
X68716Y120446D01*
X67923Y119837D01*
X67313Y119044D01*
X66931Y118119D01*
X66800Y117127D01*
X66931Y116135D01*
X67313Y115211D01*
X67923Y114417D01*
X68716Y113808D01*
X69641Y113425D01*
X70633Y113294D01*
X71625Y113425D01*
X72549Y113808D01*
X73343Y114417D01*
X73952Y115211D01*
X74335Y116135D01*
X74465Y117127D01*
X74335Y118119D01*
X73952Y119044D01*
X73343Y119837D01*
X72549Y120446D01*
X71625Y120829D01*
X70633Y120960D01*
D02*
G37*
G36*
X60633D02*
X59641Y120829D01*
X58716Y120446D01*
X57923Y119837D01*
X57313Y119044D01*
X56931Y118119D01*
X56800Y117127D01*
X56931Y116135D01*
X57313Y115211D01*
X57923Y114417D01*
X58716Y113808D01*
X59641Y113425D01*
X60633Y113294D01*
X61625Y113425D01*
X62549Y113808D01*
X63343Y114417D01*
X63952Y115211D01*
X64335Y116135D01*
X64465Y117127D01*
X64335Y118119D01*
X63952Y119044D01*
X63343Y119837D01*
X62549Y120446D01*
X61625Y120829D01*
X60633Y120960D01*
D02*
G37*
G36*
X90633D02*
X89641Y120829D01*
X88716Y120446D01*
X87923Y119837D01*
X87313Y119044D01*
X86931Y118119D01*
X86800Y117127D01*
X86931Y116135D01*
X87313Y115211D01*
X87923Y114417D01*
X88716Y113808D01*
X89641Y113425D01*
X90633Y113294D01*
X91625Y113425D01*
X92549Y113808D01*
X93343Y114417D01*
X93952Y115211D01*
X94335Y116135D01*
X94465Y117127D01*
X94335Y118119D01*
X93952Y119044D01*
X93343Y119837D01*
X92549Y120446D01*
X91625Y120829D01*
X90633Y120960D01*
D02*
G37*
G36*
X80633D02*
X79641Y120829D01*
X78716Y120446D01*
X77922Y119837D01*
X77313Y119044D01*
X76930Y118119D01*
X76800Y117127D01*
X76930Y116135D01*
X77313Y115211D01*
X77922Y114417D01*
X78716Y113808D01*
X79641Y113425D01*
X80633Y113294D01*
X81625Y113425D01*
X82549Y113808D01*
X83343Y114417D01*
X83952Y115211D01*
X84335Y116135D01*
X84465Y117127D01*
X84335Y118119D01*
X83952Y119044D01*
X83343Y119837D01*
X82549Y120446D01*
X81625Y120829D01*
X80633Y120960D01*
D02*
G37*
G36*
X30633D02*
X29641Y120829D01*
X28716Y120446D01*
X27922Y119837D01*
X27313Y119044D01*
X26930Y118119D01*
X26800Y117127D01*
X26930Y116135D01*
X27313Y115211D01*
X27922Y114417D01*
X28716Y113808D01*
X29641Y113425D01*
X30633Y113294D01*
X31625Y113425D01*
X32549Y113808D01*
X33343Y114417D01*
X33952Y115211D01*
X34335Y116135D01*
X34465Y117127D01*
X34335Y118119D01*
X33952Y119044D01*
X33343Y119837D01*
X32549Y120446D01*
X31625Y120829D01*
X30633Y120960D01*
D02*
G37*
G36*
X20633D02*
X19641Y120829D01*
X18716Y120446D01*
X17922Y119837D01*
X17313Y119044D01*
X16930Y118119D01*
X16800Y117127D01*
X16930Y116135D01*
X17313Y115211D01*
X17922Y114417D01*
X18716Y113808D01*
X19641Y113425D01*
X20633Y113294D01*
X21625Y113425D01*
X22549Y113808D01*
X23343Y114417D01*
X23952Y115211D01*
X24335Y116135D01*
X24465Y117127D01*
X24335Y118119D01*
X23952Y119044D01*
X23343Y119837D01*
X22549Y120446D01*
X21625Y120829D01*
X20633Y120960D01*
D02*
G37*
G36*
X50633D02*
X49641Y120829D01*
X48716Y120446D01*
X47923Y119837D01*
X47313Y119044D01*
X46931Y118119D01*
X46800Y117127D01*
X46931Y116135D01*
X47313Y115211D01*
X47923Y114417D01*
X48716Y113808D01*
X49641Y113425D01*
X50633Y113294D01*
X51625Y113425D01*
X52549Y113808D01*
X53343Y114417D01*
X53952Y115211D01*
X54335Y116135D01*
X54465Y117127D01*
X54335Y118119D01*
X53952Y119044D01*
X53343Y119837D01*
X52549Y120446D01*
X51625Y120829D01*
X50633Y120960D01*
D02*
G37*
G36*
X40633D02*
X39641Y120829D01*
X38716Y120446D01*
X37922Y119837D01*
X37313Y119044D01*
X36931Y118119D01*
X36800Y117127D01*
X36931Y116135D01*
X37313Y115211D01*
X37922Y114417D01*
X38716Y113808D01*
X39641Y113425D01*
X40633Y113294D01*
X41625Y113425D01*
X42549Y113808D01*
X43343Y114417D01*
X43952Y115211D01*
X44335Y116135D01*
X44465Y117127D01*
X44335Y118119D01*
X43952Y119044D01*
X43343Y119837D01*
X42549Y120446D01*
X41625Y120829D01*
X40633Y120960D01*
D02*
G37*
G36*
X164097Y116627D02*
X161133D01*
Y113663D01*
X161546Y113717D01*
X162398Y114070D01*
X163129Y114631D01*
X163690Y115362D01*
X164043Y116213D01*
X164097Y116627D01*
D02*
G37*
G36*
X160133D02*
X157168D01*
X157223Y116213D01*
X157575Y115362D01*
X158136Y114631D01*
X158868Y114070D01*
X159719Y113717D01*
X160133Y113663D01*
Y116627D01*
D02*
G37*
G36*
X161133Y120591D02*
Y117627D01*
X164097D01*
X164043Y118041D01*
X163690Y118892D01*
X163129Y119623D01*
X162398Y120184D01*
X161546Y120537D01*
X161133Y120591D01*
D02*
G37*
G36*
X160133D02*
X159719Y120537D01*
X158868Y120184D01*
X158136Y119623D01*
X157575Y118892D01*
X157223Y118041D01*
X157168Y117627D01*
X160133D01*
Y120591D01*
D02*
G37*
G36*
X130633Y120960D02*
X129641Y120829D01*
X128716Y120446D01*
X127922Y119837D01*
X127313Y119044D01*
X126930Y118119D01*
X126800Y117127D01*
X126930Y116135D01*
X127313Y115211D01*
X127922Y114417D01*
X128716Y113808D01*
X129641Y113425D01*
X130633Y113294D01*
X131625Y113425D01*
X132549Y113808D01*
X133343Y114417D01*
X133952Y115211D01*
X134335Y116135D01*
X134465Y117127D01*
X134335Y118119D01*
X133952Y119044D01*
X133343Y119837D01*
X132549Y120446D01*
X131625Y120829D01*
X130633Y120960D01*
D02*
G37*
G36*
X100633D02*
X99641Y120829D01*
X98716Y120446D01*
X97922Y119837D01*
X97313Y119044D01*
X96930Y118119D01*
X96800Y117127D01*
X96930Y116135D01*
X97313Y115211D01*
X97922Y114417D01*
X98716Y113808D01*
X99641Y113425D01*
X100633Y113294D01*
X101625Y113425D01*
X102549Y113808D01*
X103343Y114417D01*
X103952Y115211D01*
X104335Y116135D01*
X104465Y117127D01*
X104335Y118119D01*
X103952Y119044D01*
X103343Y119837D01*
X102549Y120446D01*
X101625Y120829D01*
X100633Y120960D01*
D02*
G37*
G36*
X150633D02*
X149641Y120829D01*
X148716Y120446D01*
X147923Y119837D01*
X147313Y119044D01*
X146931Y118119D01*
X146800Y117127D01*
X146931Y116135D01*
X147313Y115211D01*
X147923Y114417D01*
X148716Y113808D01*
X149641Y113425D01*
X150633Y113294D01*
X151625Y113425D01*
X152549Y113808D01*
X153343Y114417D01*
X153952Y115211D01*
X154335Y116135D01*
X154465Y117127D01*
X154335Y118119D01*
X153952Y119044D01*
X153343Y119837D01*
X152549Y120446D01*
X151625Y120829D01*
X150633Y120960D01*
D02*
G37*
G36*
X140633D02*
X139641Y120829D01*
X138716Y120446D01*
X137923Y119837D01*
X137313Y119044D01*
X136931Y118119D01*
X136800Y117127D01*
X136931Y116135D01*
X137313Y115211D01*
X137923Y114417D01*
X138716Y113808D01*
X139641Y113425D01*
X140633Y113294D01*
X141625Y113425D01*
X142549Y113808D01*
X143343Y114417D01*
X143952Y115211D01*
X144335Y116135D01*
X144465Y117127D01*
X144335Y118119D01*
X143952Y119044D01*
X143343Y119837D01*
X142549Y120446D01*
X141625Y120829D01*
X140633Y120960D01*
D02*
G37*
G36*
X112633Y94690D02*
X109180D01*
Y91434D01*
X112633D01*
Y94690D01*
D02*
G37*
G36*
X130054Y93627D02*
X126633D01*
Y90206D01*
X127164Y90276D01*
X128126Y90674D01*
X128952Y91308D01*
X129585Y92134D01*
X129984Y93095D01*
X130054Y93627D01*
D02*
G37*
G36*
X125633Y98048D02*
X125101Y97978D01*
X124139Y97580D01*
X123313Y96946D01*
X122680Y96121D01*
X122282Y95159D01*
X122212Y94627D01*
X125633D01*
Y98048D01*
D02*
G37*
G36*
X117085Y94690D02*
X113633D01*
Y91434D01*
X117085D01*
Y94690D01*
D02*
G37*
G36*
X146133Y98417D02*
X145022Y98270D01*
X143988Y97842D01*
X143099Y97160D01*
X142418Y96272D01*
X141989Y95237D01*
X141843Y94127D01*
X141989Y93017D01*
X142418Y91982D01*
X143099Y91094D01*
X143988Y90412D01*
X145022Y89984D01*
X146133Y89838D01*
X147243Y89984D01*
X148277Y90412D01*
X149166Y91094D01*
X149847Y91982D01*
X150276Y93017D01*
X150422Y94127D01*
X150276Y95237D01*
X149847Y96272D01*
X149166Y97160D01*
X148277Y97842D01*
X147243Y98270D01*
X146133Y98417D01*
D02*
G37*
G36*
X136133D02*
X135022Y98270D01*
X133988Y97842D01*
X133099Y97160D01*
X132418Y96272D01*
X131989Y95237D01*
X131843Y94127D01*
X131989Y93017D01*
X132418Y91982D01*
X133099Y91094D01*
X133988Y90412D01*
X135022Y89984D01*
X136133Y89838D01*
X137243Y89984D01*
X138277Y90412D01*
X139166Y91094D01*
X139847Y91982D01*
X140276Y93017D01*
X140422Y94127D01*
X140276Y95237D01*
X139847Y96272D01*
X139166Y97160D01*
X138277Y97842D01*
X137243Y98270D01*
X136133Y98417D01*
D02*
G37*
G36*
X125633Y93627D02*
X122212D01*
X122282Y93095D01*
X122680Y92134D01*
X123313Y91308D01*
X124139Y90674D01*
X125101Y90276D01*
X125633Y90206D01*
Y93627D01*
D02*
G37*
G36*
X156133Y98417D02*
X155023Y98270D01*
X153988Y97842D01*
X153100Y97160D01*
X152418Y96272D01*
X151989Y95237D01*
X151843Y94127D01*
X151989Y93017D01*
X152418Y91982D01*
X153100Y91094D01*
X153988Y90412D01*
X155023Y89984D01*
X156133Y89838D01*
X157243Y89984D01*
X158277Y90412D01*
X159166Y91094D01*
X159847Y91982D01*
X160276Y93017D01*
X160422Y94127D01*
X160276Y95237D01*
X159847Y96272D01*
X159166Y97160D01*
X158277Y97842D01*
X157243Y98270D01*
X156133Y98417D01*
D02*
G37*
G36*
X175085Y112190D02*
X171633D01*
Y108934D01*
X175085D01*
Y112190D01*
D02*
G37*
G36*
X170633D02*
X167180D01*
Y108934D01*
X170633D01*
Y112190D01*
D02*
G37*
G36*
X10633Y120960D02*
X9641Y120829D01*
X8716Y120446D01*
X7923Y119837D01*
X7313Y119044D01*
X6931Y118119D01*
X6800Y117127D01*
X6931Y116135D01*
X7313Y115211D01*
X7923Y114417D01*
X8716Y113808D01*
X9641Y113425D01*
X10633Y113294D01*
X11625Y113425D01*
X12549Y113808D01*
X13343Y114417D01*
X13952Y115211D01*
X14335Y116135D01*
X14465Y117127D01*
X14335Y118119D01*
X13952Y119044D01*
X13343Y119837D01*
X12549Y120446D01*
X11625Y120829D01*
X10633Y120960D01*
D02*
G37*
G36*
X168197Y125488D02*
X119506D01*
X118745Y125337D01*
X118100Y124906D01*
X114227Y121033D01*
X113796Y120388D01*
X113745Y120134D01*
X113644Y120059D01*
X113198Y119948D01*
X112549Y120446D01*
X111625Y120829D01*
X110633Y120960D01*
X109641Y120829D01*
X108716Y120446D01*
X107922Y119837D01*
X107313Y119044D01*
X106930Y118119D01*
X106800Y117127D01*
X106930Y116135D01*
X107313Y115211D01*
X107922Y114417D01*
X108716Y113808D01*
X109641Y113425D01*
X110633Y113294D01*
X111379Y113393D01*
X111613Y112919D01*
X103727Y105033D01*
X92967Y94273D01*
X92536Y93628D01*
X92385Y92867D01*
Y73821D01*
X91814D01*
X90858Y73695D01*
X89967Y73326D01*
X89202Y72739D01*
X88723Y72115D01*
X37339D01*
X36579Y71964D01*
X35934Y71533D01*
X30389Y65988D01*
X21910D01*
X21854Y66465D01*
X21854Y66488D01*
Y73789D01*
X9411D01*
Y66465D01*
X17339D01*
X17388Y65965D01*
X16745Y65837D01*
X16100Y65406D01*
X11621Y60927D01*
X6833D01*
Y53327D01*
X14433D01*
Y58115D01*
X18329Y62012D01*
X31212D01*
X31973Y62163D01*
X32618Y62594D01*
X38163Y68139D01*
X88723D01*
X89202Y67515D01*
X89967Y66928D01*
X90858Y66559D01*
X91814Y66433D01*
X96932D01*
X97888Y66559D01*
X98779Y66928D01*
X99544Y67515D01*
X100131Y68280D01*
X100500Y69171D01*
X100626Y70127D01*
X100500Y71083D01*
X100131Y71974D01*
X99544Y72739D01*
X98779Y73326D01*
X97888Y73695D01*
X96932Y73821D01*
X96361D01*
Y92044D01*
X105956Y101639D01*
X108526D01*
X108880Y101285D01*
Y99322D01*
X108880Y99201D01*
Y99008D01*
Y99008D01*
X109180Y98633D01*
Y98508D01*
Y95690D01*
X117085D01*
Y98508D01*
Y98633D01*
X117385Y99008D01*
Y99008D01*
Y99201D01*
X117385Y99322D01*
Y102139D01*
X121880D01*
Y99874D01*
X130385D01*
Y108380D01*
X121880D01*
Y106115D01*
X117385D01*
Y107120D01*
X112091D01*
X111899Y107582D01*
X117039Y112721D01*
X117470Y113366D01*
X117604Y114044D01*
X117843Y114188D01*
X118121Y114265D01*
X118716Y113808D01*
X119641Y113425D01*
X120633Y113294D01*
X121625Y113425D01*
X122549Y113808D01*
X123343Y114417D01*
X123952Y115211D01*
X124335Y116135D01*
X124465Y117127D01*
X124335Y118119D01*
X123952Y119044D01*
X123343Y119837D01*
X122549Y120446D01*
X121625Y120829D01*
X120913Y120923D01*
X120647Y121442D01*
X120690Y121512D01*
X166526D01*
X166880Y121158D01*
Y116822D01*
X166880Y116701D01*
Y116508D01*
Y116508D01*
X167180Y116132D01*
Y116008D01*
Y113190D01*
X175085D01*
Y116008D01*
Y116132D01*
X175385Y116508D01*
Y116508D01*
Y116701D01*
X175385Y116822D01*
Y124620D01*
X169888D01*
X169603Y124906D01*
X168958Y125337D01*
X168197Y125488D01*
D02*
G37*
G36*
X136133Y108417D02*
X135022Y108270D01*
X133988Y107842D01*
X133099Y107160D01*
X132418Y106272D01*
X131989Y105237D01*
X131843Y104127D01*
X131989Y103017D01*
X132418Y101982D01*
X133099Y101094D01*
X133988Y100412D01*
X135022Y99984D01*
X136133Y99838D01*
X137243Y99984D01*
X138277Y100412D01*
X139166Y101094D01*
X139847Y101982D01*
X140276Y103017D01*
X140422Y104127D01*
X140276Y105237D01*
X139847Y106272D01*
X139166Y107160D01*
X138277Y107842D01*
X137243Y108270D01*
X136133Y108417D01*
D02*
G37*
G36*
X126633Y98048D02*
Y94627D01*
X130054D01*
X129984Y95159D01*
X129585Y96121D01*
X128952Y96946D01*
X128126Y97580D01*
X127164Y97978D01*
X126633Y98048D01*
D02*
G37*
G36*
X156133Y108417D02*
X155023Y108270D01*
X153988Y107842D01*
X153100Y107160D01*
X152418Y106272D01*
X151989Y105237D01*
X151843Y104127D01*
X151989Y103017D01*
X152418Y101982D01*
X153100Y101094D01*
X153988Y100412D01*
X155023Y99984D01*
X156133Y99838D01*
X157243Y99984D01*
X158277Y100412D01*
X159166Y101094D01*
X159847Y101982D01*
X160276Y103017D01*
X160422Y104127D01*
X160276Y105237D01*
X159847Y106272D01*
X159166Y107160D01*
X158277Y107842D01*
X157243Y108270D01*
X156133Y108417D01*
D02*
G37*
G36*
X146133D02*
X145022Y108270D01*
X143988Y107842D01*
X143099Y107160D01*
X142418Y106272D01*
X141989Y105237D01*
X141843Y104127D01*
X141989Y103017D01*
X142418Y101982D01*
X143099Y101094D01*
X143988Y100412D01*
X145022Y99984D01*
X146133Y99838D01*
X147243Y99984D01*
X148277Y100412D01*
X149166Y101094D01*
X149847Y101982D01*
X150276Y103017D01*
X150422Y104127D01*
X150276Y105237D01*
X149847Y106272D01*
X149166Y107160D01*
X148277Y107842D01*
X147243Y108270D01*
X146133Y108417D01*
D02*
G37*
%LPD*%
D10*
X141676Y30127D02*
D03*
X134589D02*
D03*
X134176Y37627D02*
D03*
X127089D02*
D03*
X47957Y33000D02*
D03*
X55043D02*
D03*
D14*
X113133Y95190D02*
D03*
Y103064D02*
D03*
X171133Y112690D02*
D03*
Y120564D02*
D03*
D16*
X164563Y18500D02*
D03*
X172437D02*
D03*
D17*
X158133Y85000D02*
X170816Y72316D01*
X171133Y72500D02*
Y112690D01*
Y51670D02*
Y72000D01*
X116000Y85000D02*
X158133D01*
X113133Y87867D02*
X116000Y85000D01*
X170500Y4000D02*
X172437Y5937D01*
X155000Y4000D02*
X170500D01*
X152633Y6367D02*
X155000Y4000D01*
X164000Y9500D02*
Y15437D01*
X152633Y6367D02*
Y7127D01*
X113133Y87867D02*
Y95190D01*
X169500Y29957D02*
X171500Y27957D01*
Y18000D02*
Y27957D01*
Y18000D02*
X172437Y17063D01*
Y5937D02*
Y17063D01*
X153133Y28627D02*
X156760Y25000D01*
X162000D01*
X164563Y22437D01*
Y16000D02*
Y22437D01*
X105133Y103627D02*
X115633Y114127D01*
Y119627D01*
X113133Y103064D02*
X114196Y104127D01*
X105133Y103627D02*
X112570D01*
X94373Y92867D02*
X105133Y103627D01*
X94373Y70127D02*
Y92867D01*
X114196Y104127D02*
X126133D01*
X152633Y7127D02*
Y16127D01*
X147133Y21627D02*
X152633Y16127D01*
X141633Y21627D02*
X147133D01*
X127089Y33584D02*
Y37627D01*
X125133Y31627D02*
X127089Y33584D01*
X125133Y30127D02*
Y31627D01*
X134176Y30540D02*
Y37627D01*
X134416Y37867D01*
X148408D01*
X141676Y29338D02*
Y30127D01*
X136965Y24627D02*
X141676Y29338D01*
X123633Y24627D02*
X136965D01*
X120633Y27627D02*
X123633Y24627D01*
X141936Y30387D02*
X148408D01*
X120633Y27627D02*
Y40127D01*
X37339Y70127D02*
X94373D01*
X134633Y51127D02*
X140633Y57127D01*
X121127Y51127D02*
X134633D01*
X150633Y51627D02*
Y57127D01*
X145633Y46627D02*
X150633Y51627D01*
X127133Y46627D02*
X145633D01*
X120633Y40127D02*
X127133Y46627D01*
X153133Y34127D02*
Y44127D01*
X160633Y117127D02*
X165070Y112690D01*
X171133D01*
X153133Y28627D02*
Y34127D01*
X148408D02*
X153133D01*
X148408Y30387D02*
X148676Y30119D01*
X157857Y37867D02*
X168676D01*
X169500Y37043D01*
Y44957D01*
X157857Y30387D02*
X169070D01*
X153133Y44127D02*
X160676Y51670D01*
X171133D01*
X10633Y57127D02*
X17505Y64000D01*
X31212D01*
X37339Y70127D01*
X58012Y47937D02*
X117937D01*
X121127Y51127D01*
X55043Y33000D02*
X64500D01*
X68500Y29000D01*
X47957Y33000D02*
Y43819D01*
X113776Y11224D02*
Y29000D01*
Y11224D02*
X117873Y7127D01*
X152633D01*
X115633Y119627D02*
X119506Y123500D01*
X168197D01*
X170120Y121577D01*
D19*
X13000Y13000D02*
D03*
D20*
X126133Y104127D02*
D03*
D21*
X136133D02*
D03*
X156133D02*
D03*
X146133Y94127D02*
D03*
Y104127D02*
D03*
X156133Y94127D02*
D03*
X136133D02*
D03*
X126133D02*
D03*
D22*
X15633Y70127D02*
D03*
D23*
X94373D02*
D03*
D24*
X10633Y57127D02*
D03*
D25*
X20633D02*
D03*
X30633D02*
D03*
X40633D02*
D03*
X50633D02*
D03*
X60633D02*
D03*
X70633D02*
D03*
X80633D02*
D03*
X90633D02*
D03*
X100633D02*
D03*
X110633D02*
D03*
X120633D02*
D03*
X130633D02*
D03*
X140633D02*
D03*
X150633D02*
D03*
X160633D02*
D03*
Y117127D02*
D03*
X150633D02*
D03*
X140633D02*
D03*
X130633D02*
D03*
X120633D02*
D03*
X110633D02*
D03*
X100633D02*
D03*
X90633D02*
D03*
X80633D02*
D03*
X70633D02*
D03*
X60633D02*
D03*
X50633D02*
D03*
X40633D02*
D03*
X30633D02*
D03*
X20633D02*
D03*
X10633D02*
D03*
X171000Y72500D02*
D03*
X164000Y9500D02*
D03*
X141633Y21627D02*
D03*
X152633Y7127D02*
D03*
X125133Y30127D02*
D03*
D26*
X57475Y12131D02*
D03*
X47633D02*
D03*
X37790D02*
D03*
X47633Y25123D02*
D03*
X57475D02*
D03*
D27*
X37790D02*
D03*
D28*
X169500Y37043D02*
D03*
Y29957D02*
D03*
X169500Y44957D02*
D03*
Y52043D02*
D03*
D29*
X68500Y29000D02*
D03*
X113776D02*
D03*
D30*
X58012Y47937D02*
D03*
Y40457D02*
D03*
X47776Y44000D02*
D03*
D31*
X157857Y30387D02*
D03*
Y37867D02*
D03*
X148408D02*
D03*
Y34127D02*
D03*
D32*
Y30387D02*
D03*
M02*
