%FSLAX25Y25*%
%MOIN*%
G70*
G01*
G75*
G04 Layer_Physical_Order=2*
G04 Layer_Color=16711680*
%ADD10C,0.02000*%
%ADD11C,0.01000*%
%ADD12C,0.10000*%
%ADD13C,0.05118*%
%ADD14R,0.05118X0.05118*%
%ADD15R,0.05118X0.05118*%
%ADD16C,0.11811*%
%ADD17R,0.05000X0.05000*%
%ADD18C,0.05000*%
%ADD19R,0.04724X0.09843*%
%ADD20O,0.04724X0.09843*%
%ADD21R,0.05906X0.05906*%
%ADD22C,0.05906*%
%ADD23R,0.05906X0.05906*%
%ADD24R,0.04331X0.02559*%
%ADD25O,0.04331X0.02559*%
%ADD26R,0.05512X0.05906*%
%ADD27R,0.05512X0.04724*%
%ADD28R,0.04724X0.05512*%
%ADD29R,0.02559X0.04331*%
%ADD30O,0.02559X0.04331*%
%ADD31R,0.05906X0.05512*%
%ADD32O,0.01181X0.03937*%
%ADD33R,0.01181X0.03937*%
%ADD34R,0.04724X0.02992*%
%ADD35R,0.02992X0.04724*%
%ADD36C,0.01500*%
G36*
X299474Y93247D02*
Y79253D01*
X297290Y77069D01*
X296256D01*
Y78405D01*
X294526D01*
Y80094D01*
X296256D01*
Y87181D01*
Y95758D01*
X296714Y96007D01*
X299474Y93247D01*
D02*
G37*
G36*
X462500Y84771D02*
Y39011D01*
X462000Y38832D01*
X461474Y39474D01*
X460408Y40349D01*
X460026Y40553D01*
Y55000D01*
X461500D01*
Y64000D01*
X453933D01*
X453741Y64462D01*
X454814Y65535D01*
X455825Y65116D01*
X457000Y64961D01*
X458175Y65116D01*
X459269Y65569D01*
X460209Y66291D01*
X460931Y67231D01*
X461384Y68325D01*
X461539Y69500D01*
X461384Y70675D01*
X460931Y71769D01*
X460209Y72709D01*
X459269Y73431D01*
X458175Y73884D01*
X457000Y74039D01*
X455825Y73884D01*
X454731Y73431D01*
X453791Y72709D01*
X453503Y72334D01*
X452987Y72120D01*
X452360Y71640D01*
X445987Y65266D01*
X445563Y65549D01*
X445884Y66325D01*
X446039Y67500D01*
X446009Y67729D01*
X461140Y82860D01*
X461621Y83487D01*
X461923Y84217D01*
X462000Y84803D01*
X462500Y84771D01*
D02*
G37*
G36*
X436523Y118918D02*
X436977Y117823D01*
X437698Y116883D01*
X438638Y116162D01*
X439733Y115708D01*
X440777Y115571D01*
Y113906D01*
X439244D01*
Y112766D01*
X431390D01*
Y113020D01*
X423059D01*
Y109026D01*
X421516D01*
X421251Y108991D01*
X421018Y109240D01*
X414665D01*
X414743Y108851D01*
X415246Y108097D01*
X416000Y107593D01*
X416890Y107416D01*
X417999D01*
X418190Y106954D01*
X416791Y105555D01*
X416034Y105455D01*
X415236Y105124D01*
X414551Y104599D01*
X414025Y103914D01*
X413695Y103116D01*
X413582Y102260D01*
X413695Y101404D01*
X414025Y100606D01*
X414551Y99921D01*
X414750Y99768D01*
Y91953D01*
X413307D01*
Y90089D01*
X402563D01*
X402563Y90089D01*
X402171Y90037D01*
X401780Y89986D01*
X401050Y89684D01*
X400423Y89203D01*
X399551Y88330D01*
X399089Y88521D01*
Y113698D01*
X399209Y113791D01*
X399931Y114731D01*
X400384Y115825D01*
X400539Y117000D01*
X400451Y117671D01*
X402742Y119962D01*
X415461D01*
Y118626D01*
X422453D01*
Y118626D01*
X422941D01*
Y118626D01*
X429933D01*
Y119962D01*
X436386D01*
X436523Y118918D01*
D02*
G37*
G36*
X462500Y307500D02*
Y106905D01*
X454244D01*
Y105569D01*
X448756D01*
Y106819D01*
Y113906D01*
X446829D01*
Y117197D01*
X446726Y117980D01*
X446424Y118710D01*
X445943Y119336D01*
X445416Y119863D01*
X445446Y120092D01*
X445292Y121267D01*
X444838Y122362D01*
X444117Y123302D01*
X443177Y124023D01*
X442082Y124477D01*
X440907Y124631D01*
X440678Y124601D01*
X440151Y125128D01*
X439525Y125609D01*
X438795Y125911D01*
X438012Y126014D01*
X429933D01*
Y127350D01*
X422941D01*
Y127350D01*
X422453D01*
Y127350D01*
X415461D01*
Y126014D01*
X401488D01*
X400705Y125911D01*
X399975Y125609D01*
X399349Y125128D01*
X395723Y121502D01*
X394825Y121384D01*
X393731Y120931D01*
X392791Y120209D01*
X392069Y119269D01*
X391616Y118175D01*
X391461Y117000D01*
X391616Y115825D01*
X392069Y114731D01*
X392791Y113791D01*
X393037Y113601D01*
Y80563D01*
Y76953D01*
X391307D01*
Y75026D01*
X318000D01*
X317217Y74923D01*
X316789Y74746D01*
X316487Y74620D01*
X316215Y74412D01*
X315860Y74140D01*
X315860Y74140D01*
X298747Y57026D01*
X260753D01*
X253026Y64753D01*
Y66042D01*
X253488Y66233D01*
X254360Y65360D01*
X254987Y64880D01*
X255352Y64728D01*
X255717Y64577D01*
X255808Y64565D01*
X256500Y64474D01*
X256500Y64474D01*
X261807D01*
Y62547D01*
X271319D01*
Y63547D01*
X273937D01*
Y67500D01*
Y71453D01*
X271319D01*
Y72453D01*
X261807D01*
Y70526D01*
X257753D01*
X253026Y75253D01*
Y80000D01*
Y90247D01*
X255753Y92974D01*
X261110D01*
Y88980D01*
X262250D01*
Y85575D01*
X262066Y85434D01*
X261345Y84494D01*
X260891Y83399D01*
X260737Y82224D01*
X260891Y81050D01*
X261345Y79955D01*
X262066Y79015D01*
X263006Y78294D01*
X264101Y77840D01*
X265276Y77686D01*
X266450Y77840D01*
X267545Y78294D01*
X268485Y79015D01*
X269206Y79955D01*
X269660Y81050D01*
X269814Y82224D01*
X269660Y83399D01*
X269206Y84494D01*
X268485Y85434D01*
X268302Y85575D01*
Y88980D01*
X269441D01*
Y92974D01*
X271262D01*
X271438Y92760D01*
X278011D01*
X278186Y92974D01*
X285790D01*
X286744Y92020D01*
Y87181D01*
Y80094D01*
X288474D01*
Y78405D01*
X286744D01*
Y69681D01*
X287744D01*
Y67457D01*
X295256D01*
Y69681D01*
X296256D01*
Y71017D01*
X298543D01*
X299326Y71121D01*
X299843Y71334D01*
X300056Y71423D01*
X300683Y71904D01*
X304640Y75860D01*
X305120Y76487D01*
X305209Y76701D01*
X305423Y77217D01*
X305526Y78000D01*
Y94500D01*
X305423Y95283D01*
X305209Y95799D01*
X305120Y96013D01*
X304640Y96640D01*
X299399Y101880D01*
X298773Y102361D01*
X298043Y102663D01*
X297260Y102766D01*
X276875D01*
X276466Y102935D01*
X275610Y103048D01*
X273839D01*
X272983Y102935D01*
X272185Y102605D01*
X271500Y102079D01*
X270974Y101394D01*
X270643Y100596D01*
X270531Y99740D01*
X270575Y99402D01*
X270246Y99026D01*
X269754D01*
X269425Y99402D01*
X269469Y99740D01*
X269356Y100596D01*
X269026Y101394D01*
X268500Y102079D01*
X268302Y102232D01*
Y108744D01*
X277906D01*
Y118256D01*
X276569D01*
Y125474D01*
X281500D01*
X282283Y125577D01*
X282799Y125791D01*
X283013Y125880D01*
X283640Y126360D01*
X292140Y134860D01*
X292140Y134860D01*
X292348Y135133D01*
X292620Y135487D01*
X292923Y136217D01*
X293026Y137000D01*
X293026Y137000D01*
Y144764D01*
X293111Y144830D01*
X293810Y145741D01*
X294250Y146802D01*
X294400Y147941D01*
Y153059D01*
X294250Y154198D01*
X293810Y155259D01*
X293111Y156170D01*
X292200Y156869D01*
X291139Y157309D01*
X290000Y157459D01*
X288861Y157309D01*
X287800Y156869D01*
X286889Y156170D01*
X286190Y155259D01*
X285750Y154198D01*
X285600Y153059D01*
Y147941D01*
X285750Y146802D01*
X286190Y145741D01*
X286889Y144830D01*
X286974Y144764D01*
Y138253D01*
X280247Y131526D01*
X276350D01*
X276209Y131709D01*
X275269Y132431D01*
X274175Y132884D01*
X273000Y133039D01*
X271825Y132884D01*
X270731Y132431D01*
X269791Y131709D01*
X269069Y130769D01*
X268616Y129675D01*
X268461Y128500D01*
X268616Y127325D01*
X269069Y126231D01*
X269791Y125291D01*
X270517Y124733D01*
Y118256D01*
X262094D01*
Y117026D01*
X258405D01*
Y118256D01*
X242595D01*
Y116526D01*
X205193D01*
Y118453D01*
X187807D01*
Y108547D01*
X189734D01*
Y107256D01*
X188594D01*
Y105526D01*
X164000D01*
X164000Y105526D01*
X163308Y105435D01*
X163217Y105423D01*
X162487Y105121D01*
X161860Y104640D01*
X159360Y102140D01*
X158879Y101513D01*
X158791Y101299D01*
X158577Y100783D01*
X158474Y100000D01*
Y98925D01*
X158248Y98751D01*
X157518Y97799D01*
X157058Y96690D01*
X156902Y95500D01*
X157058Y94310D01*
X157518Y93201D01*
X158248Y92248D01*
X159201Y91518D01*
X160310Y91058D01*
X161500Y90902D01*
X162690Y91058D01*
X163799Y91518D01*
X164752Y92248D01*
X165482Y93201D01*
X165942Y94310D01*
X166098Y95500D01*
X165942Y96690D01*
X165482Y97799D01*
X164752Y98751D01*
X164738Y98959D01*
X165253Y99474D01*
X188594D01*
Y97744D01*
X189734D01*
Y91875D01*
X189565Y91466D01*
X189452Y90610D01*
Y88839D01*
X189565Y87982D01*
X189895Y87185D01*
X190421Y86500D01*
X191106Y85974D01*
X191904Y85644D01*
X192760Y85531D01*
X193616Y85644D01*
X194414Y85974D01*
X195099Y86500D01*
X195624Y87185D01*
X195955Y87982D01*
X196068Y88839D01*
Y90610D01*
X195955Y91466D01*
X195786Y91875D01*
Y97744D01*
X204405D01*
Y99474D01*
X208150D01*
X208291Y99291D01*
X209231Y98569D01*
X210325Y98116D01*
X211500Y97961D01*
X212675Y98116D01*
X213769Y98569D01*
X214709Y99291D01*
X215431Y100231D01*
X215884Y101325D01*
X216039Y102500D01*
X215884Y103675D01*
X215431Y104769D01*
X214709Y105709D01*
X213769Y106431D01*
X212675Y106884D01*
X211500Y107039D01*
X210325Y106884D01*
X209231Y106431D01*
X208291Y105709D01*
X208150Y105526D01*
X204405D01*
Y107256D01*
X203069D01*
Y108547D01*
X205193D01*
Y110474D01*
X242595D01*
Y108744D01*
X258405D01*
Y110974D01*
X262094D01*
Y108744D01*
X262250D01*
Y102232D01*
X262051Y102079D01*
X261525Y101394D01*
X261195Y100596D01*
X261082Y99740D01*
X261126Y99402D01*
X260797Y99026D01*
X254500D01*
X253717Y98923D01*
X253201Y98709D01*
X252987Y98620D01*
X252360Y98140D01*
X247860Y93640D01*
X247379Y93013D01*
X247291Y92799D01*
X247077Y92283D01*
X246974Y91500D01*
Y87958D01*
X246512Y87767D01*
X242640Y91640D01*
X242013Y92120D01*
X241799Y92209D01*
X241283Y92423D01*
X240500Y92526D01*
X226193D01*
Y94453D01*
X216681D01*
Y93453D01*
X214063D01*
Y89500D01*
Y85547D01*
X216681D01*
Y84547D01*
X218911D01*
Y81190D01*
X215762Y78041D01*
X215338Y78325D01*
X215660Y79101D01*
X215814Y80276D01*
X215660Y81450D01*
X215206Y82545D01*
X214485Y83485D01*
X213545Y84206D01*
X212450Y84660D01*
X211276Y84814D01*
X210101Y84660D01*
X209006Y84206D01*
X208066Y83485D01*
X207925Y83302D01*
X203520D01*
Y84441D01*
X196961D01*
Y84441D01*
Y84441D01*
X196500Y84469D01*
X196471Y84465D01*
X196471D01*
X196471Y84465D01*
X195644Y84356D01*
X194846Y84026D01*
X194630Y83860D01*
X194414Y84026D01*
X193616Y84356D01*
X192760Y84469D01*
X191904Y84356D01*
X191106Y84026D01*
X190421Y83500D01*
X190268Y83302D01*
X182978D01*
X178640Y87640D01*
X178013Y88121D01*
X177799Y88209D01*
X177283Y88423D01*
X176500Y88526D01*
X166059D01*
Y90059D01*
X156941D01*
Y80941D01*
X158474D01*
Y66405D01*
X156744D01*
Y57681D01*
X157744D01*
Y55457D01*
X165256D01*
Y57681D01*
X166256D01*
Y66405D01*
X164526D01*
Y80941D01*
X166059D01*
Y82474D01*
X175247D01*
X179585Y78136D01*
X180211Y77655D01*
X180941Y77353D01*
X181724Y77250D01*
X181725Y77250D01*
X190268D01*
X190421Y77051D01*
X191106Y76525D01*
X191904Y76195D01*
X192760Y76082D01*
X193098Y76126D01*
X193474Y75797D01*
Y74500D01*
X193577Y73717D01*
X193791Y73201D01*
X193879Y72987D01*
X194360Y72360D01*
X197360Y69360D01*
X197987Y68879D01*
X198201Y68791D01*
X198717Y68577D01*
X199500Y68474D01*
X203150D01*
X203291Y68291D01*
X204231Y67569D01*
X205325Y67116D01*
X206500Y66961D01*
X207675Y67116D01*
X208769Y67569D01*
X209709Y68291D01*
X209850Y68474D01*
X213500D01*
X214283Y68577D01*
X214799Y68791D01*
X215013Y68879D01*
X215640Y69360D01*
X224077Y77797D01*
X224077Y77797D01*
X224557Y78424D01*
X224860Y79154D01*
X224963Y79937D01*
Y84547D01*
X226193D01*
Y86474D01*
X239247D01*
X246974Y78747D01*
Y74000D01*
Y63500D01*
X247077Y62717D01*
X247291Y62201D01*
X247379Y61987D01*
X247860Y61360D01*
X257360Y51860D01*
X257987Y51380D01*
X258717Y51077D01*
X259500Y50974D01*
X300000D01*
X300783Y51077D01*
X301299Y51291D01*
X301513Y51380D01*
X302140Y51860D01*
X319253Y68974D01*
X391307D01*
Y67047D01*
X393521D01*
Y60148D01*
X392146D01*
Y54211D01*
X394250D01*
X394448Y53954D01*
X394989Y53538D01*
X395619Y53277D01*
X396081Y53216D01*
Y51003D01*
X391625Y46548D01*
X391184Y45974D01*
X391070Y45696D01*
X390907Y45305D01*
X390813Y44587D01*
Y38821D01*
X390907Y38103D01*
X390974Y37943D01*
Y37443D01*
X391063Y36767D01*
X391324Y36136D01*
X391739Y35595D01*
X392280Y35180D01*
X392910Y34919D01*
X393587Y34830D01*
X394263Y34919D01*
X394866Y35169D01*
X395469Y34919D01*
X395931Y34858D01*
Y27453D01*
X394307D01*
Y17547D01*
X411693D01*
Y27453D01*
X410526D01*
Y34542D01*
X410988Y34733D01*
X413360Y32360D01*
X413360Y32360D01*
X413632Y32152D01*
X413987Y31879D01*
X414717Y31577D01*
X415500Y31474D01*
X415500Y31474D01*
X420150D01*
X420291Y31291D01*
X421231Y30569D01*
X422325Y30116D01*
X423500Y29961D01*
X424675Y30116D01*
X425769Y30569D01*
X426709Y31291D01*
X427431Y32231D01*
X427884Y33325D01*
X428039Y34500D01*
X427884Y35675D01*
X427431Y36769D01*
X426709Y37709D01*
X425769Y38431D01*
X424675Y38884D01*
X423500Y39039D01*
X422325Y38884D01*
X421231Y38431D01*
X420291Y37709D01*
X420150Y37526D01*
X416753D01*
X404919Y49360D01*
X404292Y49841D01*
X404079Y49929D01*
X403563Y50143D01*
X402779Y50246D01*
X401628D01*
Y54222D01*
X402034Y54303D01*
X402560Y54655D01*
X402912Y55181D01*
X403035Y55801D01*
Y58557D01*
X402912Y59178D01*
X402560Y59704D01*
X402034Y60055D01*
X401413Y60179D01*
X400947Y60086D01*
X400702Y60405D01*
X400161Y60820D01*
X399531Y61081D01*
X399069Y61142D01*
Y67047D01*
X400819D01*
Y68047D01*
X403437D01*
Y72000D01*
Y75953D01*
X400819D01*
Y76953D01*
X399089D01*
Y79310D01*
X403816Y84037D01*
X413307D01*
Y82047D01*
X422819D01*
Y83047D01*
X425437D01*
Y87000D01*
Y90953D01*
X422819D01*
Y91953D01*
X420801D01*
Y99768D01*
X421000Y99921D01*
X421526Y100606D01*
X421856Y101404D01*
X421956Y102161D01*
X422598Y102803D01*
X423071Y102569D01*
X423031Y102260D01*
X423143Y101404D01*
X423474Y100606D01*
X424000Y99921D01*
X424685Y99395D01*
X425482Y99065D01*
X426339Y98952D01*
X428110D01*
X428966Y99065D01*
X429375Y99234D01*
X439244D01*
Y98094D01*
X448756D01*
Y99517D01*
X454244D01*
Y98181D01*
Y91094D01*
X455974D01*
Y86253D01*
X441729Y72009D01*
X441500Y72039D01*
X440325Y71884D01*
X439231Y71431D01*
X438291Y70709D01*
X437569Y69769D01*
X437116Y68675D01*
X436961Y67500D01*
X436991Y67271D01*
X434679Y64959D01*
X434198Y64332D01*
X433896Y63602D01*
X433793Y62819D01*
Y59539D01*
X427626D01*
Y59069D01*
X424453D01*
Y60693D01*
X414547D01*
Y51181D01*
X415547D01*
Y48563D01*
X423453D01*
Y51181D01*
X424453D01*
Y53017D01*
X427626D01*
Y52547D01*
X436350D01*
Y53017D01*
X436819D01*
X437362Y53089D01*
X437862Y52737D01*
Y49004D01*
X446587D01*
Y55996D01*
X445929D01*
X445737Y56458D01*
X452038Y62759D01*
X452500Y62568D01*
Y55000D01*
X453974D01*
Y41049D01*
X453808Y40999D01*
X452592Y40349D01*
X451526Y39474D01*
X450652Y38408D01*
X450002Y37192D01*
X449601Y35872D01*
X449466Y34500D01*
X449601Y33128D01*
X450002Y31808D01*
X450652Y30592D01*
X451526Y29526D01*
X452592Y28651D01*
X453808Y28001D01*
X455128Y27601D01*
X456500Y27466D01*
X457872Y27601D01*
X459192Y28001D01*
X460408Y28651D01*
X461474Y29526D01*
X462000Y30168D01*
X462500Y29989D01*
Y17064D01*
X462000Y16938D01*
X461513Y17850D01*
X460763Y18763D01*
X459850Y19513D01*
X458807Y20070D01*
X457676Y20413D01*
X457000Y20480D01*
Y14500D01*
Y8520D01*
X457676Y8587D01*
X458807Y8930D01*
X459850Y9487D01*
X460763Y10237D01*
X461513Y11150D01*
X462000Y12062D01*
X462500Y11936D01*
Y7500D01*
X7500D01*
Y111298D01*
X8000Y111398D01*
X8069Y111231D01*
X8791Y110291D01*
X9731Y109569D01*
X10825Y109116D01*
X12000Y108961D01*
X13175Y109116D01*
X14269Y109569D01*
X15209Y110291D01*
X15350Y110474D01*
X26244D01*
Y109095D01*
X35756D01*
Y110474D01*
X41094D01*
Y108744D01*
X56906D01*
Y110474D01*
X63547D01*
Y108181D01*
X64547D01*
Y105563D01*
X72453D01*
Y108181D01*
X73453D01*
Y110474D01*
X84610D01*
Y106480D01*
X92941D01*
Y113039D01*
X92941D01*
X92941D01*
X92969Y113500D01*
X92965Y113529D01*
Y113529D01*
X92965Y113529D01*
X92857Y114356D01*
X92526Y115154D01*
X92000Y115839D01*
X91648Y116110D01*
X91809Y116351D01*
X91886Y116740D01*
X90177D01*
X89661Y116808D01*
X87890D01*
X87374Y116740D01*
X85489D01*
X85314Y116526D01*
X73453D01*
Y117693D01*
X63547D01*
Y116526D01*
X56906D01*
Y118256D01*
X41094D01*
Y116526D01*
X35756D01*
Y117819D01*
Y124906D01*
X34026D01*
Y130150D01*
X34209Y130291D01*
X34931Y131231D01*
X35384Y132325D01*
X35539Y133500D01*
X35384Y134675D01*
X34931Y135769D01*
X34209Y136709D01*
X33269Y137431D01*
X32175Y137884D01*
X31000Y138039D01*
X29825Y137884D01*
X28731Y137431D01*
X27791Y136709D01*
X27069Y135769D01*
X26616Y134675D01*
X26461Y133500D01*
X26616Y132325D01*
X27069Y131231D01*
X27791Y130291D01*
X27974Y130150D01*
Y124906D01*
X26244D01*
Y117819D01*
Y116526D01*
X15350D01*
X15209Y116709D01*
X14269Y117431D01*
X13175Y117884D01*
X12000Y118039D01*
X10825Y117884D01*
X9731Y117431D01*
X8791Y116709D01*
X8069Y115769D01*
X8000Y115602D01*
X7500Y115702D01*
Y308000D01*
X408160D01*
X408330Y307500D01*
X407860Y307140D01*
X400360Y299640D01*
X399880Y299013D01*
X399791Y298799D01*
X399577Y298283D01*
X399474Y297500D01*
Y297453D01*
X397547D01*
Y287547D01*
X407453D01*
Y290436D01*
X407953Y290536D01*
X408174Y290002D01*
X408968Y288968D01*
X409474Y288579D01*
Y275953D01*
X407681D01*
Y274953D01*
X405063D01*
Y271000D01*
Y267047D01*
X407681D01*
Y266047D01*
X409411D01*
Y256690D01*
X398247Y245526D01*
X299500D01*
X298717Y245423D01*
X297987Y245121D01*
X297360Y244640D01*
X287860Y235140D01*
X287380Y234513D01*
X287291Y234299D01*
X287077Y233783D01*
X286974Y233000D01*
Y216236D01*
X286889Y216170D01*
X286190Y215259D01*
X285750Y214198D01*
X285600Y213059D01*
Y207941D01*
X285750Y206802D01*
X286190Y205741D01*
X286889Y204830D01*
X287800Y204131D01*
X288861Y203691D01*
X290000Y203541D01*
X291139Y203691D01*
X292200Y204131D01*
X293111Y204830D01*
X293810Y205741D01*
X294250Y206802D01*
X294400Y207941D01*
Y213059D01*
X294250Y214198D01*
X293810Y215259D01*
X293111Y216170D01*
X293026Y216236D01*
Y231747D01*
X300753Y239474D01*
X399500D01*
X400283Y239577D01*
X400799Y239791D01*
X401013Y239879D01*
X401640Y240360D01*
X414577Y253297D01*
X414577Y253297D01*
X415058Y253924D01*
X415360Y254654D01*
X415463Y255437D01*
Y266047D01*
X417193D01*
Y275953D01*
X415526D01*
Y288579D01*
X416032Y288968D01*
X416826Y290002D01*
X417229Y290976D01*
X417771D01*
X418174Y290002D01*
X418968Y288968D01*
X419474Y288579D01*
Y275953D01*
X417807D01*
Y266047D01*
X427319D01*
Y267047D01*
X429937D01*
Y271000D01*
Y274953D01*
X427319D01*
Y275953D01*
X425526D01*
Y288579D01*
X426032Y288968D01*
X426826Y290002D01*
X427325Y291207D01*
X427495Y292500D01*
X427325Y293793D01*
X426826Y294998D01*
X426032Y296032D01*
X424998Y296826D01*
X423793Y297325D01*
X422500Y297496D01*
X421207Y297325D01*
X420002Y296826D01*
X418968Y296032D01*
X418174Y294998D01*
X417771Y294024D01*
X417229D01*
X416826Y294998D01*
X416032Y296032D01*
X414998Y296826D01*
X413793Y297325D01*
X412500Y297496D01*
X411207Y297325D01*
X410002Y296826D01*
X408968Y296032D01*
X408174Y294998D01*
X407953Y294464D01*
X407453Y294564D01*
Y297453D01*
X407385D01*
X407194Y297915D01*
X411253Y301974D01*
X444247D01*
X449974Y296247D01*
Y166753D01*
X436747Y153526D01*
X314338D01*
X314250Y154198D01*
X313810Y155259D01*
X313111Y156170D01*
X312200Y156869D01*
X311139Y157309D01*
X310000Y157459D01*
X308861Y157309D01*
X307800Y156869D01*
X306889Y156170D01*
X306190Y155259D01*
X305750Y154198D01*
X305600Y153059D01*
Y147941D01*
X305750Y146802D01*
X306190Y145741D01*
X306889Y144830D01*
X307800Y144131D01*
X308861Y143691D01*
X310000Y143541D01*
X311139Y143691D01*
X312200Y144131D01*
X313111Y144830D01*
X313810Y145741D01*
X314250Y146802D01*
X314338Y147474D01*
X438000D01*
X438783Y147577D01*
X439299Y147791D01*
X439513Y147880D01*
X440140Y148360D01*
X455140Y163360D01*
X455140Y163360D01*
X455412Y163715D01*
X455620Y163987D01*
X455746Y164289D01*
X455923Y164717D01*
X456026Y165500D01*
Y297500D01*
X455923Y298283D01*
X455709Y298799D01*
X455620Y299013D01*
X455140Y299640D01*
X447640Y307140D01*
X447170Y307500D01*
X447340Y308000D01*
X462000D01*
X462500Y307500D01*
D02*
G37*
%LPC*%
G36*
X418661Y112064D02*
X418276D01*
Y110240D01*
X420886D01*
X420809Y110630D01*
X420305Y111384D01*
X419551Y111887D01*
X418661Y112064D01*
D02*
G37*
G36*
X407260Y113205D02*
Y110240D01*
X410224D01*
X410170Y110654D01*
X409817Y111505D01*
X409256Y112236D01*
X408525Y112797D01*
X407674Y113150D01*
X407260Y113205D01*
D02*
G37*
G36*
X417276Y112064D02*
X416890D01*
X416000Y111887D01*
X415246Y111384D01*
X414743Y110630D01*
X414665Y110240D01*
X417276D01*
Y112064D01*
D02*
G37*
G36*
X89661Y119564D02*
X89276D01*
Y117740D01*
X91886D01*
X91809Y118130D01*
X91305Y118884D01*
X90551Y119387D01*
X89661Y119564D01*
D02*
G37*
G36*
X240000Y157459D02*
X238861Y157309D01*
X237800Y156869D01*
X236889Y156170D01*
X236190Y155259D01*
X235750Y154198D01*
X235600Y153059D01*
Y147941D01*
X235750Y146802D01*
X236190Y145741D01*
X236889Y144830D01*
X236974Y144764D01*
Y135253D01*
X229747Y128026D01*
X105984D01*
X105984Y128026D01*
X105292Y127935D01*
X105201Y127923D01*
X104899Y127798D01*
X104471Y127620D01*
X104325Y127509D01*
X103845Y127140D01*
X103845Y127140D01*
X97240Y120535D01*
X96482Y120435D01*
X95685Y120105D01*
X95000Y119579D01*
X94474Y118894D01*
X94143Y118096D01*
X94031Y117240D01*
X94143Y116384D01*
X94474Y115586D01*
X95000Y114901D01*
X95685Y114375D01*
X96482Y114045D01*
X97339Y113932D01*
X99110D01*
X99966Y114045D01*
X100764Y114375D01*
X101449Y114901D01*
X101975Y115586D01*
X102305Y116384D01*
X102405Y117142D01*
X107238Y121974D01*
X231000D01*
X231783Y122077D01*
X232299Y122291D01*
X232513Y122380D01*
X233140Y122860D01*
X242140Y131860D01*
X242620Y132487D01*
X242709Y132701D01*
X242923Y133217D01*
X243026Y134000D01*
Y144764D01*
X243111Y144830D01*
X243810Y145741D01*
X244250Y146802D01*
X244400Y147941D01*
Y153059D01*
X244250Y154198D01*
X243810Y155259D01*
X243111Y156170D01*
X242200Y156869D01*
X241139Y157309D01*
X240000Y157459D01*
D02*
G37*
G36*
X88276Y119564D02*
X87890D01*
X87000Y119387D01*
X86246Y118884D01*
X85742Y118130D01*
X85665Y117740D01*
X88276D01*
Y119564D01*
D02*
G37*
G36*
X68000Y104563D02*
X64547D01*
Y101307D01*
X68000D01*
Y104563D01*
D02*
G37*
G36*
X72453D02*
X69000D01*
Y101307D01*
X72453D01*
Y104563D01*
D02*
G37*
G36*
X11500Y103000D02*
X8500D01*
Y100000D01*
X11500D01*
Y103000D01*
D02*
G37*
G36*
X15500D02*
X12500D01*
Y100000D01*
X15500D01*
Y103000D01*
D02*
G37*
G36*
X11500Y107000D02*
X8500D01*
Y104000D01*
X11500D01*
Y107000D01*
D02*
G37*
G36*
X410224Y109240D02*
X407260D01*
Y106276D01*
X407674Y106330D01*
X408525Y106683D01*
X409256Y107244D01*
X409817Y107975D01*
X410170Y108826D01*
X410224Y109240D01*
D02*
G37*
G36*
X406260Y113205D02*
X405846Y113150D01*
X404995Y112797D01*
X404264Y112236D01*
X403703Y111505D01*
X403350Y110654D01*
X403296Y110240D01*
X406260D01*
Y113205D01*
D02*
G37*
G36*
X15500Y107000D02*
X12500D01*
Y104000D01*
X15500D01*
Y107000D01*
D02*
G37*
G36*
X406260Y109240D02*
X403296D01*
X403350Y108826D01*
X403703Y107975D01*
X404264Y107244D01*
X404995Y106683D01*
X405846Y106330D01*
X406260Y106276D01*
Y109240D01*
D02*
G37*
G36*
X456500Y147024D02*
X456071Y146967D01*
X455205Y146609D01*
X454462Y146038D01*
X453891Y145295D01*
X453533Y144429D01*
X453476Y144000D01*
X456500D01*
Y147024D01*
D02*
G37*
G36*
X457500D02*
Y144000D01*
X460524D01*
X460467Y144429D01*
X460109Y145295D01*
X459538Y146038D01*
X458795Y146609D01*
X457929Y146967D01*
X457500Y147024D01*
D02*
G37*
G36*
X220000Y157459D02*
X218861Y157309D01*
X217800Y156869D01*
X216889Y156170D01*
X216190Y155259D01*
X215750Y154198D01*
X215600Y153059D01*
Y147941D01*
X215750Y146802D01*
X216190Y145741D01*
X216889Y144830D01*
X217800Y144131D01*
X218861Y143691D01*
X220000Y143541D01*
X221139Y143691D01*
X222200Y144131D01*
X223111Y144830D01*
X223810Y145741D01*
X224250Y146802D01*
X224400Y147941D01*
Y153059D01*
X224250Y154198D01*
X223810Y155259D01*
X223111Y156170D01*
X222200Y156869D01*
X221139Y157309D01*
X220000Y157459D01*
D02*
G37*
G36*
X230000D02*
X228861Y157309D01*
X227800Y156869D01*
X226889Y156170D01*
X226190Y155259D01*
X225750Y154198D01*
X225600Y153059D01*
Y147941D01*
X225750Y146802D01*
X226190Y145741D01*
X226889Y144830D01*
X227800Y144131D01*
X228861Y143691D01*
X230000Y143541D01*
X231139Y143691D01*
X232200Y144131D01*
X233111Y144830D01*
X233810Y145741D01*
X234250Y146802D01*
X234400Y147941D01*
Y153059D01*
X234250Y154198D01*
X233810Y155259D01*
X233111Y156170D01*
X232200Y156869D01*
X231139Y157309D01*
X230000Y157459D01*
D02*
G37*
G36*
X159500Y156421D02*
X156638D01*
Y151000D01*
X159500D01*
Y156421D01*
D02*
G37*
G36*
X163362D02*
X160500D01*
Y151000D01*
X163362D01*
Y156421D01*
D02*
G37*
G36*
X159500Y150000D02*
X156638D01*
Y144579D01*
X159500D01*
Y150000D01*
D02*
G37*
G36*
X163362D02*
X160500D01*
Y144579D01*
X163362D01*
Y150000D01*
D02*
G37*
G36*
X210000Y157459D02*
X208861Y157309D01*
X207800Y156869D01*
X206889Y156170D01*
X206190Y155259D01*
X205750Y154198D01*
X205600Y153059D01*
Y147941D01*
X205750Y146802D01*
X206190Y145741D01*
X206889Y144830D01*
X207800Y144131D01*
X208861Y143691D01*
X210000Y143541D01*
X211139Y143691D01*
X212200Y144131D01*
X213111Y144830D01*
X213810Y145741D01*
X214250Y146802D01*
X214400Y147941D01*
Y153059D01*
X214250Y154198D01*
X213810Y155259D01*
X213111Y156170D01*
X212200Y156869D01*
X211139Y157309D01*
X210000Y157459D01*
D02*
G37*
G36*
X456500Y143000D02*
X453476D01*
X453533Y142571D01*
X453891Y141705D01*
X454462Y140962D01*
X455205Y140391D01*
X456071Y140033D01*
X456500Y139976D01*
Y143000D01*
D02*
G37*
G36*
X460524D02*
X457500D01*
Y139976D01*
X457929Y140033D01*
X458795Y140391D01*
X459538Y140962D01*
X460109Y141705D01*
X460467Y142571D01*
X460524Y143000D01*
D02*
G37*
G36*
X300000Y157459D02*
X298861Y157309D01*
X297800Y156869D01*
X296889Y156170D01*
X296190Y155259D01*
X295750Y154198D01*
X295600Y153059D01*
Y147941D01*
X295750Y146802D01*
X296190Y145741D01*
X296889Y144830D01*
X296974Y144764D01*
Y142000D01*
X297077Y141217D01*
X297291Y140701D01*
X297379Y140487D01*
X297860Y139860D01*
X304360Y133360D01*
X304987Y132879D01*
X305352Y132728D01*
X305717Y132577D01*
X305808Y132565D01*
X306500Y132474D01*
X306500Y132474D01*
X401650D01*
X401791Y132291D01*
X402731Y131569D01*
X403825Y131116D01*
X405000Y130961D01*
X406175Y131116D01*
X407269Y131569D01*
X408209Y132291D01*
X408931Y133231D01*
X409384Y134325D01*
X409539Y135500D01*
X409384Y136675D01*
X408931Y137769D01*
X408209Y138709D01*
X407269Y139431D01*
X406175Y139884D01*
X405000Y140039D01*
X403825Y139884D01*
X402731Y139431D01*
X401791Y138709D01*
X401650Y138526D01*
X307753D01*
X303026Y143253D01*
Y144764D01*
X303111Y144830D01*
X303810Y145741D01*
X304250Y146802D01*
X304400Y147941D01*
Y153059D01*
X304250Y154198D01*
X303810Y155259D01*
X303111Y156170D01*
X302200Y156869D01*
X301139Y157309D01*
X300000Y157459D01*
D02*
G37*
G36*
X461559Y138059D02*
X452441D01*
Y136026D01*
X447905D01*
Y137756D01*
X432094D01*
Y136026D01*
X425996D01*
Y137587D01*
X419004D01*
Y128862D01*
X425996D01*
Y129974D01*
X432094D01*
Y128244D01*
X447905D01*
Y129974D01*
X452441D01*
Y128941D01*
X461559D01*
Y138059D01*
D02*
G37*
G36*
X190000Y157459D02*
X188861Y157309D01*
X187800Y156869D01*
X186889Y156170D01*
X186190Y155259D01*
X185750Y154198D01*
X185600Y153059D01*
Y147941D01*
X185750Y146802D01*
X186190Y145741D01*
X186889Y144830D01*
X187800Y144131D01*
X188861Y143691D01*
X190000Y143541D01*
X191139Y143691D01*
X192200Y144131D01*
X193111Y144830D01*
X193810Y145741D01*
X194250Y146802D01*
X194400Y147941D01*
Y153059D01*
X194250Y154198D01*
X193810Y155259D01*
X193111Y156170D01*
X192200Y156869D01*
X191139Y157309D01*
X190000Y157459D01*
D02*
G37*
G36*
X200000D02*
X198861Y157309D01*
X197800Y156869D01*
X196889Y156170D01*
X196190Y155259D01*
X195750Y154198D01*
X195600Y153059D01*
Y147941D01*
X195750Y146802D01*
X196190Y145741D01*
X196889Y144830D01*
X197800Y144131D01*
X198861Y143691D01*
X200000Y143541D01*
X201139Y143691D01*
X202200Y144131D01*
X203111Y144830D01*
X203810Y145741D01*
X204250Y146802D01*
X204400Y147941D01*
Y153059D01*
X204250Y154198D01*
X203810Y155259D01*
X203111Y156170D01*
X202200Y156869D01*
X201139Y157309D01*
X200000Y157459D01*
D02*
G37*
G36*
X170000D02*
X168861Y157309D01*
X167800Y156869D01*
X166889Y156170D01*
X166190Y155259D01*
X165750Y154198D01*
X165600Y153059D01*
Y147941D01*
X165750Y146802D01*
X166190Y145741D01*
X166889Y144830D01*
X167800Y144131D01*
X168861Y143691D01*
X170000Y143541D01*
X171139Y143691D01*
X172200Y144131D01*
X173111Y144830D01*
X173810Y145741D01*
X174250Y146802D01*
X174400Y147941D01*
Y153059D01*
X174250Y154198D01*
X173810Y155259D01*
X173111Y156170D01*
X172200Y156869D01*
X171139Y157309D01*
X170000Y157459D01*
D02*
G37*
G36*
X180000D02*
X178861Y157309D01*
X177800Y156869D01*
X176889Y156170D01*
X176190Y155259D01*
X175750Y154198D01*
X175600Y153059D01*
Y147941D01*
X175750Y146802D01*
X176190Y145741D01*
X176889Y144830D01*
X177800Y144131D01*
X178861Y143691D01*
X180000Y143541D01*
X181139Y143691D01*
X182200Y144131D01*
X183111Y144830D01*
X183810Y145741D01*
X184250Y146802D01*
X184400Y147941D01*
Y153059D01*
X184250Y154198D01*
X183810Y155259D01*
X183111Y156170D01*
X182200Y156869D01*
X181139Y157309D01*
X180000Y157459D01*
D02*
G37*
G36*
X278193Y67000D02*
X274937D01*
Y63547D01*
X278193D01*
Y67000D01*
D02*
G37*
G36*
X291000Y66457D02*
X287744D01*
Y63595D01*
X291000D01*
Y66457D01*
D02*
G37*
G36*
X161000Y54457D02*
X157744D01*
Y51595D01*
X161000D01*
Y54457D01*
D02*
G37*
G36*
X165256D02*
X162000D01*
Y51595D01*
X165256D01*
Y54457D01*
D02*
G37*
G36*
X407693Y71500D02*
X404437D01*
Y68047D01*
X407693D01*
Y71500D01*
D02*
G37*
G36*
X412500D02*
X409536D01*
X409590Y71086D01*
X409943Y70235D01*
X410504Y69504D01*
X411235Y68943D01*
X412086Y68590D01*
X412500Y68536D01*
Y71500D01*
D02*
G37*
G36*
X295256Y66457D02*
X292000D01*
Y63595D01*
X295256D01*
Y66457D01*
D02*
G37*
G36*
X278193Y71453D02*
X274937D01*
Y68000D01*
X278193D01*
Y71453D01*
D02*
G37*
G36*
X435350Y51059D02*
X432488D01*
Y49063D01*
X435350D01*
Y51059D01*
D02*
G37*
G36*
X236221Y42196D02*
X234671Y42043D01*
X233180Y41591D01*
X231807Y40857D01*
X230603Y39869D01*
X229615Y38665D01*
X228881Y37292D01*
X228429Y35802D01*
X228277Y34252D01*
X228429Y32702D01*
X228881Y31212D01*
X229615Y29839D01*
X230603Y28635D01*
X231807Y27647D01*
X233180Y26913D01*
X234671Y26461D01*
X236221Y26308D01*
X237770Y26461D01*
X239260Y26913D01*
X240634Y27647D01*
X241838Y28635D01*
X242826Y29839D01*
X243560Y31212D01*
X244012Y32702D01*
X244164Y34252D01*
X244012Y35802D01*
X243560Y37292D01*
X242826Y38665D01*
X241838Y39869D01*
X240634Y40857D01*
X239260Y41591D01*
X237770Y42043D01*
X236221Y42196D01*
D02*
G37*
G36*
X419000Y47563D02*
X415547D01*
Y44307D01*
X419000D01*
Y47563D01*
D02*
G37*
G36*
X456000Y14000D02*
X450520D01*
X450587Y13324D01*
X450930Y12193D01*
X451487Y11150D01*
X452237Y10237D01*
X453151Y9487D01*
X454193Y8930D01*
X455324Y8587D01*
X456000Y8520D01*
Y14000D01*
D02*
G37*
G36*
Y20480D02*
X455324Y20413D01*
X454193Y20070D01*
X453151Y19513D01*
X452237Y18763D01*
X451487Y17850D01*
X450930Y16807D01*
X450587Y15676D01*
X450520Y15000D01*
X456000D01*
Y20480D01*
D02*
G37*
G36*
X435350Y48063D02*
X432488D01*
Y46067D01*
X435350D01*
Y48063D01*
D02*
G37*
G36*
X431488Y51059D02*
X428626D01*
Y49063D01*
X431488D01*
Y51059D01*
D02*
G37*
G36*
X423453Y47563D02*
X420000D01*
Y44307D01*
X423453D01*
Y47563D01*
D02*
G37*
G36*
X431488Y48063D02*
X428626D01*
Y46067D01*
X431488D01*
Y48063D01*
D02*
G37*
G36*
X213063Y93453D02*
X209807D01*
Y90000D01*
X213063D01*
Y93453D01*
D02*
G37*
G36*
X199740Y92835D02*
X199351Y92757D01*
X198597Y92254D01*
X198093Y91500D01*
X197916Y90610D01*
Y90224D01*
X199740D01*
Y92835D01*
D02*
G37*
G36*
X274224Y91760D02*
X271614D01*
X271691Y91370D01*
X272195Y90616D01*
X272949Y90113D01*
X273839Y89936D01*
X274224D01*
Y91760D01*
D02*
G37*
G36*
X277835D02*
X275224D01*
Y89936D01*
X275610D01*
X276500Y90113D01*
X277254Y90616D01*
X277758Y91370D01*
X277835Y91760D01*
D02*
G37*
G36*
X89063Y98500D02*
X85807D01*
Y95047D01*
X89063D01*
Y98500D01*
D02*
G37*
G36*
Y102953D02*
X85807D01*
Y99500D01*
X89063D01*
Y102953D01*
D02*
G37*
G36*
X200740Y92835D02*
Y90224D01*
X202564D01*
Y90610D01*
X202387Y91500D01*
X201884Y92254D01*
X201130Y92757D01*
X200740Y92835D01*
D02*
G37*
G36*
X99110Y113068D02*
X97339D01*
X96482Y112955D01*
X95685Y112625D01*
X95000Y112099D01*
X94474Y111414D01*
X94143Y110616D01*
X94031Y109760D01*
X94143Y108904D01*
X94474Y108106D01*
X95000Y107421D01*
X95199Y107268D01*
Y103953D01*
X92681D01*
Y102953D01*
X90063D01*
Y99000D01*
Y95047D01*
X92681D01*
Y94047D01*
X102193D01*
Y95974D01*
X111650D01*
X111791Y95791D01*
X112731Y95069D01*
X113825Y94616D01*
X115000Y94461D01*
X116175Y94616D01*
X117269Y95069D01*
X118209Y95791D01*
X118931Y96731D01*
X119384Y97825D01*
X119539Y99000D01*
X119384Y100175D01*
X118931Y101269D01*
X118209Y102209D01*
X117269Y102931D01*
X116175Y103384D01*
X115000Y103539D01*
X113825Y103384D01*
X112731Y102931D01*
X111791Y102209D01*
X111650Y102026D01*
X102193D01*
Y103953D01*
X101250D01*
Y107268D01*
X101449Y107421D01*
X101975Y108106D01*
X102305Y108904D01*
X102418Y109760D01*
X102305Y110616D01*
X101975Y111414D01*
X101449Y112099D01*
X100764Y112625D01*
X99966Y112955D01*
X99110Y113068D01*
D02*
G37*
G36*
X429693Y90953D02*
X426437D01*
Y87500D01*
X429693D01*
Y90953D01*
D02*
G37*
G36*
X412500Y75464D02*
X412086Y75410D01*
X411235Y75057D01*
X410504Y74496D01*
X409943Y73765D01*
X409590Y72914D01*
X409536Y72500D01*
X412500D01*
Y75464D01*
D02*
G37*
G36*
X413500D02*
Y72500D01*
X416464D01*
X416410Y72914D01*
X416057Y73765D01*
X415496Y74496D01*
X414765Y75057D01*
X413914Y75410D01*
X413500Y75464D01*
D02*
G37*
G36*
X416464Y71500D02*
X413500D01*
Y68536D01*
X413914Y68590D01*
X414765Y68943D01*
X415496Y69504D01*
X416057Y70235D01*
X416410Y71086D01*
X416464Y71500D01*
D02*
G37*
G36*
X407693Y75953D02*
X404437D01*
Y72500D01*
X407693D01*
Y75953D01*
D02*
G37*
G36*
X199740Y89224D02*
X197916D01*
Y88839D01*
X198093Y87949D01*
X198597Y87195D01*
X199351Y86691D01*
X199740Y86614D01*
Y89224D01*
D02*
G37*
G36*
X202564D02*
X200740D01*
Y86614D01*
X201130Y86691D01*
X201884Y87195D01*
X202387Y87949D01*
X202564Y88839D01*
Y89224D01*
D02*
G37*
G36*
X429693Y86500D02*
X426437D01*
Y83047D01*
X429693D01*
Y86500D01*
D02*
G37*
G36*
X213063Y89000D02*
X209807D01*
Y85547D01*
X213063D01*
Y89000D01*
D02*
G37*
G36*
X283921Y292000D02*
X280500D01*
Y288579D01*
X281032Y288649D01*
X281993Y289047D01*
X282819Y289681D01*
X283453Y290507D01*
X283851Y291468D01*
X283921Y292000D01*
D02*
G37*
G36*
X379500D02*
X376079D01*
X376149Y291468D01*
X376547Y290507D01*
X377181Y289681D01*
X378007Y289047D01*
X378968Y288649D01*
X379500Y288579D01*
Y292000D01*
D02*
G37*
G36*
X231421D02*
X228000D01*
Y288579D01*
X228532Y288649D01*
X229493Y289047D01*
X230319Y289681D01*
X230953Y290507D01*
X231351Y291468D01*
X231421Y292000D01*
D02*
G37*
G36*
X279500D02*
X276079D01*
X276149Y291468D01*
X276547Y290507D01*
X277181Y289681D01*
X278007Y289047D01*
X278968Y288649D01*
X279500Y288579D01*
Y292000D01*
D02*
G37*
G36*
X436421D02*
X433000D01*
Y288579D01*
X433532Y288649D01*
X434493Y289047D01*
X435319Y289681D01*
X435953Y290507D01*
X436351Y291468D01*
X436421Y292000D01*
D02*
G37*
G36*
X44500Y295524D02*
X44071Y295467D01*
X43205Y295109D01*
X42462Y294538D01*
X41891Y293795D01*
X41533Y292929D01*
X41476Y292500D01*
X44500D01*
Y295524D01*
D02*
G37*
G36*
X383921Y292000D02*
X380500D01*
Y288579D01*
X381032Y288649D01*
X381993Y289047D01*
X382819Y289681D01*
X383453Y290507D01*
X383851Y291468D01*
X383921Y292000D01*
D02*
G37*
G36*
X432000D02*
X428579D01*
X428649Y291468D01*
X429047Y290507D01*
X429681Y289681D01*
X430507Y289047D01*
X431468Y288649D01*
X432000Y288579D01*
Y292000D01*
D02*
G37*
G36*
X227000D02*
X223579D01*
X223649Y291468D01*
X224047Y290507D01*
X224681Y289681D01*
X225507Y289047D01*
X226468Y288649D01*
X227000Y288579D01*
Y292000D01*
D02*
G37*
G36*
X73500Y291500D02*
X70476D01*
X70533Y291071D01*
X70891Y290205D01*
X71462Y289462D01*
X72205Y288891D01*
X73071Y288533D01*
X73500Y288476D01*
Y291500D01*
D02*
G37*
G36*
X77524D02*
X74500D01*
Y288476D01*
X74929Y288533D01*
X75795Y288891D01*
X76538Y289462D01*
X77109Y290205D01*
X77467Y291071D01*
X77524Y291500D01*
D02*
G37*
G36*
X44500D02*
X41476D01*
X41533Y291071D01*
X41891Y290205D01*
X42462Y289462D01*
X43205Y288891D01*
X44071Y288533D01*
X44500Y288476D01*
Y291500D01*
D02*
G37*
G36*
X48524D02*
X45500D01*
Y288476D01*
X45929Y288533D01*
X46795Y288891D01*
X47538Y289462D01*
X48109Y290205D01*
X48467Y291071D01*
X48524Y291500D01*
D02*
G37*
G36*
X131500D02*
X128476D01*
X128533Y291071D01*
X128891Y290205D01*
X129462Y289462D01*
X130205Y288891D01*
X131071Y288533D01*
X131500Y288476D01*
Y291500D01*
D02*
G37*
G36*
X135524D02*
X132500D01*
Y288476D01*
X132929Y288533D01*
X133795Y288891D01*
X134538Y289462D01*
X135109Y290205D01*
X135467Y291071D01*
X135524Y291500D01*
D02*
G37*
G36*
X102500D02*
X99476D01*
X99533Y291071D01*
X99891Y290205D01*
X100462Y289462D01*
X101205Y288891D01*
X102071Y288533D01*
X102500Y288476D01*
Y291500D01*
D02*
G37*
G36*
X106524D02*
X103500D01*
Y288476D01*
X103929Y288533D01*
X104795Y288891D01*
X105538Y289462D01*
X106109Y290205D01*
X106467Y291071D01*
X106524Y291500D01*
D02*
G37*
G36*
X45500Y295524D02*
Y292500D01*
X48524D01*
X48467Y292929D01*
X48109Y293795D01*
X47538Y294538D01*
X46795Y295109D01*
X45929Y295467D01*
X45500Y295524D01*
D02*
G37*
G36*
X380500Y296421D02*
Y293000D01*
X383921D01*
X383851Y293532D01*
X383453Y294493D01*
X382819Y295319D01*
X381993Y295953D01*
X381032Y296351D01*
X380500Y296421D01*
D02*
G37*
G36*
X432000D02*
X431468Y296351D01*
X430507Y295953D01*
X429681Y295319D01*
X429047Y294493D01*
X428649Y293532D01*
X428579Y293000D01*
X432000D01*
Y296421D01*
D02*
G37*
G36*
X280500D02*
Y293000D01*
X283921D01*
X283851Y293532D01*
X283453Y294493D01*
X282819Y295319D01*
X281993Y295953D01*
X281032Y296351D01*
X280500Y296421D01*
D02*
G37*
G36*
X379500D02*
X378968Y296351D01*
X378007Y295953D01*
X377181Y295319D01*
X376547Y294493D01*
X376149Y293532D01*
X376079Y293000D01*
X379500D01*
Y296421D01*
D02*
G37*
G36*
X270000Y297496D02*
X268707Y297325D01*
X267502Y296826D01*
X266468Y296032D01*
X265674Y294998D01*
X265271Y294024D01*
X264729D01*
X264326Y294998D01*
X263532Y296032D01*
X262498Y296826D01*
X261293Y297325D01*
X260000Y297496D01*
X258707Y297325D01*
X257502Y296826D01*
X256468Y296032D01*
X255674Y294998D01*
X255453Y294464D01*
X254953Y294564D01*
Y297453D01*
X245047D01*
Y291827D01*
X238860Y285640D01*
X238380Y285013D01*
X238291Y284799D01*
X238077Y284283D01*
X237974Y283500D01*
Y274753D01*
X187860Y224640D01*
X187380Y224013D01*
X187291Y223799D01*
X187077Y223283D01*
X186974Y222500D01*
Y216236D01*
X186889Y216170D01*
X186190Y215259D01*
X185750Y214198D01*
X185600Y213059D01*
Y207941D01*
X185750Y206802D01*
X186190Y205741D01*
X186889Y204830D01*
X187800Y204131D01*
X188861Y203691D01*
X190000Y203541D01*
X191139Y203691D01*
X192200Y204131D01*
X193111Y204830D01*
X193810Y205741D01*
X194250Y206802D01*
X194400Y207941D01*
Y213059D01*
X194250Y214198D01*
X193810Y215259D01*
X193111Y216170D01*
X193026Y216236D01*
Y221247D01*
X243140Y271360D01*
X243620Y271987D01*
X243923Y272717D01*
X244026Y273500D01*
Y282247D01*
X249326Y287547D01*
X254953D01*
Y290436D01*
X255453Y290536D01*
X255674Y290002D01*
X256468Y288968D01*
X256974Y288579D01*
Y275953D01*
X255181D01*
Y274953D01*
X252563D01*
Y271000D01*
Y267047D01*
X254561D01*
X254768Y266547D01*
X207860Y219640D01*
X207380Y219013D01*
X207291Y218799D01*
X207077Y218283D01*
X206974Y217500D01*
Y216236D01*
X206889Y216170D01*
X206190Y215259D01*
X205750Y214198D01*
X205600Y213059D01*
Y207941D01*
X205750Y206802D01*
X206190Y205741D01*
X206889Y204830D01*
X207800Y204131D01*
X208861Y203691D01*
X210000Y203541D01*
X211139Y203691D01*
X212200Y204131D01*
X213111Y204830D01*
X213810Y205741D01*
X214250Y206802D01*
X214400Y207941D01*
Y213059D01*
X214250Y214198D01*
X213810Y215259D01*
X213111Y216170D01*
X213376Y216597D01*
X262077Y265297D01*
X262558Y265924D01*
X262609Y266047D01*
X264693D01*
Y275953D01*
X263026D01*
Y288579D01*
X263532Y288968D01*
X264326Y290002D01*
X264729Y290976D01*
X265271D01*
X265674Y290002D01*
X266468Y288968D01*
X266974Y288579D01*
Y275953D01*
X265307D01*
Y266047D01*
X274819D01*
Y267047D01*
X277437D01*
Y271000D01*
Y274953D01*
X274819D01*
Y275953D01*
X273026D01*
Y288579D01*
X273532Y288968D01*
X274326Y290002D01*
X274825Y291207D01*
X274995Y292500D01*
X274825Y293793D01*
X274326Y294998D01*
X273532Y296032D01*
X272498Y296826D01*
X271293Y297325D01*
X270000Y297496D01*
D02*
G37*
G36*
X370000D02*
X368707Y297325D01*
X367502Y296826D01*
X366468Y296032D01*
X365674Y294998D01*
X365271Y294024D01*
X364729D01*
X364326Y294998D01*
X363532Y296032D01*
X362498Y296826D01*
X361293Y297325D01*
X360000Y297496D01*
X358707Y297325D01*
X357502Y296826D01*
X356468Y296032D01*
X355674Y294998D01*
X355453Y294464D01*
X354953Y294564D01*
Y297453D01*
X345047D01*
Y291827D01*
X335360Y282140D01*
X334879Y281513D01*
X334791Y281299D01*
X334577Y280783D01*
X334474Y280000D01*
Y269753D01*
X327247Y262526D01*
X274500D01*
X274500Y262526D01*
X273808Y262435D01*
X273717Y262423D01*
X273352Y262272D01*
X272987Y262121D01*
X272360Y261640D01*
X237860Y227140D01*
X237380Y226513D01*
X237291Y226299D01*
X237077Y225783D01*
X236974Y225000D01*
Y216236D01*
X236889Y216170D01*
X236190Y215259D01*
X235750Y214198D01*
X235600Y213059D01*
Y207941D01*
X235750Y206802D01*
X236190Y205741D01*
X236889Y204830D01*
X237800Y204131D01*
X238861Y203691D01*
X240000Y203541D01*
X241139Y203691D01*
X242200Y204131D01*
X243111Y204830D01*
X243810Y205741D01*
X244250Y206802D01*
X244400Y207941D01*
Y213059D01*
X244250Y214198D01*
X243810Y215259D01*
X243111Y216170D01*
X243026Y216236D01*
Y223747D01*
X275753Y256474D01*
X328500D01*
X329283Y256577D01*
X329799Y256791D01*
X330013Y256879D01*
X330640Y257360D01*
X339640Y266360D01*
X340121Y266987D01*
X340209Y267201D01*
X340423Y267717D01*
X340526Y268500D01*
Y278747D01*
X349326Y287547D01*
X354953D01*
Y290436D01*
X355453Y290536D01*
X355674Y290002D01*
X356468Y288968D01*
X356974Y288579D01*
Y275953D01*
X355181D01*
Y274953D01*
X352563D01*
Y271000D01*
Y267047D01*
X355181D01*
Y266047D01*
X356911D01*
Y260690D01*
X351247Y255026D01*
X297000D01*
X296217Y254923D01*
X295487Y254621D01*
X294860Y254140D01*
X277860Y237140D01*
X277379Y236513D01*
X277291Y236299D01*
X277077Y235783D01*
X276974Y235000D01*
Y216236D01*
X276889Y216170D01*
X276190Y215259D01*
X275750Y214198D01*
X275600Y213059D01*
Y207941D01*
X275750Y206802D01*
X276190Y205741D01*
X276889Y204830D01*
X277800Y204131D01*
X278861Y203691D01*
X280000Y203541D01*
X281139Y203691D01*
X282200Y204131D01*
X283111Y204830D01*
X283810Y205741D01*
X284250Y206802D01*
X284400Y207941D01*
Y213059D01*
X284250Y214198D01*
X283810Y215259D01*
X283111Y216170D01*
X283026Y216236D01*
Y233747D01*
X298253Y248974D01*
X352500D01*
X353283Y249077D01*
X353799Y249291D01*
X354013Y249379D01*
X354640Y249860D01*
X362077Y257297D01*
X362558Y257924D01*
X362860Y258654D01*
X362963Y259437D01*
Y266047D01*
X364693D01*
Y275953D01*
X363026D01*
Y288579D01*
X363532Y288968D01*
X364326Y290002D01*
X364729Y290976D01*
X365271D01*
X365674Y290002D01*
X366468Y288968D01*
X366974Y288579D01*
Y275953D01*
X365307D01*
Y266047D01*
X374819D01*
Y267047D01*
X377437D01*
Y271000D01*
Y274953D01*
X374819D01*
Y275953D01*
X373026D01*
Y288579D01*
X373532Y288968D01*
X374326Y290002D01*
X374825Y291207D01*
X374995Y292500D01*
X374825Y293793D01*
X374326Y294998D01*
X373532Y296032D01*
X372498Y296826D01*
X371293Y297325D01*
X370000Y297496D01*
D02*
G37*
G36*
X433000Y296421D02*
Y293000D01*
X436421D01*
X436351Y293532D01*
X435953Y294493D01*
X435319Y295319D01*
X434493Y295953D01*
X433532Y296351D01*
X433000Y296421D01*
D02*
G37*
G36*
X217500Y297496D02*
X216207Y297325D01*
X215002Y296826D01*
X213968Y296032D01*
X213174Y294998D01*
X212771Y294024D01*
X212229D01*
X211826Y294998D01*
X211032Y296032D01*
X209998Y296826D01*
X208793Y297325D01*
X207500Y297496D01*
X206207Y297325D01*
X205002Y296826D01*
X203968Y296032D01*
X203174Y294998D01*
X202953Y294464D01*
X202453Y294564D01*
Y297453D01*
X192547D01*
Y291827D01*
X186360Y285640D01*
X185880Y285013D01*
X185791Y284799D01*
X185577Y284283D01*
X185474Y283500D01*
Y259253D01*
X167860Y241640D01*
X167379Y241013D01*
X167291Y240799D01*
X167077Y240283D01*
X166974Y239500D01*
Y216236D01*
X166889Y216170D01*
X166190Y215259D01*
X165750Y214198D01*
X165600Y213059D01*
Y207941D01*
X165750Y206802D01*
X166190Y205741D01*
X166889Y204830D01*
X167800Y204131D01*
X168861Y203691D01*
X170000Y203541D01*
X171139Y203691D01*
X172200Y204131D01*
X173111Y204830D01*
X173810Y205741D01*
X174250Y206802D01*
X174400Y207941D01*
Y213059D01*
X174250Y214198D01*
X173810Y215259D01*
X173111Y216170D01*
X173026Y216236D01*
Y238247D01*
X190640Y255860D01*
X191121Y256487D01*
X191423Y257217D01*
X191526Y258000D01*
Y282247D01*
X196827Y287547D01*
X202453D01*
Y290436D01*
X202953Y290536D01*
X203174Y290002D01*
X203968Y288968D01*
X204474Y288579D01*
Y275953D01*
X202681D01*
Y274953D01*
X200063D01*
Y271000D01*
Y267047D01*
X202681D01*
Y266047D01*
X204411D01*
Y263190D01*
X177860Y236640D01*
X177380Y236013D01*
X177291Y235799D01*
X177077Y235283D01*
X176974Y234500D01*
Y216236D01*
X176889Y216170D01*
X176190Y215259D01*
X175750Y214198D01*
X175600Y213059D01*
Y207941D01*
X175750Y206802D01*
X176190Y205741D01*
X176889Y204830D01*
X177800Y204131D01*
X178861Y203691D01*
X180000Y203541D01*
X181139Y203691D01*
X182200Y204131D01*
X183111Y204830D01*
X183810Y205741D01*
X184250Y206802D01*
X184400Y207941D01*
Y213059D01*
X184250Y214198D01*
X183810Y215259D01*
X183111Y216170D01*
X183026Y216236D01*
Y233247D01*
X209577Y259797D01*
X210057Y260424D01*
X210360Y261154D01*
X210463Y261937D01*
Y266047D01*
X212193D01*
Y275953D01*
X210526D01*
Y288579D01*
X211032Y288968D01*
X211826Y290002D01*
X212229Y290976D01*
X212771D01*
X213174Y290002D01*
X213968Y288968D01*
X214474Y288579D01*
Y275953D01*
X212807D01*
Y266047D01*
X222319D01*
Y267047D01*
X224937D01*
Y271000D01*
Y274953D01*
X222319D01*
Y275953D01*
X220526D01*
Y288579D01*
X221032Y288968D01*
X221826Y290002D01*
X222325Y291207D01*
X222496Y292500D01*
X222325Y293793D01*
X221826Y294998D01*
X221032Y296032D01*
X219998Y296826D01*
X218793Y297325D01*
X217500Y297496D01*
D02*
G37*
G36*
X279500Y296421D02*
X278968Y296351D01*
X278007Y295953D01*
X277181Y295319D01*
X276547Y294493D01*
X276149Y293532D01*
X276079Y293000D01*
X279500D01*
Y296421D01*
D02*
G37*
G36*
X102500Y295524D02*
X102071Y295467D01*
X101205Y295109D01*
X100462Y294538D01*
X99891Y293795D01*
X99533Y292929D01*
X99476Y292500D01*
X102500D01*
Y295524D01*
D02*
G37*
G36*
X103500D02*
Y292500D01*
X106524D01*
X106467Y292929D01*
X106109Y293795D01*
X105538Y294538D01*
X104795Y295109D01*
X103929Y295467D01*
X103500Y295524D01*
D02*
G37*
G36*
X73500D02*
X73071Y295467D01*
X72205Y295109D01*
X71462Y294538D01*
X70891Y293795D01*
X70533Y292929D01*
X70476Y292500D01*
X73500D01*
Y295524D01*
D02*
G37*
G36*
X74500D02*
Y292500D01*
X77524D01*
X77467Y292929D01*
X77109Y293795D01*
X76538Y294538D01*
X75795Y295109D01*
X74929Y295467D01*
X74500Y295524D01*
D02*
G37*
G36*
X227000Y296421D02*
X226468Y296351D01*
X225507Y295953D01*
X224681Y295319D01*
X224047Y294493D01*
X223649Y293532D01*
X223579Y293000D01*
X227000D01*
Y296421D01*
D02*
G37*
G36*
X228000D02*
Y293000D01*
X231421D01*
X231351Y293532D01*
X230953Y294493D01*
X230319Y295319D01*
X229493Y295953D01*
X228532Y296351D01*
X228000Y296421D01*
D02*
G37*
G36*
X131500Y295524D02*
X131071Y295467D01*
X130205Y295109D01*
X129462Y294538D01*
X128891Y293795D01*
X128533Y292929D01*
X128476Y292500D01*
X131500D01*
Y295524D01*
D02*
G37*
G36*
X132500D02*
Y292500D01*
X135524D01*
X135467Y292929D01*
X135109Y293795D01*
X134538Y294538D01*
X133795Y295109D01*
X132929Y295467D01*
X132500Y295524D01*
D02*
G37*
G36*
X300000Y217459D02*
X298861Y217309D01*
X297800Y216869D01*
X296889Y216170D01*
X296190Y215259D01*
X295750Y214198D01*
X295600Y213059D01*
Y207941D01*
X295750Y206802D01*
X296190Y205741D01*
X296889Y204830D01*
X297800Y204131D01*
X298861Y203691D01*
X300000Y203541D01*
X301139Y203691D01*
X302200Y204131D01*
X303111Y204830D01*
X303810Y205741D01*
X304250Y206802D01*
X304400Y207941D01*
Y213059D01*
X304250Y214198D01*
X303810Y215259D01*
X303111Y216170D01*
X302200Y216869D01*
X301139Y217309D01*
X300000Y217459D01*
D02*
G37*
G36*
X437000Y241526D02*
X406000D01*
X405217Y241423D01*
X404701Y241209D01*
X404487Y241121D01*
X403860Y240640D01*
X397860Y234640D01*
X397379Y234013D01*
X397291Y233799D01*
X397077Y233283D01*
X396974Y232500D01*
Y219253D01*
X391310Y213589D01*
X330953D01*
Y215319D01*
X329953D01*
Y217937D01*
X322047D01*
Y215319D01*
X321047D01*
Y213526D01*
X314338D01*
X314250Y214198D01*
X313810Y215259D01*
X313111Y216170D01*
X312200Y216869D01*
X311139Y217309D01*
X310000Y217459D01*
X308861Y217309D01*
X307800Y216869D01*
X306889Y216170D01*
X306190Y215259D01*
X305750Y214198D01*
X305600Y213059D01*
Y207941D01*
X305750Y206802D01*
X306190Y205741D01*
X306889Y204830D01*
X307800Y204131D01*
X308861Y203691D01*
X310000Y203541D01*
X311139Y203691D01*
X312200Y204131D01*
X313111Y204830D01*
X313810Y205741D01*
X314250Y206802D01*
X314338Y207474D01*
X321047D01*
Y205807D01*
X330953D01*
Y207537D01*
X392563D01*
X393346Y207640D01*
X394076Y207943D01*
X394703Y208423D01*
X402140Y215860D01*
X402621Y216487D01*
X402923Y217217D01*
X403026Y218000D01*
Y231247D01*
X407253Y235474D01*
X435747D01*
X440474Y230747D01*
Y215234D01*
X439791Y214709D01*
X439069Y213769D01*
X438616Y212675D01*
X438461Y211500D01*
X438550Y210829D01*
X432747Y205026D01*
X430421D01*
X430032Y205532D01*
X429526Y205921D01*
Y217047D01*
X430693D01*
Y226953D01*
X421181D01*
Y225953D01*
X418563D01*
Y222000D01*
Y218047D01*
X421181D01*
Y217047D01*
X423474D01*
Y205921D01*
X422968Y205532D01*
X422174Y204498D01*
X421675Y203293D01*
X421504Y202000D01*
X421675Y200707D01*
X422174Y199502D01*
X422968Y198468D01*
X424002Y197674D01*
X424976Y197271D01*
Y196729D01*
X424002Y196326D01*
X422968Y195532D01*
X422174Y194498D01*
X421771Y193524D01*
X421229D01*
X420826Y194498D01*
X420032Y195532D01*
X418998Y196326D01*
X417793Y196825D01*
X416500Y196995D01*
X415207Y196825D01*
X414002Y196326D01*
X412968Y195532D01*
X412174Y194498D01*
X411675Y193293D01*
X411505Y192000D01*
X411675Y190707D01*
X412174Y189502D01*
X412968Y188468D01*
X414002Y187674D01*
X414976Y187271D01*
Y186729D01*
X414002Y186326D01*
X412968Y185532D01*
X412174Y184498D01*
X411675Y183293D01*
X411505Y182000D01*
X411675Y180707D01*
X412174Y179502D01*
X412968Y178468D01*
X414002Y177674D01*
X414976Y177271D01*
Y176729D01*
X414002Y176326D01*
X412968Y175532D01*
X412174Y174498D01*
X411675Y173293D01*
X411505Y172000D01*
X411675Y170707D01*
X412174Y169502D01*
X412968Y168468D01*
X414002Y167674D01*
X415207Y167175D01*
X416500Y167005D01*
X417793Y167175D01*
X418998Y167674D01*
X420032Y168468D01*
X420826Y169502D01*
X421229Y170476D01*
X421771D01*
X422174Y169502D01*
X422968Y168468D01*
X424002Y167674D01*
X425207Y167175D01*
X426500Y167005D01*
X427793Y167175D01*
X428998Y167674D01*
X430032Y168468D01*
X430826Y169502D01*
X431325Y170707D01*
X431496Y172000D01*
X431325Y173293D01*
X430826Y174498D01*
X430032Y175532D01*
X428998Y176326D01*
X428024Y176729D01*
Y177271D01*
X428998Y177674D01*
X430032Y178468D01*
X430421Y178974D01*
X435747D01*
X439474Y175247D01*
Y169253D01*
X436247Y166026D01*
X310753D01*
X281640Y195140D01*
X281013Y195621D01*
X280799Y195709D01*
X280283Y195923D01*
X279500Y196026D01*
X267253D01*
X263026Y200253D01*
Y204764D01*
X263111Y204830D01*
X263810Y205741D01*
X264250Y206802D01*
X264400Y207941D01*
Y213059D01*
X264250Y214198D01*
X263810Y215259D01*
X263111Y216170D01*
X262200Y216869D01*
X261139Y217309D01*
X260000Y217459D01*
X258861Y217309D01*
X257800Y216869D01*
X256889Y216170D01*
X256190Y215259D01*
X255750Y214198D01*
X255600Y213059D01*
Y207941D01*
X255750Y206802D01*
X256190Y205741D01*
X256889Y204830D01*
X256974Y204764D01*
Y199000D01*
X257077Y198217D01*
X257291Y197701D01*
X257380Y197487D01*
X257860Y196860D01*
X263860Y190860D01*
X264487Y190380D01*
X264701Y190291D01*
X265217Y190077D01*
X266000Y189974D01*
X278247D01*
X307360Y160860D01*
X307987Y160380D01*
X308717Y160077D01*
X308808Y160065D01*
X309500Y159974D01*
X309500Y159974D01*
X437500D01*
X438283Y160077D01*
X438799Y160291D01*
X439013Y160380D01*
X439640Y160860D01*
X444640Y165860D01*
X445120Y166487D01*
X445272Y166852D01*
X445423Y167217D01*
X445435Y167308D01*
X445526Y168000D01*
X445526Y168000D01*
Y176500D01*
X445423Y177283D01*
X445120Y178013D01*
X444912Y178285D01*
X444640Y178640D01*
X444640Y178640D01*
X439140Y184140D01*
X438513Y184620D01*
X438299Y184709D01*
X437783Y184923D01*
X437000Y185026D01*
X430421D01*
X430032Y185532D01*
X428998Y186326D01*
X428024Y186729D01*
Y187271D01*
X428998Y187674D01*
X430032Y188468D01*
X430826Y189502D01*
X431325Y190707D01*
X431496Y192000D01*
X431325Y193293D01*
X430826Y194498D01*
X430032Y195532D01*
X428998Y196326D01*
X428024Y196729D01*
Y197271D01*
X428998Y197674D01*
X430032Y198468D01*
X430421Y198974D01*
X434000D01*
X434783Y199077D01*
X435299Y199291D01*
X435513Y199380D01*
X436140Y199860D01*
X443277Y206998D01*
X444175Y207116D01*
X445269Y207569D01*
X446209Y208291D01*
X446931Y209231D01*
X447384Y210325D01*
X447539Y211500D01*
X447384Y212675D01*
X446931Y213769D01*
X446526Y214297D01*
Y232000D01*
X446526Y232000D01*
X446435Y232692D01*
X446423Y232783D01*
X446272Y233148D01*
X446121Y233513D01*
X445640Y234140D01*
X439140Y240640D01*
X438513Y241121D01*
X438299Y241209D01*
X437783Y241423D01*
X437000Y241526D01*
D02*
G37*
G36*
X250000Y217459D02*
X248861Y217309D01*
X247800Y216869D01*
X246889Y216170D01*
X246190Y215259D01*
X245750Y214198D01*
X245600Y213059D01*
Y207941D01*
X245750Y206802D01*
X246190Y205741D01*
X246889Y204830D01*
X247800Y204131D01*
X248861Y203691D01*
X250000Y203541D01*
X251139Y203691D01*
X252200Y204131D01*
X253111Y204830D01*
X253810Y205741D01*
X254250Y206802D01*
X254400Y207941D01*
Y213059D01*
X254250Y214198D01*
X253810Y215259D01*
X253111Y216170D01*
X252200Y216869D01*
X251139Y217309D01*
X250000Y217459D01*
D02*
G37*
G36*
X270000D02*
X268861Y217309D01*
X267800Y216869D01*
X266889Y216170D01*
X266190Y215259D01*
X265750Y214198D01*
X265600Y213059D01*
Y207941D01*
X265750Y206802D01*
X266190Y205741D01*
X266889Y204830D01*
X267800Y204131D01*
X268861Y203691D01*
X270000Y203541D01*
X271139Y203691D01*
X272200Y204131D01*
X273111Y204830D01*
X273810Y205741D01*
X274250Y206802D01*
X274400Y207941D01*
Y213059D01*
X274250Y214198D01*
X273810Y215259D01*
X273111Y216170D01*
X272200Y216869D01*
X271139Y217309D01*
X270000Y217459D01*
D02*
G37*
G36*
X329953Y222193D02*
X326500D01*
Y218937D01*
X329953D01*
Y222193D01*
D02*
G37*
G36*
X417563Y225953D02*
X414307D01*
Y222500D01*
X417563D01*
Y225953D01*
D02*
G37*
G36*
Y221500D02*
X414307D01*
Y218047D01*
X417563D01*
Y221500D01*
D02*
G37*
G36*
X325500Y222193D02*
X322047D01*
Y218937D01*
X325500D01*
Y222193D01*
D02*
G37*
G36*
X230000Y217459D02*
X228861Y217309D01*
X227800Y216869D01*
X226889Y216170D01*
X226190Y215259D01*
X225750Y214198D01*
X225600Y213059D01*
Y207941D01*
X225750Y206802D01*
X226190Y205741D01*
X226889Y204830D01*
X227800Y204131D01*
X228861Y203691D01*
X230000Y203541D01*
X231139Y203691D01*
X232200Y204131D01*
X233111Y204830D01*
X233810Y205741D01*
X234250Y206802D01*
X234400Y207941D01*
Y213059D01*
X234250Y214198D01*
X233810Y215259D01*
X233111Y216170D01*
X232200Y216869D01*
X231139Y217309D01*
X230000Y217459D01*
D02*
G37*
G36*
X420453Y201500D02*
X417000D01*
Y198047D01*
X420453D01*
Y201500D01*
D02*
G37*
G36*
X416000Y205953D02*
X412547D01*
Y202500D01*
X416000D01*
Y205953D01*
D02*
G37*
G36*
X126559Y296559D02*
X117441D01*
Y287441D01*
X118974D01*
Y271406D01*
X117244D01*
Y262681D01*
Y255594D01*
X118974D01*
Y203500D01*
X118974Y203500D01*
X119077Y202717D01*
X119379Y201987D01*
X119860Y201360D01*
X142360Y178860D01*
X142360Y178860D01*
X142632Y178652D01*
X142796Y178526D01*
X142627Y178026D01*
X124753D01*
X95526Y207253D01*
Y255594D01*
X97256D01*
Y262681D01*
Y271406D01*
X95526D01*
Y287441D01*
X97559D01*
Y296559D01*
X88441D01*
Y287441D01*
X89474D01*
Y271406D01*
X87744D01*
Y262681D01*
Y255594D01*
X89474D01*
Y206000D01*
X89577Y205217D01*
X89880Y204487D01*
X90360Y203860D01*
X121360Y172860D01*
X121360Y172860D01*
X121987Y172380D01*
X122717Y172077D01*
X123107Y172026D01*
X123074Y171526D01*
X102753D01*
X67026Y207253D01*
Y255594D01*
X68756D01*
Y262681D01*
Y271406D01*
X67026D01*
Y287441D01*
X68559D01*
Y296559D01*
X59441D01*
Y287441D01*
X60974D01*
Y271406D01*
X59244D01*
Y262681D01*
Y255594D01*
X60974D01*
Y206000D01*
X61077Y205217D01*
X61379Y204487D01*
X61860Y203860D01*
X99360Y166360D01*
X99360Y166360D01*
X99715Y166088D01*
X99796Y166026D01*
X99626Y165526D01*
X74253D01*
X38026Y201753D01*
Y255594D01*
X39756D01*
Y262681D01*
Y271406D01*
X38026D01*
Y287441D01*
X39559D01*
Y296559D01*
X30441D01*
Y287441D01*
X31974D01*
Y271406D01*
X30244D01*
Y262681D01*
Y255594D01*
X31974D01*
Y200500D01*
X32077Y199717D01*
X32379Y198987D01*
X32860Y198360D01*
X70860Y160360D01*
X71487Y159880D01*
X72217Y159577D01*
X73000Y159474D01*
X245247D01*
X246974Y157747D01*
Y156236D01*
X246889Y156170D01*
X246190Y155259D01*
X245750Y154198D01*
X245600Y153059D01*
Y147941D01*
X245750Y146802D01*
X246190Y145741D01*
X246889Y144830D01*
X247800Y144131D01*
X248861Y143691D01*
X250000Y143541D01*
X251139Y143691D01*
X252200Y144131D01*
X253111Y144830D01*
X253810Y145741D01*
X254250Y146802D01*
X254400Y147941D01*
Y153059D01*
X254250Y154198D01*
X253810Y155259D01*
X253111Y156170D01*
X253026Y156236D01*
Y159000D01*
X253026Y159000D01*
X252935Y159692D01*
X252923Y159783D01*
X252772Y160148D01*
X252621Y160513D01*
X252140Y161140D01*
X248640Y164640D01*
X248204Y164974D01*
X248374Y165474D01*
X253247D01*
X256974Y161747D01*
Y156236D01*
X256889Y156170D01*
X256190Y155259D01*
X255750Y154198D01*
X255600Y153059D01*
Y147941D01*
X255750Y146802D01*
X256190Y145741D01*
X256889Y144830D01*
X257800Y144131D01*
X258861Y143691D01*
X260000Y143541D01*
X261139Y143691D01*
X262200Y144131D01*
X263111Y144830D01*
X263810Y145741D01*
X264250Y146802D01*
X264400Y147941D01*
Y153059D01*
X264250Y154198D01*
X263810Y155259D01*
X263111Y156170D01*
X263026Y156236D01*
Y163000D01*
X262923Y163783D01*
X262620Y164513D01*
X262412Y164785D01*
X262140Y165140D01*
X262140Y165140D01*
X256640Y170640D01*
X256013Y171121D01*
X255799Y171209D01*
X255283Y171423D01*
X254893Y171474D01*
X254926Y171974D01*
X261747D01*
X266974Y166747D01*
Y156236D01*
X266889Y156170D01*
X266190Y155259D01*
X265750Y154198D01*
X265600Y153059D01*
Y147941D01*
X265750Y146802D01*
X266190Y145741D01*
X266889Y144830D01*
X267800Y144131D01*
X268861Y143691D01*
X270000Y143541D01*
X271139Y143691D01*
X272200Y144131D01*
X273111Y144830D01*
X273810Y145741D01*
X274250Y146802D01*
X274400Y147941D01*
Y153059D01*
X274250Y154198D01*
X273810Y155259D01*
X273111Y156170D01*
X273026Y156236D01*
Y168000D01*
X272923Y168783D01*
X272621Y169513D01*
X272412Y169785D01*
X272140Y170140D01*
X272140Y170140D01*
X265140Y177140D01*
X264704Y177474D01*
X264874Y177974D01*
X268747D01*
X276974Y169747D01*
Y156236D01*
X276889Y156170D01*
X276190Y155259D01*
X275750Y154198D01*
X275600Y153059D01*
Y147941D01*
X275750Y146802D01*
X276190Y145741D01*
X276889Y144830D01*
X277800Y144131D01*
X278861Y143691D01*
X280000Y143541D01*
X281139Y143691D01*
X282200Y144131D01*
X283111Y144830D01*
X283810Y145741D01*
X284250Y146802D01*
X284400Y147941D01*
Y153059D01*
X284250Y154198D01*
X283810Y155259D01*
X283111Y156170D01*
X283026Y156236D01*
Y171000D01*
X283026Y171000D01*
X282923Y171783D01*
X282621Y172513D01*
X282348Y172868D01*
X282140Y173140D01*
X282140Y173140D01*
X272140Y183140D01*
X271513Y183621D01*
X271299Y183709D01*
X270783Y183923D01*
X270000Y184026D01*
X145753D01*
X125026Y204753D01*
Y255594D01*
X126756D01*
Y262681D01*
Y271406D01*
X125026D01*
Y287441D01*
X126559D01*
Y296559D01*
D02*
G37*
G36*
X416000Y201500D02*
X412547D01*
Y198047D01*
X416000D01*
Y201500D01*
D02*
G37*
G36*
X200000Y217459D02*
X198861Y217309D01*
X197800Y216869D01*
X196889Y216170D01*
X196190Y215259D01*
X195750Y214198D01*
X195600Y213059D01*
Y207941D01*
X195750Y206802D01*
X196190Y205741D01*
X196889Y204830D01*
X197800Y204131D01*
X198861Y203691D01*
X200000Y203541D01*
X201139Y203691D01*
X202200Y204131D01*
X203111Y204830D01*
X203810Y205741D01*
X204250Y206802D01*
X204400Y207941D01*
Y213059D01*
X204250Y214198D01*
X203810Y215259D01*
X203111Y216170D01*
X202200Y216869D01*
X201139Y217309D01*
X200000Y217459D01*
D02*
G37*
G36*
X220000D02*
X218861Y217309D01*
X217800Y216869D01*
X216889Y216170D01*
X216190Y215259D01*
X215750Y214198D01*
X215600Y213059D01*
Y207941D01*
X215750Y206802D01*
X216190Y205741D01*
X216889Y204830D01*
X217800Y204131D01*
X218861Y203691D01*
X220000Y203541D01*
X221139Y203691D01*
X222200Y204131D01*
X223111Y204830D01*
X223810Y205741D01*
X224250Y206802D01*
X224400Y207941D01*
Y213059D01*
X224250Y214198D01*
X223810Y215259D01*
X223111Y216170D01*
X222200Y216869D01*
X221139Y217309D01*
X220000Y217459D01*
D02*
G37*
G36*
X420453Y205953D02*
X417000D01*
Y202500D01*
X420453D01*
Y205953D01*
D02*
G37*
G36*
X160000Y217459D02*
X158861Y217309D01*
X157800Y216869D01*
X156889Y216170D01*
X156190Y215259D01*
X155750Y214198D01*
X155600Y213059D01*
Y207941D01*
X155750Y206802D01*
X156190Y205741D01*
X156889Y204830D01*
X157800Y204131D01*
X158861Y203691D01*
X160000Y203541D01*
X161139Y203691D01*
X162200Y204131D01*
X163111Y204830D01*
X163810Y205741D01*
X164250Y206802D01*
X164400Y207941D01*
Y213059D01*
X164250Y214198D01*
X163810Y215259D01*
X163111Y216170D01*
X162200Y216869D01*
X161139Y217309D01*
X160000Y217459D01*
D02*
G37*
G36*
X199063Y270500D02*
X195807D01*
Y267047D01*
X199063D01*
Y270500D01*
D02*
G37*
G36*
X351563Y274953D02*
X348307D01*
Y271500D01*
X351563D01*
Y274953D01*
D02*
G37*
G36*
X381693D02*
X378437D01*
Y271500D01*
X381693D01*
Y274953D01*
D02*
G37*
G36*
X251563D02*
X248307D01*
Y271500D01*
X251563D01*
Y274953D01*
D02*
G37*
G36*
X281693D02*
X278437D01*
Y271500D01*
X281693D01*
Y274953D01*
D02*
G37*
G36*
X162598Y288652D02*
X161049Y288500D01*
X159558Y288048D01*
X158185Y287314D01*
X156981Y286326D01*
X155993Y285122D01*
X155259Y283749D01*
X154807Y282258D01*
X154655Y280709D01*
X154807Y279159D01*
X155259Y277669D01*
X155993Y276295D01*
X156981Y275092D01*
X158185Y274104D01*
X159558Y273370D01*
X161049Y272918D01*
X162598Y272765D01*
X164148Y272918D01*
X165638Y273370D01*
X167012Y274104D01*
X168216Y275092D01*
X169203Y276295D01*
X169938Y277669D01*
X170390Y279159D01*
X170542Y280709D01*
X170390Y282258D01*
X169938Y283749D01*
X169203Y285122D01*
X168216Y286326D01*
X167012Y287314D01*
X165638Y288048D01*
X164148Y288500D01*
X162598Y288652D01*
D02*
G37*
G36*
X309842D02*
X308293Y288500D01*
X306803Y288048D01*
X305429Y287314D01*
X304225Y286326D01*
X303238Y285122D01*
X302503Y283749D01*
X302051Y282258D01*
X301899Y280709D01*
X302051Y279159D01*
X302503Y277669D01*
X303238Y276295D01*
X304225Y275092D01*
X305429Y274104D01*
X306803Y273370D01*
X308293Y272918D01*
X309842Y272765D01*
X311392Y272918D01*
X312882Y273370D01*
X314256Y274104D01*
X315460Y275092D01*
X316447Y276295D01*
X317182Y277669D01*
X317634Y279159D01*
X317786Y280709D01*
X317634Y282258D01*
X317182Y283749D01*
X316447Y285122D01*
X315460Y286326D01*
X314256Y287314D01*
X312882Y288048D01*
X311392Y288500D01*
X309842Y288652D01*
D02*
G37*
G36*
X404063Y274953D02*
X400807D01*
Y271500D01*
X404063D01*
Y274953D01*
D02*
G37*
G36*
X434193D02*
X430937D01*
Y271500D01*
X434193D01*
Y274953D01*
D02*
G37*
G36*
X229193D02*
X225937D01*
Y271500D01*
X229193D01*
Y274953D01*
D02*
G37*
G36*
X281693Y270500D02*
X278437D01*
Y267047D01*
X281693D01*
Y270500D01*
D02*
G37*
G36*
X351563D02*
X348307D01*
Y267047D01*
X351563D01*
Y270500D01*
D02*
G37*
G36*
X229193D02*
X225937D01*
Y267047D01*
X229193D01*
Y270500D01*
D02*
G37*
G36*
X251563D02*
X248307D01*
Y267047D01*
X251563D01*
Y270500D01*
D02*
G37*
G36*
X434193D02*
X430937D01*
Y267047D01*
X434193D01*
Y270500D01*
D02*
G37*
G36*
X199063Y274953D02*
X195807D01*
Y271500D01*
X199063D01*
Y274953D01*
D02*
G37*
G36*
X381693Y270500D02*
X378437D01*
Y267047D01*
X381693D01*
Y270500D01*
D02*
G37*
G36*
X404063D02*
X400807D01*
Y267047D01*
X404063D01*
Y270500D01*
D02*
G37*
%LPD*%
D10*
X213339Y89724D02*
X213563Y89500D01*
X200240Y89724D02*
X213339D01*
X200043Y102500D02*
X211500D01*
X200240Y80276D02*
X211276D01*
X161500Y85500D02*
X176500D01*
X181724Y80276D01*
X192760D01*
X161500Y62043D02*
Y85500D01*
X192760Y102500D02*
Y113303D01*
Y89724D02*
Y102500D01*
X192957D01*
X164000D02*
X192760D01*
X161500Y95500D02*
Y100000D01*
X164000Y102500D01*
X200043D02*
Y113106D01*
X200437Y113500D02*
X246957D01*
X254043Y114000D02*
X266457D01*
X265276Y99740D02*
Y112819D01*
X298543Y74043D02*
X302500Y78000D01*
X291500Y74043D02*
X298543D01*
X291500D02*
Y84457D01*
X302500Y78000D02*
Y94500D01*
X297260Y99740D02*
X302500Y94500D01*
X274724Y99740D02*
X297260D01*
X442224Y57224D02*
X454500Y69500D01*
X456500Y34500D02*
X457000Y35000D01*
Y59500D01*
X442224Y52500D02*
Y57224D01*
X397000Y47221D02*
X402779D01*
X407500Y23063D02*
Y36500D01*
X405179Y38821D02*
X407500Y36500D01*
X402179Y38821D02*
X405179D01*
X385000Y57179D02*
X393000D01*
X375500Y47679D02*
X385000Y57179D01*
X375500Y22500D02*
Y47679D01*
Y22500D02*
X383500Y14500D01*
X442500D01*
X300000Y142000D02*
X306500Y135500D01*
X405000D01*
X396063Y80563D02*
Y117563D01*
X443500Y211500D02*
Y232000D01*
X434000Y202000D02*
X443500Y211500D01*
X400000Y218000D02*
Y232500D01*
X392563Y210563D02*
X400000Y218000D01*
X326000Y210563D02*
X392563D01*
X400000Y232500D02*
X406000Y238500D01*
X437000D01*
X443500Y232000D01*
X426500Y202000D02*
X434000D01*
X259937Y267437D02*
Y271000D01*
X210000Y217500D02*
X259937Y267437D01*
X210000Y210500D02*
Y217500D01*
X299500Y242500D02*
X399500D01*
X290000Y233000D02*
X299500Y242500D01*
X290000Y210500D02*
Y233000D01*
X297000Y252000D02*
X352500D01*
X280000Y235000D02*
X297000Y252000D01*
X280000Y210500D02*
Y235000D01*
X399500Y242500D02*
X412437Y255437D01*
Y271000D01*
X359937Y259437D02*
Y271000D01*
X352500Y252000D02*
X359937Y259437D01*
X241000Y273500D02*
Y283500D01*
X190000Y222500D02*
X241000Y273500D01*
X190000Y210500D02*
Y222500D01*
X445500Y305000D02*
X453000Y297500D01*
Y165500D02*
Y297500D01*
X410000Y305000D02*
X445500D01*
X402500Y297500D02*
X410000Y305000D01*
X402500Y292500D02*
Y297500D01*
X438000Y150500D02*
X453000Y165500D01*
X310000Y150500D02*
X438000D01*
X260000Y199000D02*
Y210500D01*
Y199000D02*
X266000Y193000D01*
X279500D01*
X309500Y163000D01*
X437500D01*
X442500Y168000D01*
Y176500D01*
X437000Y182000D02*
X442500Y176500D01*
X426500Y182000D02*
X437000D01*
X426500Y202000D02*
Y221437D01*
X416500Y202000D02*
Y220437D01*
X98224Y117240D02*
X105984Y125000D01*
X280000Y150500D02*
Y171000D01*
X270000Y181000D02*
X280000Y171000D01*
X144500Y181000D02*
X270000D01*
Y150500D02*
Y168000D01*
X263000Y175000D02*
X270000Y168000D01*
X123500Y175000D02*
X263000D01*
X122000Y203500D02*
Y259957D01*
X122000Y203500D02*
X144500Y181000D01*
X92500Y206000D02*
X123500Y175000D01*
X254500Y168500D02*
X260000Y163000D01*
X101500Y168500D02*
X254500D01*
X64000Y206000D02*
X101500Y168500D01*
X422500Y271063D02*
Y292500D01*
X412500Y271063D02*
Y292500D01*
X370000Y271063D02*
Y292500D01*
X360000Y271063D02*
Y292500D01*
X337500Y280000D02*
X350000Y292500D01*
X337500Y268500D02*
Y280000D01*
X328500Y259500D02*
X337500Y268500D01*
X274500Y259500D02*
X328500D01*
X240000Y225000D02*
X274500Y259500D01*
X240000Y210500D02*
Y225000D01*
X230000Y210500D02*
X230500Y210000D01*
X241000Y283500D02*
X250000Y292500D01*
X188500Y283500D02*
X197500Y292500D01*
X188500Y258000D02*
Y283500D01*
X170000Y239500D02*
X188500Y258000D01*
X170000Y210500D02*
Y239500D01*
X180000Y210500D02*
Y234500D01*
X207437Y261937D01*
Y271000D01*
X35000Y200500D02*
Y259957D01*
Y200500D02*
X73000Y162500D01*
X246500D01*
X250000Y159000D01*
Y150500D02*
Y159000D01*
X260000Y150500D02*
Y163000D01*
X64000Y206000D02*
Y259957D01*
X92500Y206000D02*
Y259957D01*
X310000Y210500D02*
X325937D01*
X300000Y142000D02*
Y150500D01*
X273000Y128500D02*
X281500D01*
X290000Y137000D01*
Y150500D01*
X240000Y134000D02*
Y150500D01*
X231000Y125000D02*
X240000Y134000D01*
X105984Y125000D02*
X231000D01*
X270000Y271063D02*
Y292500D01*
X260000Y271063D02*
Y292500D01*
X217500Y271063D02*
Y292500D01*
X207500Y271063D02*
Y292500D01*
X440907Y120092D02*
X443803Y117197D01*
X438012Y122988D02*
X440907Y120092D01*
X273543Y114000D02*
Y127957D01*
X265276Y82224D02*
Y92260D01*
X250000Y74000D02*
Y80000D01*
Y63500D02*
Y74000D01*
X256500Y67500D01*
X266563D01*
X206500Y71500D02*
X213500D01*
X199500D02*
X206500D01*
X31000Y120543D02*
Y133500D01*
X97437Y99000D02*
X115000D01*
X121846Y54654D02*
X161776D01*
X89563Y86937D02*
X121846Y54654D01*
X89563Y86937D02*
Y99000D01*
X240500Y89500D02*
X250000Y80000D01*
X221937Y89500D02*
X240500D01*
X318000Y72000D02*
X396063D01*
X300000Y54000D02*
X318000Y72000D01*
X259500Y54000D02*
X300000D01*
X250000Y63500D02*
X259500Y54000D01*
X413000Y72000D02*
X417500D01*
X403937D02*
X413000D01*
X406760Y109740D02*
X417776D01*
X441500Y67500D02*
X459000Y85000D01*
X436819Y62819D02*
X441500Y67500D01*
X442500Y14500D02*
X457500D01*
X431988Y25012D02*
X442500Y14500D01*
X431988Y25012D02*
Y48563D01*
X402779Y47221D02*
X415500Y34500D01*
X423500D01*
X196500Y74500D02*
X199500Y71500D01*
X196500Y74500D02*
Y80276D01*
X213500Y71500D02*
X221937Y79937D01*
Y89500D01*
X250000Y80000D02*
Y91500D01*
X254500Y96000D01*
X265276D01*
X287043D02*
X291500Y91543D01*
X265276Y96000D02*
X287043D01*
X68500Y105063D02*
X74563Y99000D01*
X89563D01*
X13563Y105063D02*
X68500D01*
X98224Y99787D02*
Y109760D01*
X67937Y113500D02*
X88776D01*
X67937Y113500D02*
X68500Y112937D01*
X52543Y113500D02*
X67937D01*
X12000Y113500D02*
X45457D01*
X396063Y117563D02*
X401488Y122988D01*
X418957D01*
X443803Y109740D02*
Y117197D01*
X426437Y122988D02*
X438012D01*
X422724Y133000D02*
X436457D01*
X456500D02*
X457000Y133500D01*
X443543Y133000D02*
X456500D01*
X425937Y80437D02*
Y87000D01*
X417500Y72000D02*
X425937Y80437D01*
X459000Y85000D02*
Y95457D01*
X436819Y56043D02*
Y62819D01*
X444087Y102543D02*
X459000D01*
X427224Y102260D02*
X443803D01*
X402563Y87063D02*
X418000D01*
X417776Y87287D02*
Y102260D01*
X421516Y106000D01*
X427224D01*
Y109740D02*
X443803D01*
X396063Y80563D02*
X402563Y87063D01*
X396063Y72000D02*
Y80563D01*
X419606Y56043D02*
X431988D01*
X436819D01*
X420000Y48563D02*
X431988D01*
X402000Y57179D02*
X404821D01*
X414000Y48000D02*
X419437D01*
X404821Y57179D02*
X414000Y48000D01*
X403937Y57179D02*
Y72000D01*
X122000Y267043D02*
Y292000D01*
X92500Y267043D02*
Y291500D01*
X64000Y267043D02*
Y292000D01*
X35000Y267043D02*
Y292000D01*
D12*
X456500Y34500D02*
D03*
Y14500D02*
D03*
D13*
X457000Y143500D02*
D03*
X132000Y292000D02*
D03*
X103000D02*
D03*
X74000D02*
D03*
X45000D02*
D03*
X161500Y95500D02*
D03*
D14*
X457000Y133500D02*
D03*
X161500Y85500D02*
D03*
D15*
X122000Y292000D02*
D03*
X93000D02*
D03*
X64000D02*
D03*
X35000D02*
D03*
D16*
X236221Y34252D02*
D03*
X309842Y280709D02*
D03*
X162598D02*
D03*
D17*
X457000Y59500D02*
D03*
X12000Y103500D02*
D03*
D18*
X457000Y69500D02*
D03*
X12000Y113500D02*
D03*
X211276Y80276D02*
D03*
X211500Y102500D02*
D03*
X405000Y135500D02*
D03*
X443000Y211500D02*
D03*
X396000Y117000D02*
D03*
X440907Y120092D02*
D03*
X273000Y128500D02*
D03*
X265276Y82224D02*
D03*
X206500Y71500D02*
D03*
X31000Y133500D02*
D03*
X115000Y99000D02*
D03*
X406760Y109740D02*
D03*
X413000Y72000D02*
D03*
X423500Y34500D02*
D03*
X441500Y67500D02*
D03*
D19*
X160000Y150500D02*
D03*
D20*
X170000D02*
D03*
X180000D02*
D03*
X190000D02*
D03*
X200000D02*
D03*
X210000D02*
D03*
X220000D02*
D03*
X230000D02*
D03*
X240000D02*
D03*
X250000D02*
D03*
X260000D02*
D03*
X270000D02*
D03*
X280000D02*
D03*
X290000D02*
D03*
X300000D02*
D03*
X310000D02*
D03*
X160000Y210500D02*
D03*
X170000D02*
D03*
X180000D02*
D03*
X190000D02*
D03*
X200000D02*
D03*
X210000D02*
D03*
X220000D02*
D03*
X230000D02*
D03*
X240000D02*
D03*
X250000D02*
D03*
X260000D02*
D03*
X270000D02*
D03*
X280000D02*
D03*
X290000D02*
D03*
X300000D02*
D03*
X310000D02*
D03*
D21*
X416500Y202000D02*
D03*
D22*
Y192000D02*
D03*
Y172000D02*
D03*
X426500Y182000D02*
D03*
X416500D02*
D03*
X426500Y172000D02*
D03*
Y192000D02*
D03*
Y202000D02*
D03*
X380000Y292500D02*
D03*
X370000D02*
D03*
X360000D02*
D03*
X280000D02*
D03*
X270000D02*
D03*
X260000D02*
D03*
X227500D02*
D03*
X217500D02*
D03*
X207500D02*
D03*
X432500D02*
D03*
X422500D02*
D03*
X412500D02*
D03*
D23*
X350000D02*
D03*
X250000D02*
D03*
X197500D02*
D03*
X402500D02*
D03*
D24*
X265276Y92260D02*
D03*
X88776Y109760D02*
D03*
X427224Y109740D02*
D03*
D25*
X265276Y96000D02*
D03*
Y99740D02*
D03*
X274724D02*
D03*
Y92260D02*
D03*
X98224Y109760D02*
D03*
Y117240D02*
D03*
X88776D02*
D03*
Y113500D02*
D03*
X417776Y109740D02*
D03*
Y102260D02*
D03*
X427224D02*
D03*
Y106000D02*
D03*
D26*
X266563Y67500D02*
D03*
X274437D02*
D03*
X192563Y113500D02*
D03*
X200437D02*
D03*
X221437Y89500D02*
D03*
X213563D02*
D03*
X89563Y99000D02*
D03*
X97437D02*
D03*
X425937Y87000D02*
D03*
X418063D02*
D03*
X396063Y72000D02*
D03*
X403937D02*
D03*
X399063Y22500D02*
D03*
X406937D02*
D03*
X412437Y271000D02*
D03*
X404563D02*
D03*
X422563D02*
D03*
X430437D02*
D03*
X359937D02*
D03*
X352063D02*
D03*
X370063D02*
D03*
X377937D02*
D03*
X259937D02*
D03*
X252063D02*
D03*
X270063D02*
D03*
X277937D02*
D03*
X207437D02*
D03*
X199563D02*
D03*
X217563D02*
D03*
X225437D02*
D03*
X425937Y222000D02*
D03*
X418063D02*
D03*
D27*
X291500Y84457D02*
D03*
Y91543D02*
D03*
Y66957D02*
D03*
Y74043D02*
D03*
X161500Y54957D02*
D03*
Y62043D02*
D03*
X31000Y120543D02*
D03*
Y113457D02*
D03*
X444000Y109543D02*
D03*
Y102457D02*
D03*
X122000Y259957D02*
D03*
Y267043D02*
D03*
X92500Y259957D02*
D03*
Y267043D02*
D03*
X64000Y259957D02*
D03*
Y267043D02*
D03*
X35000Y259957D02*
D03*
Y267043D02*
D03*
X459000Y102543D02*
D03*
Y95457D02*
D03*
D28*
X246957Y113500D02*
D03*
X254043D02*
D03*
X266457D02*
D03*
X273543D02*
D03*
X192957Y102500D02*
D03*
X200043D02*
D03*
X45457Y113500D02*
D03*
X52543D02*
D03*
X436457Y133000D02*
D03*
X443543D02*
D03*
D29*
X200240Y80276D02*
D03*
D30*
X196500D02*
D03*
X192760D02*
D03*
Y89724D02*
D03*
X200240D02*
D03*
D31*
X68500Y112937D02*
D03*
Y105063D02*
D03*
X419500Y55937D02*
D03*
Y48063D02*
D03*
X326000Y210563D02*
D03*
Y218437D02*
D03*
D32*
X393587Y38821D02*
D03*
X396146D02*
D03*
X398705D02*
D03*
X401264D02*
D03*
X401413Y57179D02*
D03*
X398854D02*
D03*
X396295D02*
D03*
D33*
X393736D02*
D03*
D34*
X431988Y48563D02*
D03*
Y56043D02*
D03*
X442224Y52500D02*
D03*
D35*
X426437Y122988D02*
D03*
X418957D02*
D03*
X422500Y133224D02*
D03*
D36*
X393587Y44587D02*
X398854Y49854D01*
Y57179D01*
X398705Y22858D02*
Y38821D01*
X393587D02*
Y44587D01*
Y38821D02*
X395500D01*
X396295Y57179D02*
Y71768D01*
M02*
