M48
;Layer_Color=9474304
;FILE_FORMAT=2:3
INCH,LZ
;TYPE=PLATED
T1F00S00C0.024
T2F00S00C0.028
T3F00S00C0.031
T4F00S00C0.032
T5F00S00C0.035
T6F00S00C0.040
T7F00S00C0.118
%
T01
X022Y01505
X023
X024
X025
X026
X027
X028
X029
X03
X031
Y02105
X03
X029
X028
X027
X026
X025
X024
X023
X022
X021
X02
X019
X018
X017
X016
Y01505
X017
X018
X019
X02
X021
T02
X04235Y00345
X0413Y0072
X04415Y00675
X04409Y01201
X04068Y01097
X0396Y0117
X0405Y01355
X0443Y02115
X0273Y01285
X02653Y00822
X02113Y00803
X02065Y00715
X02115Y01025
X0115Y0099
X0031Y01335
T03
X0457Y01335
Y01435
X01615Y00955
Y00855
X0045Y0292
X0035
X0064
X0074
X0093
X0103
X0122
X0132
T04
X0457Y00595
Y00695
X0012Y01035
Y01135
T05
X04165Y0172
Y0182
Y0192
Y0202
X04265
Y0192
Y0182
Y0172
X02075Y02925
X01975
X02175
X02275
X025
X026
X027
X028
X035
X036
X037
X038
X04025
X04125
X04225
X04325
T06
X04565Y00145
Y00345
T07
X02362Y00343
X01626Y02807
X03098
M30
