%FSLAX25Y25*%
%MOIN*%
G70*
G01*
G75*
G04 Layer_Physical_Order=1*
G04 Layer_Color=255*
%ADD10C,0.02000*%
%ADD11C,0.01000*%
%ADD12C,0.10000*%
%ADD13C,0.05118*%
%ADD14R,0.05118X0.05118*%
%ADD15R,0.05118X0.05118*%
%ADD16C,0.11811*%
%ADD17R,0.05000X0.05000*%
%ADD18C,0.05000*%
%ADD19R,0.04724X0.09843*%
%ADD20O,0.04724X0.09843*%
%ADD21R,0.05906X0.05906*%
%ADD22C,0.05906*%
%ADD23R,0.05906X0.05906*%
G36*
X462500Y307500D02*
Y39011D01*
X462000Y38832D01*
X461474Y39474D01*
X460408Y40349D01*
X459192Y40999D01*
X457872Y41399D01*
X456500Y41534D01*
X455128Y41399D01*
X453808Y40999D01*
X452592Y40349D01*
X451526Y39474D01*
X450652Y38408D01*
X450002Y37192D01*
X449601Y35872D01*
X449466Y34500D01*
X449601Y33128D01*
X450002Y31808D01*
X450652Y30592D01*
X451526Y29526D01*
X452592Y28651D01*
X453808Y28001D01*
X455128Y27601D01*
X456500Y27466D01*
X457872Y27601D01*
X459192Y28001D01*
X460408Y28651D01*
X461474Y29526D01*
X462000Y30168D01*
X462500Y29989D01*
Y19011D01*
X462000Y18832D01*
X461474Y19474D01*
X460408Y20348D01*
X459192Y20998D01*
X457872Y21399D01*
X456500Y21534D01*
X455128Y21399D01*
X453808Y20998D01*
X452592Y20348D01*
X451526Y19474D01*
X450652Y18408D01*
X450002Y17192D01*
X449601Y15872D01*
X449466Y14500D01*
X449601Y13128D01*
X450002Y11808D01*
X450652Y10592D01*
X451526Y9526D01*
X452592Y8652D01*
X453808Y8002D01*
X453813Y8000D01*
X453739Y7500D01*
X7500D01*
Y99000D01*
X16500D01*
Y108000D01*
X7500D01*
Y111298D01*
X8000Y111398D01*
X8069Y111231D01*
X8791Y110291D01*
X9731Y109569D01*
X10825Y109116D01*
X12000Y108961D01*
X13175Y109116D01*
X14269Y109569D01*
X15209Y110291D01*
X15931Y111231D01*
X16384Y112325D01*
X16539Y113500D01*
X16384Y114675D01*
X15931Y115769D01*
X15209Y116709D01*
X14269Y117431D01*
X13175Y117884D01*
X12000Y118039D01*
X10825Y117884D01*
X9731Y117431D01*
X8791Y116709D01*
X8069Y115769D01*
X8000Y115602D01*
X7500Y115702D01*
Y308000D01*
X462000D01*
X462500Y307500D01*
D02*
G37*
%LPC*%
G36*
X34464Y133000D02*
X31500D01*
Y130036D01*
X31914Y130090D01*
X32765Y130443D01*
X33496Y131004D01*
X34057Y131735D01*
X34410Y132586D01*
X34464Y133000D01*
D02*
G37*
G36*
X30500D02*
X27536D01*
X27590Y132586D01*
X27943Y131735D01*
X28504Y131004D01*
X29235Y130443D01*
X30086Y130090D01*
X30500Y130036D01*
Y133000D01*
D02*
G37*
G36*
X31500Y136964D02*
Y134000D01*
X34464D01*
X34410Y134414D01*
X34057Y135265D01*
X33496Y135996D01*
X32765Y136557D01*
X31914Y136910D01*
X31500Y136964D01*
D02*
G37*
G36*
X30500D02*
X30086Y136910D01*
X29235Y136557D01*
X28504Y135996D01*
X27943Y135265D01*
X27590Y134414D01*
X27536Y134000D01*
X30500D01*
Y136964D01*
D02*
G37*
G36*
X461559Y138059D02*
X452441D01*
Y128941D01*
X461559D01*
Y138059D01*
D02*
G37*
G36*
X395500Y120464D02*
X395086Y120410D01*
X394235Y120057D01*
X393504Y119496D01*
X392943Y118765D01*
X392590Y117914D01*
X392536Y117500D01*
X395500D01*
Y120464D01*
D02*
G37*
G36*
X405000Y140039D02*
X403825Y139884D01*
X402731Y139431D01*
X401791Y138709D01*
X401069Y137769D01*
X400616Y136675D01*
X400461Y135500D01*
X400616Y134325D01*
X401069Y133231D01*
X401791Y132291D01*
X402731Y131569D01*
X403825Y131116D01*
X405000Y130961D01*
X406175Y131116D01*
X407269Y131569D01*
X408209Y132291D01*
X408350Y132474D01*
X424247D01*
X436399Y120322D01*
X436369Y120092D01*
X436523Y118918D01*
X436977Y117823D01*
X437698Y116883D01*
X438638Y116162D01*
X439733Y115708D01*
X440907Y115554D01*
X442082Y115708D01*
X443177Y116162D01*
X444117Y116883D01*
X444838Y117823D01*
X445292Y118918D01*
X445446Y120092D01*
X445292Y121267D01*
X444838Y122362D01*
X444117Y123302D01*
X443177Y124023D01*
X442082Y124477D01*
X440907Y124631D01*
X440678Y124601D01*
X427640Y137640D01*
X427013Y138120D01*
X426799Y138209D01*
X426283Y138423D01*
X425500Y138526D01*
X408350D01*
X408209Y138709D01*
X407269Y139431D01*
X406175Y139884D01*
X405000Y140039D01*
D02*
G37*
G36*
X273000Y133039D02*
X271825Y132884D01*
X270731Y132431D01*
X269791Y131709D01*
X269069Y130769D01*
X268616Y129675D01*
X268461Y128500D01*
X268491Y128271D01*
X263136Y122915D01*
X262655Y122289D01*
X262567Y122075D01*
X262353Y121559D01*
X262250Y120776D01*
Y85575D01*
X262066Y85434D01*
X261345Y84494D01*
X260891Y83399D01*
X260737Y82224D01*
X260891Y81050D01*
X261345Y79955D01*
X262066Y79015D01*
X263006Y78294D01*
X264101Y77840D01*
X265276Y77686D01*
X266450Y77840D01*
X267545Y78294D01*
X268485Y79015D01*
X269206Y79955D01*
X269660Y81050D01*
X269814Y82224D01*
X269660Y83399D01*
X269206Y84494D01*
X268485Y85434D01*
X268302Y85575D01*
Y119522D01*
X272771Y123991D01*
X273000Y123961D01*
X274175Y124116D01*
X275269Y124569D01*
X276209Y125291D01*
X276931Y126231D01*
X277384Y127325D01*
X277539Y128500D01*
X277384Y129675D01*
X276931Y130769D01*
X276209Y131709D01*
X275269Y132431D01*
X274175Y132884D01*
X273000Y133039D01*
D02*
G37*
G36*
X396500Y120464D02*
Y117500D01*
X399464D01*
X399410Y117914D01*
X399057Y118765D01*
X398496Y119496D01*
X397765Y120057D01*
X396914Y120410D01*
X396500Y120464D01*
D02*
G37*
G36*
X220000Y157459D02*
X218861Y157309D01*
X217800Y156869D01*
X216889Y156170D01*
X216190Y155259D01*
X215750Y154198D01*
X215600Y153059D01*
Y147941D01*
X215750Y146802D01*
X216190Y145741D01*
X216889Y144830D01*
X217800Y144131D01*
X218861Y143691D01*
X220000Y143541D01*
X221139Y143691D01*
X222200Y144131D01*
X223111Y144830D01*
X223810Y145741D01*
X224250Y146802D01*
X224400Y147941D01*
Y153059D01*
X224250Y154198D01*
X223810Y155259D01*
X223111Y156170D01*
X222200Y156869D01*
X221139Y157309D01*
X220000Y157459D01*
D02*
G37*
G36*
X210000D02*
X208861Y157309D01*
X207800Y156869D01*
X206889Y156170D01*
X206190Y155259D01*
X205750Y154198D01*
X205600Y153059D01*
Y147941D01*
X205750Y146802D01*
X206190Y145741D01*
X206889Y144830D01*
X207800Y144131D01*
X208861Y143691D01*
X210000Y143541D01*
X211139Y143691D01*
X212200Y144131D01*
X213111Y144830D01*
X213810Y145741D01*
X214250Y146802D01*
X214400Y147941D01*
Y153059D01*
X214250Y154198D01*
X213810Y155259D01*
X213111Y156170D01*
X212200Y156869D01*
X211139Y157309D01*
X210000Y157459D01*
D02*
G37*
G36*
X230000D02*
X228861Y157309D01*
X227800Y156869D01*
X226889Y156170D01*
X226190Y155259D01*
X225750Y154198D01*
X225600Y153059D01*
Y147941D01*
X225750Y146802D01*
X226190Y145741D01*
X226889Y144830D01*
X227800Y144131D01*
X228861Y143691D01*
X230000Y143541D01*
X231139Y143691D01*
X232200Y144131D01*
X233111Y144830D01*
X233810Y145741D01*
X234250Y146802D01*
X234400Y147941D01*
Y153059D01*
X234250Y154198D01*
X233810Y155259D01*
X233111Y156170D01*
X232200Y156869D01*
X231139Y157309D01*
X230000Y157459D01*
D02*
G37*
G36*
X250000D02*
X248861Y157309D01*
X247800Y156869D01*
X246889Y156170D01*
X246190Y155259D01*
X245750Y154198D01*
X245600Y153059D01*
Y147941D01*
X245750Y146802D01*
X246190Y145741D01*
X246889Y144830D01*
X247800Y144131D01*
X248861Y143691D01*
X250000Y143541D01*
X251139Y143691D01*
X252200Y144131D01*
X253111Y144830D01*
X253810Y145741D01*
X254250Y146802D01*
X254400Y147941D01*
Y153059D01*
X254250Y154198D01*
X253810Y155259D01*
X253111Y156170D01*
X252200Y156869D01*
X251139Y157309D01*
X250000Y157459D01*
D02*
G37*
G36*
X240000D02*
X238861Y157309D01*
X237800Y156869D01*
X236889Y156170D01*
X236190Y155259D01*
X235750Y154198D01*
X235600Y153059D01*
Y147941D01*
X235750Y146802D01*
X236190Y145741D01*
X236889Y144830D01*
X237800Y144131D01*
X238861Y143691D01*
X240000Y143541D01*
X241139Y143691D01*
X242200Y144131D01*
X243111Y144830D01*
X243810Y145741D01*
X244250Y146802D01*
X244400Y147941D01*
Y153059D01*
X244250Y154198D01*
X243810Y155259D01*
X243111Y156170D01*
X242200Y156869D01*
X241139Y157309D01*
X240000Y157459D01*
D02*
G37*
G36*
X170000D02*
X168861Y157309D01*
X167800Y156869D01*
X166889Y156170D01*
X166190Y155259D01*
X165750Y154198D01*
X165600Y153059D01*
Y147941D01*
X165750Y146802D01*
X166190Y145741D01*
X166889Y144830D01*
X167800Y144131D01*
X168861Y143691D01*
X170000Y143541D01*
X171139Y143691D01*
X172200Y144131D01*
X173111Y144830D01*
X173810Y145741D01*
X174250Y146802D01*
X174400Y147941D01*
Y153059D01*
X174250Y154198D01*
X173810Y155259D01*
X173111Y156170D01*
X172200Y156869D01*
X171139Y157309D01*
X170000Y157459D01*
D02*
G37*
G36*
X457000Y148098D02*
X455810Y147942D01*
X454701Y147482D01*
X453748Y146751D01*
X453018Y145799D01*
X452558Y144690D01*
X452402Y143500D01*
X452558Y142310D01*
X453018Y141201D01*
X453748Y140249D01*
X454701Y139518D01*
X455810Y139058D01*
X457000Y138902D01*
X458190Y139058D01*
X459299Y139518D01*
X460252Y140249D01*
X460982Y141201D01*
X461442Y142310D01*
X461598Y143500D01*
X461442Y144690D01*
X460982Y145799D01*
X460252Y146751D01*
X459299Y147482D01*
X458190Y147942D01*
X457000Y148098D01*
D02*
G37*
G36*
X180000Y157459D02*
X178861Y157309D01*
X177800Y156869D01*
X176889Y156170D01*
X176190Y155259D01*
X175750Y154198D01*
X175600Y153059D01*
Y147941D01*
X175750Y146802D01*
X176190Y145741D01*
X176889Y144830D01*
X177800Y144131D01*
X178861Y143691D01*
X180000Y143541D01*
X181139Y143691D01*
X182200Y144131D01*
X183111Y144830D01*
X183810Y145741D01*
X184250Y146802D01*
X184400Y147941D01*
Y153059D01*
X184250Y154198D01*
X183810Y155259D01*
X183111Y156170D01*
X182200Y156869D01*
X181139Y157309D01*
X180000Y157459D01*
D02*
G37*
G36*
X200000D02*
X198861Y157309D01*
X197800Y156869D01*
X196889Y156170D01*
X196190Y155259D01*
X195750Y154198D01*
X195600Y153059D01*
Y147941D01*
X195750Y146802D01*
X196190Y145741D01*
X196889Y144830D01*
X197800Y144131D01*
X198861Y143691D01*
X200000Y143541D01*
X201139Y143691D01*
X202200Y144131D01*
X203111Y144830D01*
X203810Y145741D01*
X204250Y146802D01*
X204400Y147941D01*
Y153059D01*
X204250Y154198D01*
X203810Y155259D01*
X203111Y156170D01*
X202200Y156869D01*
X201139Y157309D01*
X200000Y157459D01*
D02*
G37*
G36*
X190000D02*
X188861Y157309D01*
X187800Y156869D01*
X186889Y156170D01*
X186190Y155259D01*
X185750Y154198D01*
X185600Y153059D01*
Y147941D01*
X185750Y146802D01*
X186190Y145741D01*
X186889Y144830D01*
X187800Y144131D01*
X188861Y143691D01*
X190000Y143541D01*
X191139Y143691D01*
X192200Y144131D01*
X193111Y144830D01*
X193810Y145741D01*
X194250Y146802D01*
X194400Y147941D01*
Y153059D01*
X194250Y154198D01*
X193810Y155259D01*
X193111Y156170D01*
X192200Y156869D01*
X191139Y157309D01*
X190000Y157459D01*
D02*
G37*
G36*
X399464Y116500D02*
X396500D01*
Y113536D01*
X396914Y113590D01*
X397765Y113943D01*
X398496Y114504D01*
X399057Y115235D01*
X399410Y116086D01*
X399464Y116500D01*
D02*
G37*
G36*
X406760Y114279D02*
X405585Y114124D01*
X404490Y113671D01*
X403550Y112950D01*
X402829Y112010D01*
X402376Y110915D01*
X402221Y109740D01*
X402376Y108565D01*
X402829Y107471D01*
X403550Y106531D01*
X403734Y106390D01*
Y78240D01*
X403837Y77457D01*
X404051Y76941D01*
X404139Y76727D01*
X404620Y76100D01*
X408491Y72229D01*
X408461Y72000D01*
X408616Y70825D01*
X409069Y69731D01*
X409791Y68791D01*
X410731Y68069D01*
X411825Y67616D01*
X413000Y67461D01*
X414175Y67616D01*
X415269Y68069D01*
X416209Y68791D01*
X416931Y69731D01*
X417384Y70825D01*
X417539Y72000D01*
X417384Y73175D01*
X416931Y74269D01*
X416209Y75209D01*
X415269Y75931D01*
X414175Y76384D01*
X413000Y76539D01*
X412771Y76509D01*
X409786Y79493D01*
Y106390D01*
X409969Y106531D01*
X410691Y107471D01*
X411144Y108565D01*
X411299Y109740D01*
X411144Y110915D01*
X410691Y112010D01*
X409969Y112950D01*
X409029Y113671D01*
X407935Y114124D01*
X406760Y114279D01*
D02*
G37*
G36*
X457000Y74039D02*
X455825Y73884D01*
X454731Y73431D01*
X453791Y72709D01*
X453069Y71769D01*
X452616Y70675D01*
X452461Y69500D01*
X452616Y68325D01*
X453069Y67231D01*
X453791Y66291D01*
X454731Y65569D01*
X455825Y65116D01*
X457000Y64961D01*
X458175Y65116D01*
X459269Y65569D01*
X460209Y66291D01*
X460931Y67231D01*
X461384Y68325D01*
X461539Y69500D01*
X461384Y70675D01*
X460931Y71769D01*
X460209Y72709D01*
X459269Y73431D01*
X458175Y73884D01*
X457000Y74039D01*
D02*
G37*
G36*
X209964Y71000D02*
X207000D01*
Y68036D01*
X207414Y68090D01*
X208265Y68443D01*
X208996Y69004D01*
X209557Y69735D01*
X209910Y70586D01*
X209964Y71000D01*
D02*
G37*
G36*
X206000D02*
X203036D01*
X203090Y70586D01*
X203443Y69735D01*
X204004Y69004D01*
X204735Y68443D01*
X205586Y68090D01*
X206000Y68036D01*
Y71000D01*
D02*
G37*
G36*
X461500Y64000D02*
X452500D01*
Y55000D01*
X461500D01*
Y64000D01*
D02*
G37*
G36*
X236221Y42196D02*
X234671Y42043D01*
X233180Y41591D01*
X231807Y40857D01*
X230603Y39869D01*
X229615Y38665D01*
X228881Y37292D01*
X228429Y35802D01*
X228277Y34252D01*
X228429Y32702D01*
X228881Y31212D01*
X229615Y29839D01*
X230603Y28635D01*
X231807Y27647D01*
X233180Y26913D01*
X234671Y26461D01*
X236221Y26308D01*
X237770Y26461D01*
X239260Y26913D01*
X240634Y27647D01*
X241838Y28635D01*
X242826Y29839D01*
X243560Y31212D01*
X244012Y32702D01*
X244164Y34252D01*
X244012Y35802D01*
X243560Y37292D01*
X242826Y38665D01*
X241838Y39869D01*
X240634Y40857D01*
X239260Y41591D01*
X237770Y42043D01*
X236221Y42196D01*
D02*
G37*
G36*
X125631Y42497D02*
X8000D01*
Y23168D01*
Y8000D01*
X48989D01*
Y23168D01*
X125631D01*
Y42497D01*
D02*
G37*
G36*
X108969Y74497D02*
X8000D01*
Y58500D01*
Y43000D01*
X135627D01*
Y58997D01*
X108969D01*
Y74497D01*
D02*
G37*
G36*
X441500Y72039D02*
X440325Y71884D01*
X439231Y71431D01*
X438291Y70709D01*
X437569Y69769D01*
X437116Y68675D01*
X436961Y67500D01*
X437116Y66325D01*
X437569Y65231D01*
X438291Y64291D01*
X438474Y64150D01*
Y43753D01*
X432247Y37526D01*
X426850D01*
X426709Y37709D01*
X425769Y38431D01*
X424675Y38884D01*
X423500Y39039D01*
X422325Y38884D01*
X421231Y38431D01*
X420291Y37709D01*
X419569Y36769D01*
X419116Y35675D01*
X418961Y34500D01*
X419116Y33325D01*
X419569Y32231D01*
X420291Y31291D01*
X421231Y30569D01*
X422325Y30116D01*
X423500Y29961D01*
X424675Y30116D01*
X425769Y30569D01*
X426709Y31291D01*
X426850Y31474D01*
X433500D01*
X434283Y31577D01*
X434799Y31791D01*
X435013Y31879D01*
X435640Y32360D01*
X443640Y40360D01*
X444121Y40987D01*
X444423Y41717D01*
X444526Y42500D01*
Y64150D01*
X444709Y64291D01*
X445431Y65231D01*
X445884Y66325D01*
X446039Y67500D01*
X445884Y68675D01*
X445431Y69769D01*
X444709Y70709D01*
X443769Y71431D01*
X442675Y71884D01*
X441500Y72039D01*
D02*
G37*
G36*
X206000Y74964D02*
X205586Y74910D01*
X204735Y74557D01*
X204004Y73996D01*
X203443Y73265D01*
X203090Y72414D01*
X203036Y72000D01*
X206000D01*
Y74964D01*
D02*
G37*
G36*
X114500Y102464D02*
X114086Y102410D01*
X113235Y102057D01*
X112504Y101496D01*
X111943Y100765D01*
X111590Y99914D01*
X111536Y99500D01*
X114500D01*
Y102464D01*
D02*
G37*
G36*
X118464Y98500D02*
X115500D01*
Y95536D01*
X115914Y95590D01*
X116765Y95943D01*
X117496Y96504D01*
X118057Y97235D01*
X118410Y98086D01*
X118464Y98500D01*
D02*
G37*
G36*
X395500Y116500D02*
X392536D01*
X392590Y116086D01*
X392943Y115235D01*
X393504Y114504D01*
X394235Y113943D01*
X395086Y113590D01*
X395500Y113536D01*
Y116500D01*
D02*
G37*
G36*
X115500Y102464D02*
Y99500D01*
X118464D01*
X118410Y99914D01*
X118057Y100765D01*
X117496Y101496D01*
X116765Y102057D01*
X115914Y102410D01*
X115500Y102464D01*
D02*
G37*
G36*
X114500Y98500D02*
X111536D01*
X111590Y98086D01*
X111943Y97235D01*
X112504Y96504D01*
X113235Y95943D01*
X114086Y95590D01*
X114500Y95536D01*
Y98500D01*
D02*
G37*
G36*
X211500Y107039D02*
X210325Y106884D01*
X209231Y106431D01*
X208291Y105709D01*
X207569Y104769D01*
X207116Y103675D01*
X206961Y102500D01*
X207116Y101325D01*
X207569Y100231D01*
X208291Y99291D01*
X208474Y99150D01*
Y83798D01*
X208066Y83485D01*
X207345Y82545D01*
X206891Y81450D01*
X206737Y80276D01*
X206891Y79101D01*
X207345Y78006D01*
X208066Y77066D01*
X209006Y76345D01*
X210101Y75891D01*
X211276Y75737D01*
X212450Y75891D01*
X213545Y76345D01*
X214485Y77066D01*
X215206Y78006D01*
X215660Y79101D01*
X215814Y80276D01*
X215660Y81450D01*
X215206Y82545D01*
X214526Y83432D01*
Y99150D01*
X214709Y99291D01*
X215431Y100231D01*
X215884Y101325D01*
X216039Y102500D01*
X215884Y103675D01*
X215431Y104769D01*
X214709Y105709D01*
X213769Y106431D01*
X212675Y106884D01*
X211500Y107039D01*
D02*
G37*
G36*
X207000Y74964D02*
Y72000D01*
X209964D01*
X209910Y72414D01*
X209557Y73265D01*
X208996Y73996D01*
X208265Y74557D01*
X207414Y74910D01*
X207000Y74964D01*
D02*
G37*
G36*
X161500Y100098D02*
X160310Y99942D01*
X159201Y99482D01*
X158248Y98751D01*
X157518Y97799D01*
X157058Y96690D01*
X156902Y95500D01*
X157058Y94310D01*
X157518Y93201D01*
X158248Y92248D01*
X159201Y91518D01*
X160310Y91058D01*
X161500Y90902D01*
X162690Y91058D01*
X163799Y91518D01*
X164752Y92248D01*
X165482Y93201D01*
X165942Y94310D01*
X166098Y95500D01*
X165942Y96690D01*
X165482Y97799D01*
X164752Y98751D01*
X163799Y99482D01*
X162690Y99942D01*
X161500Y100098D01*
D02*
G37*
G36*
X166059Y90059D02*
X156941D01*
Y80941D01*
X166059D01*
Y90059D01*
D02*
G37*
G36*
X260000Y157459D02*
X258861Y157309D01*
X257800Y156869D01*
X256889Y156170D01*
X256190Y155259D01*
X255750Y154198D01*
X255600Y153059D01*
Y147941D01*
X255750Y146802D01*
X256190Y145741D01*
X256889Y144830D01*
X257800Y144131D01*
X258861Y143691D01*
X260000Y143541D01*
X261139Y143691D01*
X262200Y144131D01*
X263111Y144830D01*
X263810Y145741D01*
X264250Y146802D01*
X264400Y147941D01*
Y153059D01*
X264250Y154198D01*
X263810Y155259D01*
X263111Y156170D01*
X262200Y156869D01*
X261139Y157309D01*
X260000Y157459D01*
D02*
G37*
G36*
X310500Y216385D02*
Y211000D01*
X313391D01*
Y213059D01*
X313276Y213937D01*
X312937Y214755D01*
X312398Y215457D01*
X311696Y215996D01*
X310878Y216335D01*
X310500Y216385D01*
D02*
G37*
G36*
X309500D02*
X309122Y216335D01*
X308304Y215996D01*
X307602Y215457D01*
X307063Y214755D01*
X306724Y213937D01*
X306609Y213059D01*
Y211000D01*
X309500D01*
Y216385D01*
D02*
G37*
G36*
X442500Y214964D02*
X442086Y214910D01*
X441235Y214557D01*
X440504Y213996D01*
X439943Y213265D01*
X439590Y212414D01*
X439536Y212000D01*
X442500D01*
Y214964D01*
D02*
G37*
G36*
X162598Y288652D02*
X161049Y288500D01*
X159558Y288048D01*
X158185Y287314D01*
X156981Y286326D01*
X155993Y285122D01*
X155259Y283749D01*
X154807Y282258D01*
X154655Y280709D01*
X154807Y279159D01*
X155259Y277669D01*
X155993Y276295D01*
X156981Y275092D01*
X158185Y274104D01*
X159558Y273370D01*
X161049Y272918D01*
X162598Y272765D01*
X164148Y272918D01*
X165638Y273370D01*
X167012Y274104D01*
X168216Y275092D01*
X169203Y276295D01*
X169938Y277669D01*
X170390Y279159D01*
X170542Y280709D01*
X170390Y282258D01*
X169938Y283749D01*
X169203Y285122D01*
X168216Y286326D01*
X167012Y287314D01*
X165638Y288048D01*
X164148Y288500D01*
X162598Y288652D01*
D02*
G37*
G36*
X443500Y214964D02*
Y212000D01*
X446464D01*
X446410Y212414D01*
X446057Y213265D01*
X445496Y213996D01*
X444765Y214557D01*
X443914Y214910D01*
X443500Y214964D01*
D02*
G37*
G36*
X309500Y210000D02*
X306609D01*
Y207941D01*
X306724Y207063D01*
X307063Y206245D01*
X307602Y205543D01*
X308304Y205004D01*
X309122Y204665D01*
X309500Y204616D01*
Y210000D01*
D02*
G37*
G36*
X290000Y217459D02*
X288861Y217309D01*
X287800Y216869D01*
X286889Y216170D01*
X286190Y215259D01*
X285750Y214198D01*
X285600Y213059D01*
Y207941D01*
X285750Y206802D01*
X286190Y205741D01*
X286889Y204830D01*
X287800Y204131D01*
X288861Y203691D01*
X290000Y203541D01*
X291139Y203691D01*
X292200Y204131D01*
X293111Y204830D01*
X293810Y205741D01*
X294250Y206802D01*
X294400Y207941D01*
Y213059D01*
X294250Y214198D01*
X293810Y215259D01*
X293111Y216170D01*
X292200Y216869D01*
X291139Y217309D01*
X290000Y217459D01*
D02*
G37*
G36*
X313391Y210000D02*
X310500D01*
Y204616D01*
X310878Y204665D01*
X311696Y205004D01*
X312398Y205543D01*
X312937Y206245D01*
X313276Y207063D01*
X313391Y207941D01*
Y210000D01*
D02*
G37*
G36*
X446464Y211000D02*
X443500D01*
Y208036D01*
X443914Y208090D01*
X444765Y208443D01*
X445496Y209004D01*
X446057Y209735D01*
X446410Y210586D01*
X446464Y211000D01*
D02*
G37*
G36*
X442500D02*
X439536D01*
X439590Y210586D01*
X439943Y209735D01*
X440504Y209004D01*
X441235Y208443D01*
X442086Y208090D01*
X442500Y208036D01*
Y211000D01*
D02*
G37*
G36*
X68559Y296559D02*
X59441D01*
Y287441D01*
X68559D01*
Y296559D01*
D02*
G37*
G36*
X39559D02*
X30441D01*
Y287441D01*
X39559D01*
Y296559D01*
D02*
G37*
G36*
X97559D02*
X88441D01*
Y287441D01*
X97559D01*
Y296559D01*
D02*
G37*
G36*
X432500Y297496D02*
X431207Y297325D01*
X430002Y296826D01*
X428968Y296032D01*
X428174Y294998D01*
X427771Y294024D01*
X427229D01*
X426826Y294998D01*
X426032Y296032D01*
X424998Y296826D01*
X423793Y297325D01*
X422500Y297496D01*
X421207Y297325D01*
X420002Y296826D01*
X418968Y296032D01*
X418174Y294998D01*
X417771Y294024D01*
X417229D01*
X416826Y294998D01*
X416032Y296032D01*
X414998Y296826D01*
X413793Y297325D01*
X412500Y297496D01*
X411207Y297325D01*
X410002Y296826D01*
X408968Y296032D01*
X408174Y294998D01*
X407953Y294464D01*
X407453Y294564D01*
Y297453D01*
X397547D01*
Y287547D01*
X407453D01*
Y290436D01*
X407953Y290536D01*
X408174Y290002D01*
X408968Y288968D01*
X410002Y288174D01*
X411207Y287675D01*
X412500Y287505D01*
X413793Y287675D01*
X414998Y288174D01*
X416032Y288968D01*
X416826Y290002D01*
X417229Y290976D01*
X417771D01*
X418174Y290002D01*
X418968Y288968D01*
X419474Y288579D01*
Y264753D01*
X413247Y258526D01*
X368958D01*
X368767Y258988D01*
X372140Y262360D01*
X372621Y262987D01*
X372709Y263201D01*
X372923Y263717D01*
X373026Y264500D01*
Y288579D01*
X373532Y288968D01*
X374326Y290002D01*
X374729Y290976D01*
X375271D01*
X375674Y290002D01*
X376468Y288968D01*
X377502Y288174D01*
X378707Y287675D01*
X380000Y287505D01*
X381293Y287675D01*
X382498Y288174D01*
X383532Y288968D01*
X384326Y290002D01*
X384825Y291207D01*
X384996Y292500D01*
X384825Y293793D01*
X384326Y294998D01*
X383532Y296032D01*
X382498Y296826D01*
X381293Y297325D01*
X380000Y297496D01*
X378707Y297325D01*
X377502Y296826D01*
X376468Y296032D01*
X375674Y294998D01*
X375271Y294024D01*
X374729D01*
X374326Y294998D01*
X373532Y296032D01*
X372498Y296826D01*
X371293Y297325D01*
X370000Y297496D01*
X368707Y297325D01*
X367502Y296826D01*
X366468Y296032D01*
X365674Y294998D01*
X365271Y294024D01*
X364729D01*
X364326Y294998D01*
X363532Y296032D01*
X362498Y296826D01*
X361293Y297325D01*
X360000Y297496D01*
X358707Y297325D01*
X357502Y296826D01*
X356468Y296032D01*
X355674Y294998D01*
X355453Y294464D01*
X354953Y294564D01*
Y297453D01*
X345047D01*
Y287547D01*
X354953D01*
Y290436D01*
X355453Y290536D01*
X355674Y290002D01*
X356468Y288968D01*
X357502Y288174D01*
X358707Y287675D01*
X360000Y287505D01*
X361293Y287675D01*
X362498Y288174D01*
X363532Y288968D01*
X364326Y290002D01*
X364729Y290976D01*
X365271D01*
X365674Y290002D01*
X366468Y288968D01*
X366974Y288579D01*
Y265753D01*
X359747Y258526D01*
X269458D01*
X269267Y258988D01*
X272140Y261860D01*
X272140Y261860D01*
X272348Y262133D01*
X272621Y262487D01*
X272923Y263217D01*
X273026Y264000D01*
X273026Y264000D01*
Y288579D01*
X273532Y288968D01*
X274326Y290002D01*
X274729Y290976D01*
X275271D01*
X275674Y290002D01*
X276468Y288968D01*
X277502Y288174D01*
X278707Y287675D01*
X280000Y287505D01*
X281293Y287675D01*
X282498Y288174D01*
X283532Y288968D01*
X284326Y290002D01*
X284825Y291207D01*
X284996Y292500D01*
X284825Y293793D01*
X284326Y294998D01*
X283532Y296032D01*
X282498Y296826D01*
X281293Y297325D01*
X280000Y297496D01*
X278707Y297325D01*
X277502Y296826D01*
X276468Y296032D01*
X275674Y294998D01*
X275271Y294024D01*
X274729D01*
X274326Y294998D01*
X273532Y296032D01*
X272498Y296826D01*
X271293Y297325D01*
X270000Y297496D01*
X268707Y297325D01*
X267502Y296826D01*
X266468Y296032D01*
X265674Y294998D01*
X265271Y294024D01*
X264729D01*
X264326Y294998D01*
X263532Y296032D01*
X262498Y296826D01*
X261293Y297325D01*
X260000Y297496D01*
X258707Y297325D01*
X257502Y296826D01*
X256468Y296032D01*
X255674Y294998D01*
X255453Y294464D01*
X254953Y294564D01*
Y297453D01*
X245047D01*
Y287547D01*
X254953D01*
Y290436D01*
X255453Y290536D01*
X255674Y290002D01*
X256468Y288968D01*
X257502Y288174D01*
X258707Y287675D01*
X260000Y287505D01*
X261293Y287675D01*
X262498Y288174D01*
X263532Y288968D01*
X264326Y290002D01*
X264729Y290976D01*
X265271D01*
X265674Y290002D01*
X266468Y288968D01*
X266974Y288579D01*
Y265253D01*
X260247Y258526D01*
X237753D01*
X220526Y275753D01*
Y288579D01*
X221032Y288968D01*
X221826Y290002D01*
X222229Y290976D01*
X222771D01*
X223174Y290002D01*
X223968Y288968D01*
X225002Y288174D01*
X226207Y287675D01*
X227500Y287505D01*
X228793Y287675D01*
X229998Y288174D01*
X231032Y288968D01*
X231826Y290002D01*
X232325Y291207D01*
X232495Y292500D01*
X232325Y293793D01*
X231826Y294998D01*
X231032Y296032D01*
X229998Y296826D01*
X228793Y297325D01*
X227500Y297496D01*
X226207Y297325D01*
X225002Y296826D01*
X223968Y296032D01*
X223174Y294998D01*
X222771Y294024D01*
X222229D01*
X221826Y294998D01*
X221032Y296032D01*
X219998Y296826D01*
X218793Y297325D01*
X217500Y297496D01*
X216207Y297325D01*
X215002Y296826D01*
X213968Y296032D01*
X213174Y294998D01*
X212771Y294024D01*
X212229D01*
X211826Y294998D01*
X211032Y296032D01*
X209998Y296826D01*
X208793Y297325D01*
X207500Y297496D01*
X206207Y297325D01*
X205002Y296826D01*
X203968Y296032D01*
X203174Y294998D01*
X202953Y294464D01*
X202453Y294564D01*
Y297453D01*
X192547D01*
Y287547D01*
X202453D01*
Y290436D01*
X202953Y290536D01*
X203174Y290002D01*
X203968Y288968D01*
X205002Y288174D01*
X206207Y287675D01*
X207500Y287505D01*
X208793Y287675D01*
X209998Y288174D01*
X211032Y288968D01*
X211826Y290002D01*
X212229Y290976D01*
X212771D01*
X213174Y290002D01*
X213968Y288968D01*
X214474Y288579D01*
Y274500D01*
X214577Y273717D01*
X214791Y273201D01*
X214879Y272987D01*
X215360Y272360D01*
X231971Y255750D01*
Y255250D01*
X217860Y241140D01*
X217379Y240513D01*
X217291Y240299D01*
X217077Y239783D01*
X216974Y239000D01*
Y216236D01*
X216889Y216170D01*
X216190Y215259D01*
X215750Y214198D01*
X215600Y213059D01*
Y207941D01*
X215750Y206802D01*
X216190Y205741D01*
X216889Y204830D01*
X217800Y204131D01*
X218861Y203691D01*
X220000Y203541D01*
X221139Y203691D01*
X222200Y204131D01*
X223111Y204830D01*
X223810Y205741D01*
X224250Y206802D01*
X224400Y207941D01*
Y213059D01*
X224250Y214198D01*
X223810Y215259D01*
X223111Y216170D01*
X223026Y216236D01*
Y237747D01*
X237753Y252474D01*
X414500D01*
X415283Y252577D01*
X415799Y252791D01*
X416013Y252880D01*
X416640Y253360D01*
X424640Y261360D01*
X425120Y261987D01*
X425423Y262717D01*
X425526Y263500D01*
Y288579D01*
X426032Y288968D01*
X426826Y290002D01*
X427229Y290976D01*
X427771D01*
X428174Y290002D01*
X428968Y288968D01*
X430002Y288174D01*
X431207Y287675D01*
X432500Y287505D01*
X433793Y287675D01*
X434998Y288174D01*
X436032Y288968D01*
X436826Y290002D01*
X437325Y291207D01*
X437496Y292500D01*
X437325Y293793D01*
X436826Y294998D01*
X436032Y296032D01*
X434998Y296826D01*
X433793Y297325D01*
X432500Y297496D01*
D02*
G37*
G36*
X126559Y296559D02*
X117441D01*
Y287441D01*
X126559D01*
Y296559D01*
D02*
G37*
G36*
X45000Y296598D02*
X43810Y296442D01*
X42701Y295982D01*
X41748Y295251D01*
X41018Y294299D01*
X40558Y293190D01*
X40402Y292000D01*
X40558Y290810D01*
X41018Y289701D01*
X41748Y288749D01*
X42701Y288018D01*
X43810Y287558D01*
X45000Y287402D01*
X46190Y287558D01*
X47299Y288018D01*
X48252Y288749D01*
X48982Y289701D01*
X49442Y290810D01*
X49598Y292000D01*
X49442Y293190D01*
X48982Y294299D01*
X48252Y295251D01*
X47299Y295982D01*
X46190Y296442D01*
X45000Y296598D01*
D02*
G37*
G36*
X309842Y288652D02*
X308293Y288500D01*
X306803Y288048D01*
X305429Y287314D01*
X304225Y286326D01*
X303238Y285122D01*
X302503Y283749D01*
X302051Y282258D01*
X301899Y280709D01*
X302051Y279159D01*
X302503Y277669D01*
X303238Y276295D01*
X304225Y275092D01*
X305429Y274104D01*
X306803Y273370D01*
X308293Y272918D01*
X309842Y272765D01*
X311392Y272918D01*
X312882Y273370D01*
X314256Y274104D01*
X315460Y275092D01*
X316447Y276295D01*
X317182Y277669D01*
X317634Y279159D01*
X317786Y280709D01*
X317634Y282258D01*
X317182Y283749D01*
X316447Y285122D01*
X315460Y286326D01*
X314256Y287314D01*
X312882Y288048D01*
X311392Y288500D01*
X309842Y288652D01*
D02*
G37*
G36*
X74000Y296598D02*
X72810Y296442D01*
X71701Y295982D01*
X70749Y295251D01*
X70018Y294299D01*
X69558Y293190D01*
X69402Y292000D01*
X69558Y290810D01*
X70018Y289701D01*
X70749Y288749D01*
X71701Y288018D01*
X72810Y287558D01*
X74000Y287402D01*
X75190Y287558D01*
X76299Y288018D01*
X77251Y288749D01*
X77982Y289701D01*
X78442Y290810D01*
X78598Y292000D01*
X78442Y293190D01*
X77982Y294299D01*
X77251Y295251D01*
X76299Y295982D01*
X75190Y296442D01*
X74000Y296598D01*
D02*
G37*
G36*
X132000D02*
X130810Y296442D01*
X129701Y295982D01*
X128749Y295251D01*
X128018Y294299D01*
X127558Y293190D01*
X127402Y292000D01*
X127558Y290810D01*
X128018Y289701D01*
X128749Y288749D01*
X129701Y288018D01*
X130810Y287558D01*
X132000Y287402D01*
X133190Y287558D01*
X134299Y288018D01*
X135251Y288749D01*
X135982Y289701D01*
X136442Y290810D01*
X136598Y292000D01*
X136442Y293190D01*
X135982Y294299D01*
X135251Y295251D01*
X134299Y295982D01*
X133190Y296442D01*
X132000Y296598D01*
D02*
G37*
G36*
X103000D02*
X101810Y296442D01*
X100701Y295982D01*
X99748Y295251D01*
X99018Y294299D01*
X98558Y293190D01*
X98402Y292000D01*
X98558Y290810D01*
X99018Y289701D01*
X99748Y288749D01*
X100701Y288018D01*
X101810Y287558D01*
X103000Y287402D01*
X104190Y287558D01*
X105299Y288018D01*
X106252Y288749D01*
X106982Y289701D01*
X107442Y290810D01*
X107598Y292000D01*
X107442Y293190D01*
X106982Y294299D01*
X106252Y295251D01*
X105299Y295982D01*
X104190Y296442D01*
X103000Y296598D01*
D02*
G37*
G36*
X300000Y217459D02*
X298861Y217309D01*
X297800Y216869D01*
X296889Y216170D01*
X296190Y215259D01*
X295750Y214198D01*
X295600Y213059D01*
Y207941D01*
X295750Y206802D01*
X296190Y205741D01*
X296889Y204830D01*
X296974Y204764D01*
Y202500D01*
X297077Y201717D01*
X297291Y201201D01*
X297379Y200987D01*
X297860Y200360D01*
X308360Y189860D01*
X308987Y189380D01*
X309201Y189291D01*
X309717Y189077D01*
X310500Y188974D01*
X412579D01*
X412968Y188468D01*
X414002Y187674D01*
X414976Y187271D01*
Y186729D01*
X414002Y186326D01*
X412968Y185532D01*
X412579Y185026D01*
X280253D01*
X273026Y192253D01*
Y204764D01*
X273111Y204830D01*
X273810Y205741D01*
X274250Y206802D01*
X274400Y207941D01*
Y213059D01*
X274250Y214198D01*
X273810Y215259D01*
X273111Y216170D01*
X272200Y216869D01*
X271139Y217309D01*
X270000Y217459D01*
X268861Y217309D01*
X267800Y216869D01*
X266889Y216170D01*
X266190Y215259D01*
X265750Y214198D01*
X265600Y213059D01*
Y207941D01*
X265750Y206802D01*
X266190Y205741D01*
X266889Y204830D01*
X266974Y204764D01*
Y191000D01*
X267077Y190217D01*
X267291Y189701D01*
X267379Y189487D01*
X267860Y188860D01*
X276860Y179860D01*
X277487Y179379D01*
X277701Y179291D01*
X278217Y179077D01*
X279000Y178974D01*
X412579D01*
X412968Y178468D01*
X414002Y177674D01*
X414976Y177271D01*
Y176729D01*
X414002Y176326D01*
X412968Y175532D01*
X412195Y174526D01*
X262753D01*
X253026Y184253D01*
Y204764D01*
X253111Y204830D01*
X253810Y205741D01*
X254250Y206802D01*
X254400Y207941D01*
Y213059D01*
X254250Y214198D01*
X253810Y215259D01*
X253111Y216170D01*
X252200Y216869D01*
X251139Y217309D01*
X250000Y217459D01*
X248861Y217309D01*
X247800Y216869D01*
X246889Y216170D01*
X246190Y215259D01*
X245750Y214198D01*
X245600Y213059D01*
Y207941D01*
X245750Y206802D01*
X246190Y205741D01*
X246889Y204830D01*
X246974Y204764D01*
Y183000D01*
X247077Y182217D01*
X247291Y181701D01*
X247379Y181487D01*
X247860Y180860D01*
X259360Y169360D01*
X259360Y169360D01*
X259632Y169152D01*
X259987Y168879D01*
X260717Y168577D01*
X261500Y168474D01*
X261500Y168474D01*
X412963D01*
X412968Y168468D01*
X414002Y167674D01*
X415207Y167175D01*
X416500Y167005D01*
X417793Y167175D01*
X418998Y167674D01*
X420032Y168468D01*
X420826Y169502D01*
X421229Y170476D01*
X421771D01*
X422174Y169502D01*
X422968Y168468D01*
X424002Y167674D01*
X425207Y167175D01*
X426500Y167005D01*
X427793Y167175D01*
X428998Y167674D01*
X430032Y168468D01*
X430826Y169502D01*
X431325Y170707D01*
X431496Y172000D01*
X431325Y173293D01*
X430826Y174498D01*
X430032Y175532D01*
X428998Y176326D01*
X428024Y176729D01*
Y177271D01*
X428998Y177674D01*
X430032Y178468D01*
X430826Y179502D01*
X431325Y180707D01*
X431496Y182000D01*
X431325Y183293D01*
X430826Y184498D01*
X430032Y185532D01*
X428998Y186326D01*
X428024Y186729D01*
Y187271D01*
X428998Y187674D01*
X430032Y188468D01*
X430421Y188974D01*
X435247D01*
X439974Y184247D01*
Y169753D01*
X436247Y166026D01*
X247253D01*
X233026Y180253D01*
Y204764D01*
X233111Y204830D01*
X233810Y205741D01*
X234250Y206802D01*
X234400Y207941D01*
Y213059D01*
X234250Y214198D01*
X233810Y215259D01*
X233111Y216170D01*
X232200Y216869D01*
X231139Y217309D01*
X230000Y217459D01*
X228861Y217309D01*
X227800Y216869D01*
X226889Y216170D01*
X226190Y215259D01*
X225750Y214198D01*
X225600Y213059D01*
Y207941D01*
X225750Y206802D01*
X226190Y205741D01*
X226889Y204830D01*
X226974Y204764D01*
Y179000D01*
X227077Y178217D01*
X227291Y177701D01*
X227379Y177487D01*
X227860Y176860D01*
X243860Y160860D01*
X244487Y160380D01*
X245217Y160077D01*
X246000Y159974D01*
X246000Y159974D01*
X437500D01*
X438283Y160077D01*
X438799Y160291D01*
X439013Y160380D01*
X439640Y160860D01*
X445140Y166360D01*
X445140Y166360D01*
X445412Y166715D01*
X445620Y166987D01*
X445923Y167717D01*
X446026Y168500D01*
Y185500D01*
X446026Y185500D01*
X445935Y186192D01*
X445923Y186283D01*
X445772Y186648D01*
X445620Y187013D01*
X445140Y187640D01*
X438640Y194140D01*
X438013Y194621D01*
X437799Y194709D01*
X437283Y194923D01*
X436500Y195026D01*
X430421D01*
X430032Y195532D01*
X428998Y196326D01*
X427793Y196825D01*
X426500Y196995D01*
X425207Y196825D01*
X424002Y196326D01*
X422968Y195532D01*
X422174Y194498D01*
X421771Y193524D01*
X421229D01*
X420826Y194498D01*
X420032Y195532D01*
X418998Y196326D01*
X418464Y196547D01*
X418564Y197047D01*
X421453D01*
Y206953D01*
X411547D01*
Y197047D01*
X414436D01*
X414536Y196547D01*
X414002Y196326D01*
X412968Y195532D01*
X412579Y195026D01*
X311753D01*
X303026Y203753D01*
Y204764D01*
X303111Y204830D01*
X303810Y205741D01*
X304250Y206802D01*
X304400Y207941D01*
Y213059D01*
X304250Y214198D01*
X303810Y215259D01*
X303111Y216170D01*
X302200Y216869D01*
X301139Y217309D01*
X300000Y217459D01*
D02*
G37*
G36*
X164362Y157421D02*
X155638D01*
Y143579D01*
X164362D01*
Y157421D01*
D02*
G37*
G36*
X426000Y201500D02*
X422579D01*
X422649Y200968D01*
X423047Y200007D01*
X423681Y199181D01*
X424507Y198547D01*
X425468Y198149D01*
X426000Y198079D01*
Y201500D01*
D02*
G37*
G36*
Y205921D02*
X425468Y205851D01*
X424507Y205453D01*
X423681Y204819D01*
X423047Y203993D01*
X422649Y203032D01*
X422579Y202500D01*
X426000D01*
Y205921D01*
D02*
G37*
G36*
X430421Y201500D02*
X427000D01*
Y198079D01*
X427532Y198149D01*
X428493Y198547D01*
X429319Y199181D01*
X429953Y200007D01*
X430351Y200968D01*
X430421Y201500D01*
D02*
G37*
G36*
X280000Y157459D02*
X278861Y157309D01*
X277800Y156869D01*
X276889Y156170D01*
X276190Y155259D01*
X275750Y154198D01*
X275600Y153059D01*
Y147941D01*
X275750Y146802D01*
X276190Y145741D01*
X276889Y144830D01*
X277800Y144131D01*
X278861Y143691D01*
X280000Y143541D01*
X281139Y143691D01*
X282200Y144131D01*
X283111Y144830D01*
X283810Y145741D01*
X284250Y146802D01*
X284400Y147941D01*
Y153059D01*
X284250Y154198D01*
X283810Y155259D01*
X283111Y156170D01*
X282200Y156869D01*
X281139Y157309D01*
X280000Y157459D01*
D02*
G37*
G36*
X270000D02*
X268861Y157309D01*
X267800Y156869D01*
X266889Y156170D01*
X266190Y155259D01*
X265750Y154198D01*
X265600Y153059D01*
Y147941D01*
X265750Y146802D01*
X266190Y145741D01*
X266889Y144830D01*
X267800Y144131D01*
X268861Y143691D01*
X270000Y143541D01*
X271139Y143691D01*
X272200Y144131D01*
X273111Y144830D01*
X273810Y145741D01*
X274250Y146802D01*
X274400Y147941D01*
Y153059D01*
X274250Y154198D01*
X273810Y155259D01*
X273111Y156170D01*
X272200Y156869D01*
X271139Y157309D01*
X270000Y157459D01*
D02*
G37*
G36*
X290000D02*
X288861Y157309D01*
X287800Y156869D01*
X286889Y156170D01*
X286190Y155259D01*
X285750Y154198D01*
X285600Y153059D01*
Y147941D01*
X285750Y146802D01*
X286190Y145741D01*
X286889Y144830D01*
X287800Y144131D01*
X288861Y143691D01*
X290000Y143541D01*
X291139Y143691D01*
X292200Y144131D01*
X293111Y144830D01*
X293810Y145741D01*
X294250Y146802D01*
X294400Y147941D01*
Y153059D01*
X294250Y154198D01*
X293810Y155259D01*
X293111Y156170D01*
X292200Y156869D01*
X291139Y157309D01*
X290000Y157459D01*
D02*
G37*
G36*
X310000D02*
X308861Y157309D01*
X307800Y156869D01*
X306889Y156170D01*
X306190Y155259D01*
X305750Y154198D01*
X305600Y153059D01*
Y147941D01*
X305750Y146802D01*
X306190Y145741D01*
X306889Y144830D01*
X307800Y144131D01*
X308861Y143691D01*
X310000Y143541D01*
X311139Y143691D01*
X312200Y144131D01*
X313111Y144830D01*
X313810Y145741D01*
X314250Y146802D01*
X314400Y147941D01*
Y153059D01*
X314250Y154198D01*
X313810Y155259D01*
X313111Y156170D01*
X312200Y156869D01*
X311139Y157309D01*
X310000Y157459D01*
D02*
G37*
G36*
X300000D02*
X298861Y157309D01*
X297800Y156869D01*
X296889Y156170D01*
X296190Y155259D01*
X295750Y154198D01*
X295600Y153059D01*
Y147941D01*
X295750Y146802D01*
X296190Y145741D01*
X296889Y144830D01*
X297800Y144131D01*
X298861Y143691D01*
X300000Y143541D01*
X301139Y143691D01*
X302200Y144131D01*
X303111Y144830D01*
X303810Y145741D01*
X304250Y146802D01*
X304400Y147941D01*
Y153059D01*
X304250Y154198D01*
X303810Y155259D01*
X303111Y156170D01*
X302200Y156869D01*
X301139Y157309D01*
X300000Y157459D01*
D02*
G37*
G36*
X210000Y217459D02*
X208861Y217309D01*
X207800Y216869D01*
X206889Y216170D01*
X206190Y215259D01*
X205750Y214198D01*
X205600Y213059D01*
Y207941D01*
X205750Y206802D01*
X206190Y205741D01*
X206889Y204830D01*
X207800Y204131D01*
X208861Y203691D01*
X210000Y203541D01*
X211139Y203691D01*
X212200Y204131D01*
X213111Y204830D01*
X213810Y205741D01*
X214250Y206802D01*
X214400Y207941D01*
Y213059D01*
X214250Y214198D01*
X213810Y215259D01*
X213111Y216170D01*
X212200Y216869D01*
X211139Y217309D01*
X210000Y217459D01*
D02*
G37*
G36*
X200000D02*
X198861Y217309D01*
X197800Y216869D01*
X196889Y216170D01*
X196190Y215259D01*
X195750Y214198D01*
X195600Y213059D01*
Y207941D01*
X195750Y206802D01*
X196190Y205741D01*
X196889Y204830D01*
X197800Y204131D01*
X198861Y203691D01*
X200000Y203541D01*
X201139Y203691D01*
X202200Y204131D01*
X203111Y204830D01*
X203810Y205741D01*
X204250Y206802D01*
X204400Y207941D01*
Y213059D01*
X204250Y214198D01*
X203810Y215259D01*
X203111Y216170D01*
X202200Y216869D01*
X201139Y217309D01*
X200000Y217459D01*
D02*
G37*
G36*
X240000D02*
X238861Y217309D01*
X237800Y216869D01*
X236889Y216170D01*
X236190Y215259D01*
X235750Y214198D01*
X235600Y213059D01*
Y207941D01*
X235750Y206802D01*
X236190Y205741D01*
X236889Y204830D01*
X237800Y204131D01*
X238861Y203691D01*
X240000Y203541D01*
X241139Y203691D01*
X242200Y204131D01*
X243111Y204830D01*
X243810Y205741D01*
X244250Y206802D01*
X244400Y207941D01*
Y213059D01*
X244250Y214198D01*
X243810Y215259D01*
X243111Y216170D01*
X242200Y216869D01*
X241139Y217309D01*
X240000Y217459D01*
D02*
G37*
G36*
X280000D02*
X278861Y217309D01*
X277800Y216869D01*
X276889Y216170D01*
X276190Y215259D01*
X275750Y214198D01*
X275600Y213059D01*
Y207941D01*
X275750Y206802D01*
X276190Y205741D01*
X276889Y204830D01*
X277800Y204131D01*
X278861Y203691D01*
X280000Y203541D01*
X281139Y203691D01*
X282200Y204131D01*
X283111Y204830D01*
X283810Y205741D01*
X284250Y206802D01*
X284400Y207941D01*
Y213059D01*
X284250Y214198D01*
X283810Y215259D01*
X283111Y216170D01*
X282200Y216869D01*
X281139Y217309D01*
X280000Y217459D01*
D02*
G37*
G36*
X260000D02*
X258861Y217309D01*
X257800Y216869D01*
X256889Y216170D01*
X256190Y215259D01*
X255750Y214198D01*
X255600Y213059D01*
Y207941D01*
X255750Y206802D01*
X256190Y205741D01*
X256889Y204830D01*
X257800Y204131D01*
X258861Y203691D01*
X260000Y203541D01*
X261139Y203691D01*
X262200Y204131D01*
X263111Y204830D01*
X263810Y205741D01*
X264250Y206802D01*
X264400Y207941D01*
Y213059D01*
X264250Y214198D01*
X263810Y215259D01*
X263111Y216170D01*
X262200Y216869D01*
X261139Y217309D01*
X260000Y217459D01*
D02*
G37*
G36*
X160000D02*
X158861Y217309D01*
X157800Y216869D01*
X156889Y216170D01*
X156190Y215259D01*
X155750Y214198D01*
X155600Y213059D01*
Y207941D01*
X155750Y206802D01*
X156190Y205741D01*
X156889Y204830D01*
X157800Y204131D01*
X158861Y203691D01*
X160000Y203541D01*
X161139Y203691D01*
X162200Y204131D01*
X163111Y204830D01*
X163810Y205741D01*
X164250Y206802D01*
X164400Y207941D01*
Y213059D01*
X164250Y214198D01*
X163810Y215259D01*
X163111Y216170D01*
X162200Y216869D01*
X161139Y217309D01*
X160000Y217459D01*
D02*
G37*
G36*
X427000Y205921D02*
Y202500D01*
X430421D01*
X430351Y203032D01*
X429953Y203993D01*
X429319Y204819D01*
X428493Y205453D01*
X427532Y205851D01*
X427000Y205921D01*
D02*
G37*
G36*
X170000Y217459D02*
X168861Y217309D01*
X167800Y216869D01*
X166889Y216170D01*
X166190Y215259D01*
X165750Y214198D01*
X165600Y213059D01*
Y207941D01*
X165750Y206802D01*
X166190Y205741D01*
X166889Y204830D01*
X167800Y204131D01*
X168861Y203691D01*
X170000Y203541D01*
X171139Y203691D01*
X172200Y204131D01*
X173111Y204830D01*
X173810Y205741D01*
X174250Y206802D01*
X174400Y207941D01*
Y213059D01*
X174250Y214198D01*
X173810Y215259D01*
X173111Y216170D01*
X172200Y216869D01*
X171139Y217309D01*
X170000Y217459D01*
D02*
G37*
G36*
X190000D02*
X188861Y217309D01*
X187800Y216869D01*
X186889Y216170D01*
X186190Y215259D01*
X185750Y214198D01*
X185600Y213059D01*
Y207941D01*
X185750Y206802D01*
X186190Y205741D01*
X186889Y204830D01*
X187800Y204131D01*
X188861Y203691D01*
X190000Y203541D01*
X191139Y203691D01*
X192200Y204131D01*
X193111Y204830D01*
X193810Y205741D01*
X194250Y206802D01*
X194400Y207941D01*
Y213059D01*
X194250Y214198D01*
X193810Y215259D01*
X193111Y216170D01*
X192200Y216869D01*
X191139Y217309D01*
X190000Y217459D01*
D02*
G37*
G36*
X180000D02*
X178861Y217309D01*
X177800Y216869D01*
X176889Y216170D01*
X176190Y215259D01*
X175750Y214198D01*
X175600Y213059D01*
Y207941D01*
X175750Y206802D01*
X176190Y205741D01*
X176889Y204830D01*
X177800Y204131D01*
X178861Y203691D01*
X180000Y203541D01*
X181139Y203691D01*
X182200Y204131D01*
X183111Y204830D01*
X183810Y205741D01*
X184250Y206802D01*
X184400Y207941D01*
Y213059D01*
X184250Y214198D01*
X183810Y215259D01*
X183111Y216170D01*
X182200Y216869D01*
X181139Y217309D01*
X180000Y217459D01*
D02*
G37*
%LPD*%
D10*
X211500Y80500D02*
Y102500D01*
X396000Y144500D02*
X402500Y151000D01*
X396000Y117000D02*
Y144500D01*
X425500Y135500D02*
X440907Y120092D01*
X405000Y135500D02*
X425500D01*
X402500Y151000D02*
X439000D01*
X453500Y165500D01*
Y203000D01*
X445000Y211500D02*
X453500Y203000D01*
X443000Y211500D02*
X445000D01*
X217500Y274500D02*
X236500Y255500D01*
X217500Y274500D02*
Y292500D01*
X261500Y255500D02*
X361000D01*
X236500D02*
X261500D01*
X270000Y264000D01*
Y292500D01*
X361000Y255500D02*
X414500D01*
X361000D02*
X370000Y264500D01*
Y292500D01*
X422500Y263500D02*
Y292500D01*
X414500Y255500D02*
X422500Y263500D01*
X220000Y239000D02*
X236500Y255500D01*
X220000Y210500D02*
Y239000D01*
X246000Y163000D02*
X437500D01*
X443000Y168500D01*
Y185500D01*
X436500Y192000D02*
X443000Y185500D01*
X426500Y192000D02*
X436500D01*
X300000Y202500D02*
Y210500D01*
Y202500D02*
X310500Y192000D01*
X416500D01*
X270000Y191000D02*
Y210500D01*
Y191000D02*
X279000Y182000D01*
X416500D01*
X261500Y171500D02*
X416000D01*
X250000Y183000D02*
X261500Y171500D01*
X250000Y183000D02*
Y210500D01*
X230000Y179000D02*
X246000Y163000D01*
X230000Y179000D02*
Y210500D01*
X265276Y120776D02*
X273000Y128500D01*
X265276Y82224D02*
Y120776D01*
X115000Y99000D02*
X142500Y71500D01*
X206500D01*
X44000Y99000D02*
X115000D01*
X31000Y112000D02*
X44000Y99000D01*
X31000Y112000D02*
Y133500D01*
X406760Y78240D02*
X413000Y72000D01*
X406760Y78240D02*
Y109740D01*
X441500Y42500D02*
Y67500D01*
X433500Y34500D02*
X441500Y42500D01*
X423500Y34500D02*
X433500D01*
D11*
X17664Y20997D02*
X11000D01*
Y15998D01*
X14332D01*
X11000D01*
Y11000D01*
X27661Y19331D02*
X25995Y20997D01*
X22663D01*
X20997Y19331D01*
Y17664D01*
X22663Y15998D01*
X25995D01*
X27661Y14332D01*
Y12666D01*
X25995Y11000D01*
X22663D01*
X20997Y12666D01*
X30994Y11000D02*
X34326D01*
X32660D01*
Y20997D01*
X30994Y19331D01*
X39324Y20997D02*
X45989D01*
Y19331D01*
X39324Y12666D01*
Y11000D01*
X11000Y29500D02*
Y39497D01*
X14332Y36165D01*
X17664Y39497D01*
Y29500D01*
X20997D02*
Y31166D01*
X22663D01*
Y29500D01*
X20997D01*
X45989Y37831D02*
X44323Y39497D01*
X40990D01*
X39324Y37831D01*
Y36165D01*
X40990Y34498D01*
X44323D01*
X45989Y32832D01*
Y31166D01*
X44323Y29500D01*
X40990D01*
X39324Y31166D01*
X55985Y36165D02*
X50987D01*
X49321Y34498D01*
Y31166D01*
X50987Y29500D01*
X55985D01*
X59318Y39497D02*
Y29500D01*
Y34498D01*
X60984Y36165D01*
X64316D01*
X65982Y34498D01*
Y29500D01*
X69314Y36165D02*
Y31166D01*
X70981Y29500D01*
X72647Y31166D01*
X74313Y29500D01*
X75979Y31166D01*
Y36165D01*
X84310Y29500D02*
X80977D01*
X79311Y31166D01*
Y34498D01*
X80977Y36165D01*
X84310D01*
X85976Y34498D01*
Y32832D01*
X79311D01*
X92640Y26168D02*
X94306D01*
X95973Y27834D01*
Y36165D01*
X90974D01*
X89308Y34498D01*
Y31166D01*
X90974Y29500D01*
X95973D01*
X99305D02*
X102637D01*
X100971D01*
Y39497D01*
X99305D01*
X112634Y29500D02*
X109302D01*
X107635Y31166D01*
Y34498D01*
X109302Y36165D01*
X112634D01*
X114300Y34498D01*
Y32832D01*
X107635D01*
X117632Y36165D02*
Y29500D01*
Y32832D01*
X119298Y34498D01*
X120965Y36165D01*
X122631D01*
X11000Y46000D02*
Y55997D01*
X14332Y52665D01*
X17664Y55997D01*
Y46000D01*
X22663Y52665D02*
X25995D01*
X27661Y50998D01*
Y46000D01*
X22663D01*
X20997Y47666D01*
X22663Y49332D01*
X27661D01*
X30994Y46000D02*
X34326D01*
X32660D01*
Y52665D01*
X30994D01*
X39324Y46000D02*
Y52665D01*
X44323D01*
X45989Y50998D01*
Y46000D01*
X59318Y55997D02*
Y46000D01*
X64316D01*
X65982Y47666D01*
Y49332D01*
X64316Y50998D01*
X59318D01*
X64316D01*
X65982Y52665D01*
Y54331D01*
X64316Y55997D01*
X59318D01*
X70981Y46000D02*
X74313D01*
X75979Y47666D01*
Y50998D01*
X74313Y52665D01*
X70981D01*
X69314Y50998D01*
Y47666D01*
X70981Y46000D01*
X80977Y52665D02*
X84310D01*
X85976Y50998D01*
Y46000D01*
X80977D01*
X79311Y47666D01*
X80977Y49332D01*
X85976D01*
X89308Y52665D02*
Y46000D01*
Y49332D01*
X90974Y50998D01*
X92640Y52665D01*
X94306D01*
X105969Y55997D02*
Y46000D01*
X100971D01*
X99305Y47666D01*
Y50998D01*
X100971Y52665D01*
X105969D01*
X119298D02*
X122631Y46000D01*
X125963Y52665D01*
X129295Y46000D02*
X132627D01*
X130961D01*
Y55997D01*
X129295Y54331D01*
X17664Y69831D02*
X15998Y71497D01*
X12666D01*
X11000Y69831D01*
Y68164D01*
X12666Y66498D01*
X15998D01*
X17664Y64832D01*
Y63166D01*
X15998Y61500D01*
X12666D01*
X11000Y63166D01*
X20997Y61500D02*
Y68164D01*
X22663D01*
X24329Y66498D01*
Y61500D01*
Y66498D01*
X25995Y68164D01*
X27661Y66498D01*
Y61500D01*
X32660Y68164D02*
X35992D01*
X37658Y66498D01*
Y61500D01*
X32660D01*
X30994Y63166D01*
X32660Y64832D01*
X37658D01*
X40990Y68164D02*
Y61500D01*
Y64832D01*
X42656Y66498D01*
X44323Y68164D01*
X45989D01*
X52653Y69831D02*
Y68164D01*
X50987D01*
X54319D01*
X52653D01*
Y63166D01*
X54319Y61500D01*
X59318Y71497D02*
Y61500D01*
X64316D01*
X65982Y63166D01*
Y64832D01*
X64316Y66498D01*
X59318D01*
X64316D01*
X65982Y68164D01*
Y69831D01*
X64316Y71497D01*
X59318D01*
X70981Y61500D02*
X74313D01*
X75979Y63166D01*
Y66498D01*
X74313Y68164D01*
X70981D01*
X69314Y66498D01*
Y63166D01*
X70981Y61500D01*
X80977Y68164D02*
X84310D01*
X85976Y66498D01*
Y61500D01*
X80977D01*
X79311Y63166D01*
X80977Y64832D01*
X85976D01*
X89308Y68164D02*
Y61500D01*
Y64832D01*
X90974Y66498D01*
X92640Y68164D01*
X94306D01*
X105969Y71497D02*
Y61500D01*
X100971D01*
X99305Y63166D01*
Y66498D01*
X100971Y68164D01*
X105969D01*
D12*
X456500Y34500D02*
D03*
Y14500D02*
D03*
D13*
X457000Y143500D02*
D03*
X132000Y292000D02*
D03*
X103000D02*
D03*
X74000D02*
D03*
X45000D02*
D03*
X161500Y95500D02*
D03*
D14*
X457000Y133500D02*
D03*
X161500Y85500D02*
D03*
D15*
X122000Y292000D02*
D03*
X93000D02*
D03*
X64000D02*
D03*
X35000D02*
D03*
D16*
X236221Y34252D02*
D03*
X309842Y280709D02*
D03*
X162598D02*
D03*
D17*
X457000Y59500D02*
D03*
X12000Y103500D02*
D03*
D18*
X457000Y69500D02*
D03*
X12000Y113500D02*
D03*
X211276Y80276D02*
D03*
X211500Y102500D02*
D03*
X405000Y135500D02*
D03*
X443000Y211500D02*
D03*
X396000Y117000D02*
D03*
X440907Y120092D02*
D03*
X273000Y128500D02*
D03*
X265276Y82224D02*
D03*
X206500Y71500D02*
D03*
X31000Y133500D02*
D03*
X115000Y99000D02*
D03*
X406760Y109740D02*
D03*
X413000Y72000D02*
D03*
X423500Y34500D02*
D03*
X441500Y67500D02*
D03*
D19*
X160000Y150500D02*
D03*
D20*
X170000D02*
D03*
X180000D02*
D03*
X190000D02*
D03*
X200000D02*
D03*
X210000D02*
D03*
X220000D02*
D03*
X230000D02*
D03*
X240000D02*
D03*
X250000D02*
D03*
X260000D02*
D03*
X270000D02*
D03*
X280000D02*
D03*
X290000D02*
D03*
X300000D02*
D03*
X310000D02*
D03*
X160000Y210500D02*
D03*
X170000D02*
D03*
X180000D02*
D03*
X190000D02*
D03*
X200000D02*
D03*
X210000D02*
D03*
X220000D02*
D03*
X230000D02*
D03*
X240000D02*
D03*
X250000D02*
D03*
X260000D02*
D03*
X270000D02*
D03*
X280000D02*
D03*
X290000D02*
D03*
X300000D02*
D03*
X310000D02*
D03*
D21*
X416500Y202000D02*
D03*
D22*
Y192000D02*
D03*
Y172000D02*
D03*
X426500Y182000D02*
D03*
X416500D02*
D03*
X426500Y172000D02*
D03*
Y192000D02*
D03*
Y202000D02*
D03*
X380000Y292500D02*
D03*
X370000D02*
D03*
X360000D02*
D03*
X280000D02*
D03*
X270000D02*
D03*
X260000D02*
D03*
X227500D02*
D03*
X217500D02*
D03*
X207500D02*
D03*
X432500D02*
D03*
X422500D02*
D03*
X412500D02*
D03*
D23*
X350000D02*
D03*
X250000D02*
D03*
X197500D02*
D03*
X402500D02*
D03*
M02*
